<svg id="Ebene_1" data-name="Ebene 1" xmlns="http://www.w3.org/2000/svg" viewBox="0 0 217.99 239.36"><defs><style>.cls-1{fill:#fff;}.cls-2{fill:#231f20;}.cls-3{fill:#68e1fd;}.cls-4{fill:#d1d3d4;}</style></defs><g id="_446_coughing_flatline" data-name=" 446 coughing flatline"><path class="cls-1" d="M114,64.35S97.58,66.76,83.46,62,53.7,66.08,53.7,66.08s8.33,7,11.66,16.1c0,0,10.61-4.06,26.07-1.63a60.23,60.23,0,0,0,27.05-1.69Z" transform="translate(0 0)"/><path class="cls-2" d="M65.36,82.69a.34.34,0,0,1-.2,0,.46.46,0,0,1-.25-.31c-3.24-8.86-11.44-15.83-11.52-15.9a.49.49,0,0,1-.18-.43.51.51,0,0,1,.26-.4c.16-.08,16-8.85,30.17-4.06,13.84,4.64,30.16,2.33,30.32,2.3a.52.52,0,0,1,.56.36L119,78.76a.51.51,0,0,1-.32.63,61.64,61.64,0,0,1-27.3,1.72c-15.13-2.38-25.69,1.56-25.8,1.6A.5.5,0,0,1,65.36,82.69ZM54.58,66.14c1.92,1.73,8.12,7.73,11.09,15.36A57.6,57.6,0,0,1,91.51,80a61.36,61.36,0,0,0,26.34-1.52l-4.22-13.58c-2.71.33-17.56,1.89-30.36-2.41C71.15,58.42,57.65,64.63,54.58,66.14Z" transform="translate(0 0)"/><path class="cls-1" d="M176.56,74a4,4,0,0,0-.71,1.89,10.18,10.18,0,0,0,2.62,8.51c1.16,1.21,3,2.15,4.48,1.38a3.13,3.13,0,0,0,1.51-2.12,7.05,7.05,0,0,0,0-2.67C184,77.66,181.06,68.17,176.56,74Z" transform="translate(0 0)"/><path class="cls-2" d="M181.78,86.57a5.45,5.45,0,0,1-3.65-1.82,10.65,10.65,0,0,1-2.76-8.94,4.57,4.57,0,0,1,.8-2.11h0c1.26-1.66,2.55-2.33,3.83-2,3,.78,4.66,7.1,5,9.2a7.75,7.75,0,0,1,0,2.88,3.58,3.58,0,0,1-1.78,2.45A3,3,0,0,1,181.78,86.57Zm-2.4-13.94c-.74,0-1.55.57-2.4,1.68h0a3.65,3.65,0,0,0-.62,1.66,9.69,9.69,0,0,0,2.51,8.12c1,1.1,2.64,1.92,3.86,1.28A2.71,2.71,0,0,0,184,83.58a6.89,6.89,0,0,0,0-2.48c-.41-2.65-2-7.82-4.24-8.38A2.22,2.22,0,0,0,179.38,72.63ZM176.56,74Z" transform="translate(0 0)"/><path class="cls-1" d="M185.59,102.84s1.31-10,1.3-11.29q-.54-3.51-1.43-7s-5.65-2.47-6.75-6.77,5.78-12.59,7.51-12.62,1.3,1.33,2.51,1.1,3.26-.69,4.21,1,1,2.83,1.91,3.05,3.09-.87,4.06,1.38.88-.13,2.8,2.56S205,83,205.77,87.13,200,114,200,114Z" transform="translate(0 0)"/><path class="cls-2" d="M200.06,114.45a.5.5,0,0,1-.31-.1l-14.46-11.11a.49.49,0,0,1-.21-.46c.46-3.46,1.31-10.25,1.3-11.23A62.26,62.26,0,0,0,185,85c-1.11-.52-5.77-3-6.82-7-.84-3.28,2.46-8,3.49-9.31,1.37-1.8,3.38-3.91,4.52-3.93a2.11,2.11,0,0,1,1.88.86c.22.25.25.29.54.24h.14c1.23-.23,3.52-.67,4.61,1.28.32.6.55,1.14.75,1.57.33.78.5,1.15.83,1.23a3.14,3.14,0,0,0,.75,0c1-.11,2.8-.3,3.67,1.7.32.71.45.79.47.8H200c.55,0,1.13.18,2.18,1.65,2,2.75,3.33,8.75,4.19,13s-5.51,26.14-5.79,27.08a.51.51,0,0,1-.33.34Zm-13.93-11.83,13.65,10.47c2.31-8,6.19-22.79,5.56-25.88-.83-4.18-2.16-10-4.06-12.63-.85-1.2-1.19-1.22-1.4-1.23-.59,0-.94-.24-1.45-1.42s-1.43-1.22-2.64-1.09a3.44,3.44,0,0,1-1.11,0c-.82-.21-1.12-.92-1.52-1.81a11.82,11.82,0,0,0-.71-1.48c-.67-1.21-2-1-3.52-.77h-.15a1.41,1.41,0,0,1-1.49-.59,1.17,1.17,0,0,0-1.1-.5c-.37,0-1.83,1-3.73,3.53s-3.88,6.19-3.3,8.45c1,4.06,6.41,6.41,6.46,6.43a.47.47,0,0,1,.29.35,66.17,66.17,0,0,1,1.45,7.1C187.41,92.73,186.35,100.92,186.13,102.62Z" transform="translate(0 0)"/><path class="cls-2" d="M195.91,94.56a.65.65,0,0,1-.27-.08,4.35,4.35,0,0,1-1.91-4.24,2.82,2.82,0,0,1-2.5.54c-1.38-.49-1.84-2.44-2.27-4.75-.52-2.81,2.63-6.79,4-8.37,1.7-2,2-1.94,2.2-1.93a.51.51,0,0,1,.49.53h0a.49.49,0,0,1-.35.45c-.83.56-5.9,6.09-5.35,9.14.35,1.85.76,3.67,1.63,4,.56.2,1.47-.22,2.64-1.21a.5.5,0,0,1,.63,0,.53.53,0,0,1,.17.6c-.05.11-1.15,2.91,1.17,4.42a.51.51,0,0,1,.16.69h0A.53.53,0,0,1,195.91,94.56Z" transform="translate(0 0)"/><path class="cls-1" d="M194.32,83.56s.25,2.94,3.55,2.34" transform="translate(0 0)"/><path class="cls-2" d="M197,86.49a3.21,3.21,0,0,1-2-.62,3.48,3.48,0,0,1-1.23-2.27.51.51,0,0,1,.46-.55.52.52,0,0,1,.56.46,2.4,2.4,0,0,0,.84,1.56,2.65,2.65,0,0,0,2.11.33.52.52,0,1,1,.18,1A6.54,6.54,0,0,1,197,86.49Z" transform="translate(0 0)"/><path class="cls-2" d="M194.55,89.55h-.07A.5.5,0,0,1,194,89v0c0-.35.52-3.53,2.36-3.55h0a.51.51,0,0,1,.51.5.53.53,0,0,1-.51.52c-.69,0-1.23,1.6-1.37,2.68A.5.5,0,0,1,194.55,89.55Z" transform="translate(0 0)"/><path class="cls-2" d="M188.05,86.81a3.31,3.31,0,0,1-3.05-2c-1.4-2.71-1.6-3.41-.77-5.33.76-1.75,7-7.85,7.67-8.54a.48.48,0,0,1,.69,0l0,0a.5.5,0,0,1,0,.71h0c-1.87,1.83-6.87,6.89-7.45,8.23-.66,1.52-.61,1.86.74,4.46a2.4,2.4,0,0,0,3.16,1.23l.16-.08a.51.51,0,0,1,.68.24.49.49,0,0,1-.23.67h0A3.68,3.68,0,0,1,188.05,86.81Z" transform="translate(0 0)"/><path class="cls-2" d="M184.68,85.34a.5.5,0,0,1-.33-.12l.33-.39-.33.39c-.4-.35-4-3.4-4.65-6-.71-2.79,5.33-9.22,6-9.94a.51.51,0,0,1,.72,0h0a.5.5,0,0,1,0,.71h0c-2.46,2.58-6.21,7.29-5.77,9,.47,1.87,2.93,4.33,4.31,5.49a.51.51,0,0,1-.11.85A.43.43,0,0,1,184.68,85.34Z" transform="translate(0 0)"/><polygon class="cls-2" points="143.65 239.36 158.23 95.34 116.73 90.35 90.19 239.36 143.65 239.36"/><path class="cls-3" d="M105.51,239.36c2.9-29.09,17.42-122.47,18.52-140,1.3-20.81-8.43-31-8.43-31S90.22,72,74.07,110.11s-45.67,129-45.67,129l1.93.21Z" transform="translate(0 0)"/><path class="cls-3" d="M133.48,239.36h27.9c-1.93-5.8-6.35-19.8-7.1-27.73-.57-6.51,11.88-90.47,11.41-103.41s-7.51-12.88-7.51-12.88l-13.38,9.84,3.84,3.72S135.33,206.21,133.48,239.36Z" transform="translate(0 0)"/><path class="cls-3" d="M162.85,101l9.85,30.91,11.16-32.37,23.58,12S198,208.77,180,202s-27-23.59-27-23.59Z" transform="translate(0 0)"/><path class="cls-1" d="M93.05,198.09c4.91.14,8.92.58,8.92.58s11.57,14.28,14.39,12-7.66-15.81-8.44-16.5c0,0,6.3,1.28,10.15,3.46s8.45,7.22,12,6.71,3.73-2.16.31-5.8-10.84-8.5-15.67-10c0,0,2.72-1.65,8-.5s14.76,8.56,17.65,5.07-2.39-7.55-8.61-9.82-10.31-3.8-13.89-4.17c0,0,7.72-2.11,12.18-1.51s12.44,2.34,15,.55.22-3.61-2.22-4.75-17-3.38-19.41-3.38-13.7,4.7-19.42,5.36-11.61-2.79-11.61-2.79L79.21,192.2S88.16,197.93,93.05,198.09Z" transform="translate(0 0)"/><path class="cls-2" d="M115.66,211.41c-3.74,0-11.91-9.75-14-12.27-.88-.09-4.49-.43-8.68-.56h0c-5-.14-13.73-5.72-14.11-6a.57.57,0,0,1-.22-.33.47.47,0,0,1,.08-.38l13.15-19.55a.5.5,0,0,1,.68-.16s5.79,3.41,11.25,2.76c3.11-.36,7.86-1.92,12-3.29,3.5-1.16,6.27-2,7.44-2h0c2.51,0,17.06,2.22,19.63,3.43,2.29,1.07,3.51,2.22,3.61,3.41a2.48,2.48,0,0,1-1.32,2.21c-2.27,1.59-8.12.67-12.72-.06-.95-.15-1.84-.3-2.62-.4-2.8-.37-7,.35-9.57.92a92.48,92.48,0,0,1,11.08,3.62l.42.15c4.06,1.51,8.81,4.22,9.63,7.32a3.57,3.57,0,0,1-.81,3.31c-2.13,2.54-6.93.14-11.57-2.17a32.93,32.93,0,0,0-6.57-2.77,13.08,13.08,0,0,0-6.4,0,47,47,0,0,1,14.57,9.65c2.12,2.25,2.89,3.78,2.49,4.92s-2,1.57-3.1,1.73c-2.59.37-5.55-1.88-8.42-4.06a39.52,39.52,0,0,0-3.87-2.71,37.41,37.41,0,0,0-8.53-3.05c2.44,3.05,8.12,11.06,8.06,14.53a1.89,1.89,0,0,1-.67,1.54A1.5,1.5,0,0,1,115.66,211.41ZM93.05,197.57c4.86.14,8.92.58,9,.58a.45.45,0,0,1,.33.19c4.67,5.77,12,13.29,13.67,12a1,1,0,0,0,.29-.78c.09-3.75-8.12-14.38-8.75-15a.5.5,0,0,1-.11-.6.49.49,0,0,1,.55-.27c.26.05,6.43,1.33,10.29,3.52a40.4,40.4,0,0,1,4,2.77c2.7,2,5.5,4.2,7.67,3.87,1.34-.19,2.11-.55,2.28-1s-.08-1.57-2.27-3.89c-3.53-3.77-10.9-8.46-15.44-9.85a.5.5,0,0,1-.34-.63.52.52,0,0,1,.22-.28c.12-.08,3-1.75,8.34-.57a33.63,33.63,0,0,1,6.81,2.86c4.06,2,8.73,4.35,10.34,2.43a2.49,2.49,0,0,0,.6-2.4c-.59-2.24-4.13-4.84-9-6.62l-.41-.16c-6-2.19-9.91-3.63-13.35-4a.49.49,0,0,1-.45-.46.52.52,0,0,1,.37-.54c.32-.08,7.86-2.13,12.4-1.51.79.1,1.69.24,2.65.39,4.24.67,10.05,1.6,12,.24.61-.44.92-.88.88-1.3-.06-.76-1.17-1.71-3.05-2.58-2.28-1.07-16.56-3.33-19.19-3.33h0c-1,0-4,1-7.11,2-4.23,1.39-9,3-12.23,3.34-5,.59-10-1.87-11.48-2.66L79.93,192c1.84,1.14,9,5.42,13.14,5.53Z" transform="translate(0 0)"/><path class="cls-2" d="M123.42,58.52S157,77.67,159,83.28c1.58,4.58-28.7-1.94-34-5.69S123.42,58.52,123.42,58.52Z" transform="translate(0 0)"/><path class="cls-2" d="M155.09,85.36c-8.43,0-26.6-4.64-30.45-7.36-5.49-3.91-1.89-19-1.74-19.6a.5.5,0,0,1,.6-.37.35.35,0,0,1,.14.06c1.39.78,33.76,19.28,35.73,25a1.28,1.28,0,0,1-.46,1.54A7.22,7.22,0,0,1,155.09,85.36ZM123.78,59.3c-.63,2.94-2.86,14.79,1.48,17.88,5.76,4.06,30.57,8.54,33.09,6.66a.3.3,0,0,0,.12-.39h0C157,79.08,133.47,64.87,123.78,59.3Z" transform="translate(0 0)"/><path class="cls-1" d="M141.62,6.57a3.61,3.61,0,0,0,2.55,0c1.07-.47,1.69-1.58,2.41-2.49a9.81,9.81,0,0,1,11.24-2.83c1.56.68,2.92,1.75,4.51,2.38,5.22,2,11.61-1.23,16.61,1.33a4.71,4.71,0,0,1,2.69,3.4c.08.72-.08,1.45,0,2.17.54,4.17,8.49,5,7.66,9.06-.31,1.59-2,2.63-2.33,4.21-.47,2.16,1.71,4.55.56,6.44-.39.64-1.08,1-1.51,1.64-1.63,2.27,1.2,5.49.29,8.12-.52,1.5-2.1,2.36-2.94,3.71-1.49,2.38-.44,5.87-2.29,8-.82,1-2.08,1.42-3,2.22-2.12,1.71-2.7,4.67-4.15,7-5.41,8.64-30.09-4.17-36.07-8s-20.3-17.36-12.87-25.16c1-1,2.51-2,2.34-3.5-.1-.93-.89-1.62-1.26-2.48-.67-1.57.17-3.35,1-4.85l2.85-5.19c1.73-3.18,4.35-6.86,8-6.41A24,24,0,0,1,141.62,6.57Z" transform="translate(0 0)"/><path class="cls-2" d="M167.05,64.37c-10,0-25.74-8.62-29.44-11-4.33-2.77-14.15-11.48-15.09-19.29a7.9,7.9,0,0,1,2.13-6.67c.21-.23.45-.45.69-.68.83-.78,1.61-1.52,1.51-2.41a3,3,0,0,0-.63-1.3,6.5,6.5,0,0,1-.6-1c-.82-1.93.37-4.12,1-5.29l2.84-5.19c1-1.79,4-7.24,8.48-6.67a10.93,10.93,0,0,1,2.52.75c.45.18.91.36,1.35.49h0a3.09,3.09,0,0,0,2.2,0,4.86,4.86,0,0,0,1.76-1.73l.46-.61a10.31,10.31,0,0,1,11.83-3,23,23,0,0,1,2.19,1.17,16.25,16.25,0,0,0,2.3,1.21c2.4.95,5.15.71,7.8.48,3-.26,6.09-.53,8.87.88a5.05,5.05,0,0,1,2.93,3.78,5.53,5.53,0,0,1,0,1.15,5.68,5.68,0,0,0,0,1c.23,1.74,2,2.89,3.84,4,2.13,1.34,4.33,2.72,3.82,5.22A5.62,5.62,0,0,1,188.56,22a5.24,5.24,0,0,0-1,1.89,5.4,5.4,0,0,0,.41,2.72c.41,1.3.84,2.64.09,3.88a4.56,4.56,0,0,1-.9,1,5.07,5.07,0,0,0-.64.67c-.74,1-.35,2.39.05,3.84a6.92,6.92,0,0,1,.31,4.17,6.47,6.47,0,0,1-1.75,2.39A9,9,0,0,0,183.87,44a8.51,8.51,0,0,0-.9,3.6,7.65,7.65,0,0,1-1.42,4.48,7.48,7.48,0,0,1-2,1.49,13.17,13.17,0,0,0-1.2.8,10.75,10.75,0,0,0-2.69,4.17,20.42,20.42,0,0,1-1.36,2.68,6.57,6.57,0,0,1-4.4,2.92A13.49,13.49,0,0,1,167.05,64.37ZM137.24,5.82c-2.39,0-4.66,2-6.93,6.18l-2.84,5.18c-.77,1.42-1.54,3.05-1,4.42a5.67,5.67,0,0,0,.5.86,3.94,3.94,0,0,1,.8,1.75c.16,1.4-.9,2.39-1.82,3.28-.22.21-.45.41-.65.62A7,7,0,0,0,123.47,34c.85,7,10,15.53,14.64,18.54C143.57,56,161.2,65,169.73,63.09a5.64,5.64,0,0,0,3.78-2.43,24.52,24.52,0,0,0,1.29-2.56,11.5,11.5,0,0,1,3-4.55,12.39,12.39,0,0,1,1.31-.87,7.15,7.15,0,0,0,1.71-1.28A6.89,6.89,0,0,0,182,47.49a9.27,9.27,0,0,1,1-4.06,9.62,9.62,0,0,1,1.39-1.6,5.69,5.69,0,0,0,1.51-2,6.18,6.18,0,0,0-.33-3.58c-.45-1.6-.91-3.26.11-4.68a5.61,5.61,0,0,1,.77-.84,3.1,3.1,0,0,0,.71-.78c.52-.84.2-1.87-.18-3a6.3,6.3,0,0,1-.44-3.24,5.79,5.79,0,0,1,1.26-2.29,4.78,4.78,0,0,0,1.07-1.9c.36-1.81-1.37-2.9-3.38-4.15s-4-2.52-4.3-4.73a8.28,8.28,0,0,1,0-1.22,5.79,5.79,0,0,0,0-1,4.12,4.12,0,0,0-2.44-3c-2.49-1.27-5.32-1-8.32-.77-2.78.24-5.65.48-8.27-.55A18.83,18.83,0,0,1,159.7,2.7a17.42,17.42,0,0,0-2-1.12A9.3,9.3,0,0,0,147,4.26l-.44.58a5.65,5.65,0,0,1-2.17,2,4.11,4.11,0,0,1-2.89,0h0c-.47-.14-.94-.32-1.43-.52a10.09,10.09,0,0,0-2.29-.69A3.7,3.7,0,0,0,137.24,5.82Z" transform="translate(0 0)"/><path class="cls-1" d="M155.6,76.73,149.51,95.8s-8.57,12.18-20.36,3.92S119.09,80.6,119.09,80.6L126.44,58c1.47-4.49,2.91-9,4.4-13.46A15.53,15.53,0,0,1,132.65,40c1.92-2.6,6-2.65,7.55-5.47,1-1.81.27-4.3,1.53-6s3.6-1.61,4.91-3c1.63-1.78,1.37-5.34,3.72-5.9,2.58-.62,4.39,3.57,7,3.1,1-.2,1.8-1.1,2.81-1.38,1.45-.37,2.92.63,3.75,1.86s1.25,2.7,2,4A8.21,8.21,0,0,0,173.39,31c-.57,1.78.74,3.73,2.43,4.54a13,13,0,0,0,4.94.88c.45,4.8-1.36,10.64-2.35,15.36-1.32,6.34-2.71,13.27-6,18.91C166.82,80.11,155.6,76.73,155.6,76.73Z" transform="translate(0 0)"/><path class="cls-2" d="M137.36,103.11a14.79,14.79,0,0,1-8.51-3c-11.9-8.4-10.28-19.51-10.26-19.62l8.88-27.19c1-3,1.94-6,2.93-9,.13-.34.23-.71.34-1.07a11.38,11.38,0,0,1,1.54-3.62,9.57,9.57,0,0,1,3.88-2.7c1.49-.7,2.9-1.37,3.65-2.72a6.29,6.29,0,0,0,.58-2.62,6.27,6.27,0,0,1,1-3.39,6.2,6.2,0,0,1,2.67-1.78,6.06,6.06,0,0,0,2.21-1.31,7.36,7.36,0,0,0,1.25-2.56c.52-1.52,1-3,2.72-3.49s2.78.65,4,1.64c1,.84,2,1.65,3,1.45a4.16,4.16,0,0,0,1.31-.62,5.4,5.4,0,0,1,1.46-.73c1.7-.45,3.38.71,4.3,2a13.64,13.64,0,0,1,1.13,2.18,18,18,0,0,0,.91,1.81,7.7,7.7,0,0,0,7,3.53.49.49,0,0,1,.54.44.53.53,0,0,1,0,.22c-.49,1.55.75,3.25,2.17,3.94a12.71,12.71,0,0,0,4.73.82.53.53,0,0,1,.5.47c.35,3.82-.7,8.32-1.64,12.29-.25,1.11-.51,2.19-.72,3.21l-.11.54c-1.27,6.09-2.7,13-6,18.53-5,8.57-14.62,7-16.89,6.45l-6,18.62a.24.24,0,0,1-.07.13c-.16.23-4.06,5.74-10.37,6.84A12.82,12.82,0,0,1,137.36,103.11Zm13.51-83a1.34,1.34,0,0,0-.4,0c-1.12.26-1.52,1.45-2,2.83A8,8,0,0,1,147,25.8a6.84,6.84,0,0,1-2.57,1.55,5.66,5.66,0,0,0-2.32,1.46,5.47,5.47,0,0,0-.77,2.87,7.61,7.61,0,0,1-.71,3c-.91,1.63-2.54,2.4-4.06,3.14a8.73,8.73,0,0,0-3.5,2.39,11,11,0,0,0-1.39,3.3c-.11.39-.22.75-.34,1.11-1,3-2,6-2.94,9l-8.86,27.12S118,91.27,129.39,99.28c4.71,3.31,9.43,3.69,14,1.13A18.83,18.83,0,0,0,149,95.54l6.09-19a.51.51,0,0,1,.63-.33c.45.13,10.92,3.14,16.24-5.87,3.18-5.42,4.54-11.93,5.85-18.27l.11-.53c.21-1,.46-2.12.73-3.25.87-3.73,1.87-7.94,1.63-11.53a12.33,12.33,0,0,1-4.68-.9,4.79,4.79,0,0,1-2.84-4.48,8.72,8.72,0,0,1-7.24-4.06,14.6,14.6,0,0,1-1-1.92,13.29,13.29,0,0,0-1-2c-.71-1-2-2-3.18-1.64a4.3,4.3,0,0,0-1.19.6,4.89,4.89,0,0,1-1.67.77c-1.53.27-2.73-.71-3.89-1.67A4.82,4.82,0,0,0,150.87,20.06ZM149.46,95.8Z" transform="translate(0 0)"/><path class="cls-1" d="M135.23,53.22a11.28,11.28,0,0,1-8-3c-3.14-2.93-4-7.2-3.21-11.32a10.19,10.19,0,0,1,1.68-4.2,5.36,5.36,0,0,1,3.82-2.23c1.83-.1,3.49.95,5,2,2.27,1.51,2.13,2.89,3.27,5.07-.13-.2-.18-.74-.31-.94" transform="translate(0 0)"/><path class="cls-2" d="M134.78,53.73a11.64,11.64,0,0,1-8-3.12c-3-2.83-4.26-7.11-3.36-11.78a10.57,10.57,0,0,1,1.78-4.41A5.87,5.87,0,0,1,129.43,32c2-.12,4,1.14,5.33,2a6.56,6.56,0,0,1,2.7,3.59c.07.18.13.36.21.53a.5.5,0,0,1,.19.19,2,2,0,0,1,.23.61,1.27,1.27,0,0,0,.08.31h0a.52.52,0,0,1-.19.68.52.52,0,0,1-.68-.16.51.51,0,0,1-.07-.15,15.88,15.88,0,0,1-.75-1.68,5.44,5.44,0,0,0-2.32-3.12c-1.62-1.08-3-2-4.7-1.88A4.83,4.83,0,0,0,126,35a9.5,9.5,0,0,0-1.59,4c-.84,4.3.28,8.26,3,10.85a10.69,10.69,0,0,0,7.66,2.84.53.53,0,0,1,.53.48.5.5,0,0,1-.48.53h0Z" transform="translate(0 0)"/><path class="cls-2" d="M153,84.68S146.16,87,142.6,79.15s-1.27-12.27-1.27-12.27,5.07,8.19,14.27,9.85Z" transform="translate(0 0)"/><path class="cls-2" d="M150.78,85.48c-2.47,0-6.29-1-8.64-6.09-3.62-7.93-1.36-12.52-1.26-12.72a.5.5,0,0,1,.43-.27.52.52,0,0,1,.44.24c0,.09,5.08,8,13.94,9.63a.48.48,0,0,1,.34.23.51.51,0,0,1,0,.42l-2.55,8a.5.5,0,0,1-.33.33A9,9,0,0,1,150.78,85.48Zm2.26-.8ZM141.47,68c-.43,1.63-.93,5.43,1.59,11,3,6.56,8.37,5.63,9.58,5.32l2.3-7.15c-7.33-1.55-11.88-7-13.47-9.13Z" transform="translate(0 0)"/><path class="cls-1" d="M163.17,41.78s3.26,12.79,1,14-6.46-1.61-6.46-1.61" transform="translate(0 0)"/><path class="cls-2" d="M162.8,56.55c-2.41,0-5.25-1.89-5.4-2a.52.52,0,0,1-.14-.71.51.51,0,0,1,.71-.13h0c1.1.73,4.3,2.46,5.94,1.58,1.19-.63.29-7.46-1.23-13.42a.53.53,0,1,1,1-.26c.78,3.05,3.16,13.28.72,14.58A3.26,3.26,0,0,1,162.8,56.55Z" transform="translate(0 0)"/><polyline class="cls-1" points="148.45 35.29 159.48 38.65 152.13 31.13"/><path class="cls-2" d="M159.48,39.16h-.15l-11-3.37a.53.53,0,0,1-.36-.66.52.52,0,0,1,.65-.36l9.14,2.78-6-6.09a.5.5,0,0,1,0-.71h0a.51.51,0,0,1,.72,0h0l7.35,7.52a.52.52,0,0,1,.07.62A.49.49,0,0,1,159.48,39.16Z" transform="translate(0 0)"/><polyline class="cls-1" points="177.13 40.89 169.12 41.27 177.98 45.91"/><path class="cls-2" d="M178,46.42a.55.55,0,0,1-.24-.07l-8.86-4.63a.52.52,0,0,1-.21-.69.51.51,0,0,1,.42-.27l8-.37a.49.49,0,0,1,.54.45v0a.5.5,0,0,1-.48.53h0l-6.09.29,7.19,3.76a.52.52,0,0,1,.24.68.52.52,0,0,1-.47.29Z" transform="translate(0 0)"/><path class="cls-1" d="M156.26,59.71c-2.87,2.1-4.76,5.9-2.93,9.26.88,1.62,2.95,1.9,4.56,1.38,2.59-.82,2.36-2.57,3.15-4.72a11.86,11.86,0,0,1,1.15-1.9,4,4,0,0,0,0-4.16c-1.08-1.58-3-1.47-4.49-.73A8.75,8.75,0,0,0,156.26,59.71Z" transform="translate(0 0)"/><path class="cls-2" d="M156.4,71.09a3.77,3.77,0,0,1-3.49-1.91c-2-3.76.15-7.77,3-9.9h0a9.52,9.52,0,0,1,1.52-.93c2.11-1,4.06-.66,5.14.9a4.49,4.49,0,0,1,0,4.71,6.71,6.71,0,0,1-.47.71,5.31,5.31,0,0,0-.65,1.1,13.44,13.44,0,0,0-.41,1.37c-.42,1.51-.8,2.94-3.05,3.67A5.63,5.63,0,0,1,156.4,71.09Zm.18-11C154,62,152,65.5,153.8,68.73c.76,1.41,2.59,1.58,4,1.13,1.72-.55,2-1.5,2.37-3,.13-.46.26-1,.45-1.46a5.68,5.68,0,0,1,.75-1.34c.14-.22.3-.42.43-.64a3.47,3.47,0,0,0,0-3.62c-1.15-1.69-3.24-.86-3.86-.56a8.19,8.19,0,0,0-1.36.82Z" transform="translate(0 0)"/><path class="cls-1" d="M137.05,81.36c-2.8-1.89-5-4.43-7.44-7.27-2.88-3.35-6.09-10.89-6.19-15.59,0,0-8.9.28-9.73,5.36,0,0-7.65-2.58-8.22,5.63s14.11,42.31,33.3,41.93c5.9-.12,12.18-.79,17.6-3.34,3.51-1.67,8.43-8,7.42-12.18-.41-1.67-1.87-3.05-1.65-4.79a9.34,9.34,0,0,1,.79-2.1,5.59,5.59,0,0,0-3.17-7.23,5.67,5.67,0,0,0-3.26-.25,21.76,21.76,0,0,0-4.06,1.83,14.66,14.66,0,0,1-9.86.55A18.3,18.3,0,0,1,137.05,81.36Z" transform="translate(0 0)"/><path class="cls-2" d="M138.44,112c-5.79,0-11.58-3-17.19-8.9C111.34,92.64,104.53,75.49,105,69.48c.18-2.62,1.08-4.48,2.66-5.53a7.49,7.49,0,0,1,5.69-.7c1.38-4.91,9.74-5.22,10.1-5.23a.48.48,0,0,1,.52.45v0c.12,4.77,3.36,12.18,6.09,15.23l.08.1c2.44,2.82,4.54,5.26,7.26,7.11h0a18.11,18.11,0,0,0,5.39,2.44,14.14,14.14,0,0,0,9.51-.52c.42-.2.84-.42,1.26-.65A11.49,11.49,0,0,1,156.46,81a6.08,6.08,0,0,1,7,8.12c-.09.23-.19.45-.29.68a4.43,4.43,0,0,0-.47,1.29,4.65,4.65,0,0,0,.79,2.6,9,9,0,0,1,.85,2c1.08,4.45-3.95,11-7.7,12.79-6,2.84-13,3.3-17.8,3.39ZM111.11,64a5.15,5.15,0,0,0-2.93.78c-1.3.87-2,2.46-2.21,4.75-.36,5.21,6,22.27,16,32.8,5.52,5.81,11.17,8.72,16.78,8.58,4.68-.09,11.58-.54,17.39-3.29,3.36-1.59,8.12-7.83,7.1-11.63a8.12,8.12,0,0,0-.75-1.77,5.41,5.41,0,0,1-.9-3.22,5.64,5.64,0,0,1,.54-1.59c.09-.2.19-.41.27-.61a5.08,5.08,0,0,0-5.84-6.8,10.26,10.26,0,0,0-2.64,1.13c-.43.23-.87.45-1.32.67a15.07,15.07,0,0,1-10.15.57,19.25,19.25,0,0,1-5.69-2.58h0a38.87,38.87,0,0,1-7.45-7.27l-.08-.09c-2.72-3.16-6-10.4-6.3-15.39-1.83.15-8.12,1-8.74,4.91a.51.51,0,0,1-.25.35.52.52,0,0,1-.42.05A8.29,8.29,0,0,0,111.11,64Z" transform="translate(0 0)"/><path class="cls-1" d="M132.4,77.3a5.25,5.25,0,0,1,2.87,4.79c.44,14.69-2.36,18.52-7.52,24.51-6.46,7.49-11.17,24.22-2.14,40.27,0,0,14.45-3.05,22.5,2.13,0,0-13.9-22.58-7.31-37.55,3.58-8.12,6.92-15.44,8.12-23.89S132.4,77.3,132.4,77.3Z" transform="translate(0 0)"/><path class="cls-2" d="M148.14,149.48a.54.54,0,0,1-.28-.08c-7.77-5.08-22-2.09-22.11-2a.51.51,0,0,1-.55-.26,38.55,38.55,0,0,1-4.8-23.65c.81-6.71,3.36-13,7-17.19,5.16-6,7.84-9.78,7.4-24.16a4.7,4.7,0,0,0-2.55-4.34.52.52,0,0,1-.29-.6.49.49,0,0,1,.54-.38c.47,0,11.82,1.25,15.74,6.25a5.86,5.86,0,0,1,1.25,4.56c-1.18,8.12-4.34,15.23-7.68,22.87l-.5,1.16c-6.41,14.57,7.1,36.88,7.26,37.11a.46.46,0,0,1-.42.74Zm-13.09-4.06a27.45,27.45,0,0,1,11.73,2.22A80.25,80.25,0,0,1,141.53,136c-2.45-6.94-4.63-16.88-1.16-24.79l.51-1.14c3.31-7.53,6.43-14.63,7.59-22.61a4.8,4.8,0,0,0-1-3.79c-2.73-3.5-9.75-5.08-13.14-5.6a6,6,0,0,1,1.51,4.06c.45,14.75-2.31,18.67-7.65,24.85-10.62,12.33-7.1,30.52-2.24,39.37a50.29,50.29,0,0,1,9.08-.92Z" transform="translate(0 0)"/><path class="cls-3" d="M105.51,69.51C67.11,86.34-7.59,132.69.63,150.54s54,39.27,54,39.27l25.56-36.54Z" transform="translate(0 0)"/><path class="cls-2" d="M74.19,200.12H74c-14.52-7.3-49.67-26.72-50-26.92a.51.51,0,0,1,.39-.94.27.27,0,0,1,.1.06c.35.19,34.84,19.28,49.58,26.69l17.67-26.3L48.6,132.11a.5.5,0,0,1,0-.72.52.52,0,0,1,.72,0L92.7,172.3a.53.53,0,0,1,.08.66L74.62,200A.54.54,0,0,1,74.19,200.12Z" transform="translate(0 0)"/><path class="cls-2" d="M62.73,145.18a.42.42,0,0,1-.33-.13.5.5,0,0,1,0-.71h0c.19-.21,19.28-21.11,29.14-31.83a.51.51,0,0,1,.79.64s0,0,0,0C82.42,123.91,63.34,144.81,63.15,145A.51.51,0,0,1,62.73,145.18Z" transform="translate(0 0)"/><path class="cls-2" d="M160.09,69.18a.5.5,0,0,1-.44-.25c-2-3.66-7.11-3.56-7.11-3.58a.5.5,0,0,1-.51-.5.51.51,0,0,1,.51-.51c.23,0,5.67-.1,8,4.06a.55.55,0,0,1-.46.78Z" transform="translate(0 0)"/><path class="cls-4" d="M131.08,96.23a.4.4,0,0,1-.28-.08c-10.87-7.49-16.42-28-16.66-28.85a.53.53,0,0,1,1-.26c0,.21,5.69,21,16.24,28.27a.51.51,0,0,1,.14.7h0A.52.52,0,0,1,131.08,96.23Z" transform="translate(0 0)"/><path class="cls-4" d="M152.45,101.51a.53.53,0,0,1-.47-.3.51.51,0,0,1,.25-.66h0c2.8-1.25,5.52-5.45,5.55-5.49a.52.52,0,0,1,.69-.19.51.51,0,0,1,.19.7l0,0c-.11.18-2.91,4.49-6,5.86A.45.45,0,0,1,152.45,101.51Z" transform="translate(0 0)"/><path class="cls-4" d="M127.84,134.2a.51.51,0,0,1-.5-.4c-.1-.52-2.54-12.76,1.78-20.3a.51.51,0,0,1,.71-.16.51.51,0,0,1,.24.42,31.1,31.1,0,0,0,1.46,9.62.51.51,0,0,1-.21.69.5.5,0,0,1-.68-.21.35.35,0,0,1,0-.13,28.52,28.52,0,0,1-1.48-7.87c-2.86,7.24-.8,17.58-.78,17.69a.5.5,0,0,1-.37.6h0Z" transform="translate(0 0)"/><path class="cls-4" d="M124,99.89a.44.44,0,0,1-.25-.08c-6.67-3.78-8.5-14.87-8.57-15.33a.52.52,0,0,1,.43-.59.51.51,0,0,1,.59.43c0,.11,1.81,11.07,8.06,14.62a.51.51,0,0,1,.2.69A.54.54,0,0,1,124,99.89Z" transform="translate(0 0)"/><path class="cls-4" d="M68,72.74a.47.47,0,0,1-.47-.34.48.48,0,0,1,.3-.63h0c.11,0,12.1-3.93,21.32-3.5a.51.51,0,0,1,.48.54.48.48,0,0,1-.47.48h-.06c-9-.4-20.81,3.41-20.92,3.45Z" transform="translate(0 0)"/><path class="cls-2" d="M154.7,206h0a.5.5,0,0,1-.45-.55c.07-.78,7.28-77.7,8.39-88.91a.51.51,0,0,1,1,.1c-1.11,11.17-8.32,88.13-8.39,88.9A.51.51,0,0,1,154.7,206Z" transform="translate(0 0)"/><path class="cls-2" d="M165.6,157.31h-.15a.5.5,0,0,1-.32-.64l18.21-57.23a.5.5,0,1,1,1,.3L166.09,157A.5.5,0,0,1,165.6,157.31Z" transform="translate(0 0)"/><path class="cls-4" d="M189.92,55.4a.47.47,0,0,1-.4-.22.48.48,0,0,1,.09-.69l0,0,20-14.52a.5.5,0,0,1,.71.11.51.51,0,0,1-.12.71l-20,14.53A.54.54,0,0,1,189.92,55.4Z" transform="translate(0 0)"/><path class="cls-4" d="M193.88,62.46a.48.48,0,0,1-.48-.37.49.49,0,0,1,.34-.62h0l18.86-5.17a.54.54,0,0,1,.63.37.51.51,0,0,1-.36.62L194,62.44Z" transform="translate(0 0)"/><path class="cls-4" d="M217.48,72h-.07L203.2,70.12a.52.52,0,0,1-.44-.58.51.51,0,0,1,.57-.44L217.54,71a.51.51,0,0,1-.06,1Z" transform="translate(0 0)"/><path class="cls-4" d="M214.88,83.39a.38.38,0,0,1-.21,0L207.14,80a.5.5,0,0,1-.25-.66h0a.49.49,0,0,1,.66-.25l7.57,3.33a.52.52,0,1,1-.21,1Z" transform="translate(0 0)"/></g></svg>