<?xml version="1.0" encoding="utf-8"?>
<!-- Generator: Adobe Illustrator 25.3.0, SVG Export Plug-In . SVG Version: 6.00 Build 0)  -->
<svg version="1.1" id="Ebene_1" xmlns="http://www.w3.org/2000/svg" xmlns:xlink="http://www.w3.org/1999/xlink" x="0px" y="0px"
	 viewBox="0 0 246.2 248.5" style="enable-background:new 0 0 246.2 248.5;" xml:space="preserve">
<style type="text/css">
	.st0{fill:#FFFFFF;}
	.st1{fill:#231F20;}
	.st2{fill:#63C2DE;}
	.st3{fill:#E6E7E8;}
</style>
<g id="_379_fitness_flatline">
	<path class="st0" d="M126.7,29.8c-1.1-0.2-2.2-0.5-3.2-0.9c-3.4-1.4-6.4-4.3-7-8c-0.1-0.8-0.2-1.6-0.1-2.4c0-3.3,0.5-7.9,2.4-10.7
		c1-1.4,2.8-2.4,4.4-1.8c-0.6,0.4-1.3-0.4-1.1-1.1c0.3-0.6,0.9-1,1.6-1.2c2.9-0.9,6.2-1.1,8.8,0.4c-0.5-0.6-0.4-1.5,0.2-2
		c0.6-0.5,1.3-0.8,2.1-0.8C139.6,1,144,5,145.3,9.7c1.2,4.7-0.2,9.7-2.6,13.9c-1.1,2.2-2.8,4-4.8,5.4c-2.1,1.3-3.9,1-6.2,1
		C130,30.1,128.3,30,126.7,29.8z"/>
	<path class="st1" d="M130.4,30.6c-1.3,0-2.5-0.1-3.8-0.3c-1.1-0.2-2.2-0.5-3.3-0.9c-3.9-1.6-6.7-4.8-7.3-8.4
		c-0.1-0.8-0.2-1.7-0.1-2.5c0-3.4,0.5-8,2.5-11c0.7-1.1,1.9-1.9,3.2-2.2c0-0.2,0-0.4,0.1-0.6c0.4-0.8,1.1-1.3,2-1.5
		c2.2-0.7,5.3-1.2,8.1-0.1c0-0.5,0.3-1.1,0.6-1.4c0.7-0.6,1.5-0.9,2.4-0.9c5.3-0.4,9.8,4.2,11,8.8c1.1,4.3,0.2,9.4-2.6,14.3
		c-1.2,2.2-2.9,4.2-5,5.6c-1.5,0.9-3.3,1.3-5,1.1h-1.4L130.4,30.6z M122.1,6.3c-1.2,0.1-2.3,0.8-2.9,1.8c-1.9,2.9-2.3,7.8-2.3,10.4
		c0,0.8,0,1.6,0.1,2.3c0.5,3.2,3.1,6.2,6.7,7.6c1,0.4,2,0.7,3,0.9c1.6,0.3,3.3,0.4,4.9,0.3h1.4c1.6,0.2,3.1-0.2,4.5-0.9
		c2-1.3,3.6-3.1,4.6-5.2c2.7-4.7,3.6-9.5,2.5-13.6s-5.1-8.3-10-8c-0.6,0-1.2,0.2-1.7,0.6c-0.2,0.2-0.3,0.5-0.3,0.8
		c0,0.2,0.1,0.4,0.2,0.5c0.2,0.2,0.2,0.5,0.1,0.7c-0.2,0.2-0.4,0.3-0.7,0.1c-2.7-1.6-6.1-1-8.4-0.3c-0.5,0.2-1.1,0.4-1.3,0.9
		c0,0.1,0,0.2,0,0.3c0.3,0,0.5,0.1,0.8,0.2c0.2,0.1,0.3,0.2,0.3,0.4c0,0.2,0,0.4-0.2,0.5c-0.4,0.3-0.9,0.3-1.3,0L122.1,6.3z"/>
	<path class="st0" d="M89.7,140.5c0,0.7-7.7,6-16.6,20.7c-6.2-2-12.6-3.6-19.1-4.6c-8.1-1.3-16.4-1.6-24.6-0.9l-2.5,9.7
		c0,0,46.9,16.6,53.5,14.2c6.6-2.4,27.6-28.7,27.6-28.7"/>
	<path class="st1" d="M78.5,180.4c-11,0-50.1-13.8-51.9-14.4c-0.2-0.1-0.4-0.3-0.3-0.6l2.5-9.7c0.1-0.2,0.2-0.4,0.4-0.4
		c8.3-0.7,16.6-0.4,24.8,0.9c6.4,1,12.6,2.5,18.8,4.5c4.2-6.9,9.3-13.3,15.1-18.9c0.4-0.4,0.9-0.8,1.2-1.3c0-0.2,0.2-0.4,0.5-0.4
		c0.3,0,0.5,0.2,0.5,0.4c0,0,0,0,0,0c0,0.4-0.3,0.7-1.6,1.9c-5.9,5.6-11,12-15.2,19c-0.1,0.2-0.4,0.3-0.6,0.2
		c-6.2-2-12.6-3.5-19-4.6c-8-1.2-16.1-1.6-24.2-0.9l-2.2,8.9c16.3,5.8,47.7,15.9,52.8,14c6.4-2.4,27.2-28.3,27.4-28.6
		c0.2-0.2,0.5-0.3,0.7-0.1c0.2,0.2,0.3,0.5,0.1,0.7c0,0,0,0-0.1,0.1c-0.9,1.1-21.2,26.4-27.9,28.9C79.9,180.3,79.2,180.4,78.5,180.4
		z"/>
	<polygon class="st1" points="97.8,119.5 82.1,146.6 106,161.7 121.7,141.3 	"/>
	<path class="st1" d="M106,162.2c-0.1,0-0.2,0-0.3-0.1L81.8,147c-0.2-0.1-0.3-0.4-0.2-0.7l15.7-27c0.1-0.1,0.2-0.2,0.4-0.3
		c0.2,0,0.3,0,0.4,0.1l23.9,21.8c0.2,0.2,0.2,0.5,0.1,0.7L106.4,162C106.3,162.1,106.1,162.2,106,162.2z M82.7,146.4l23.1,14.6
		l15.1-19.6l-23.1-21L82.7,146.4z"/>
	<path class="st0" d="M119.7,153.1c0,0,17.7,14.7,22.2,17.9c0,0-1.4,12.3,3.8,22.1c5.2,9.8,19.9,27.3,19.9,27.3l9-1.8
		c0,0-14.4-45.3-17.5-54.3c-3.2-8.9-17.6-30.6-17.6-30.6L119.7,153.1z"/>
	<path class="st1" d="M165.6,221c-0.2,0-0.3-0.1-0.4-0.2c-0.1-0.2-14.8-17.7-19.9-27.4c-4.7-9-4.1-20.1-3.9-22.1
		c-4.9-3.5-21.9-17.6-22-17.8c-0.1-0.1-0.2-0.2-0.2-0.4c0-0.1,0-0.3,0.2-0.4l19.8-19.3c0.1-0.1,0.3-0.2,0.4-0.1
		c0.1,0,0.3,0.1,0.4,0.2c0.6,0.9,14.6,21.8,17.7,30.7c3.1,8.9,17.4,53.8,17.5,54.3c0,0.1,0,0.3-0.1,0.4c-0.1,0.1-0.2,0.2-0.3,0.2
		L165.6,221L165.6,221z M120.5,153.1c2.8,2.3,17.7,14.6,21.8,17.5c0.2,0.1,0.2,0.3,0.2,0.5c0,0.1-1.3,12.3,3.7,21.8
		c4.8,9,17.9,24.9,19.6,27l8.2-1.6c-1.6-5.2-14.4-45.4-17.3-53.7c-2.8-8-15-26.6-17.3-30L120.5,153.1z"/>
	<path class="st1" d="M89.7,104.6c0,0-1.8,16.7,0.7,25.5c2.6,8.8,30.2,30.1,30.2,30.1l18.9-26.3l-11.3-21.8L89.7,104.6z"/>
	<path class="st1" d="M120.6,160.7c-0.1,0-0.2,0-0.3-0.1c-1.1-0.9-27.8-21.6-30.3-30.4s-0.8-25-0.8-25.7c0-0.1,0.1-0.3,0.2-0.3
		c0.1-0.1,0.3-0.1,0.4-0.1l38.5,7.4c0.1,0,0.3,0.1,0.3,0.3l11.3,21.9c0.1,0.2,0.1,0.4,0,0.5l-18.9,26.3c-0.1,0.1-0.2,0.2-0.3,0.2
		L120.6,160.7z M90.2,105.2c-0.3,2.9-1.5,17.1,0.8,24.7c2.3,7.9,26.1,26.8,29.6,29.5l18.4-25.6l-11.1-21.4L90.2,105.2z"/>
	<path class="st1" d="M29.4,155.7l-12.5-1.9c0,0-6.5,26.7-5.6,29.3c1.5,4.1,15.6-17.7,15.6-17.7L29.4,155.7z"/>
	<path class="st1" d="M11.9,184.1L11.9,184.1c-0.5,0-0.9-0.4-1.1-0.8c-1-2.6,4.9-26.8,5.6-29.5c0.1-0.3,0.3-0.4,0.6-0.4l12.5,1.9
		c0.3,0,0.5,0.3,0.4,0.6c0,0,0,0,0,0l-2.5,9.7c0,0.1,0,0.1-0.1,0.1C16.1,183,12.6,184.1,11.9,184.1z M17.2,154.4
		c-2.5,10.3-6.1,26.8-5.5,28.5c0.1,0.2,0.1,0.2,0.2,0.2l0,0c1.8,0,8.7-9,14.4-17.9l2.4-9.1L17.2,154.4z"/>
	<path class="st1" d="M165.2,220c0,0-0.8,7.9,1.4,8.8c2.2,0.9,28.4-2.2,27.5-4.1c-0.9-1.9-20.2-7.7-20.2-7.7L165.2,220z"/>
	<path class="st1" d="M168.5,229.4c-0.7,0-1.4,0-2-0.2c-2.4-1-1.8-7.9-1.7-9.3c0-0.2,0.2-0.4,0.3-0.4l8.7-3c0.1,0,0.2,0,0.3,0
		c4.6,1.4,19.5,6.1,20.5,8c0.1,0.3,0.1,0.7-0.2,0.9C192.7,227.1,174.9,229.4,168.5,229.4z M165.7,220.4c-0.3,3.1-0.1,7.5,1.1,7.9
		c2.3,0.9,24.6-2,26.7-3.5c-1.3-1.2-10.7-4.6-19.6-7.3L165.7,220.4z"/>
	<path class="st1" d="M35.9,169h-0.1c-0.3-0.1-0.4-0.3-0.4-0.6c0,0,0,0,0,0l3.5-13.1c0.1-0.3,0.4-0.4,0.6-0.4
		c0.3,0.1,0.4,0.3,0.4,0.6c0,0,0,0,0,0l-3.5,13.1C36.3,168.9,36.1,169,35.9,169z"/>
	<path class="st1" d="M161.3,214.4c-0.2,0-0.4-0.1-0.5-0.3c-0.1-0.2,0-0.5,0.2-0.7l10.1-5.1c0.2-0.1,0.5,0,0.7,0.2
		c0.1,0.2,0,0.5-0.2,0.7l0,0l-10.2,5.2C161.5,214.4,161.4,214.4,161.3,214.4z"/>
	<path class="st0" d="M142.6,53.1l10.9,30.7c7.8-4.3,15.9-8,24.2-11.2c0,0-0.9-5.9,1.8-8.3c2.6-2.4,4.8-3.8,5.1-3.1
		c0.3,0.7,1.3,2.8,1.3,2.8s2.5-3.5,4-2.8c1.5,0.7,2.8,8.9,2.8,11.1s-35.8,35.5-43.4,30.6c-7.6-4.9-18.8-27.7-18.8-27.7"/>
	<path class="st1" d="M151.3,103.9c-0.8,0-1.5-0.2-2.2-0.6c-7.7-4.9-18.5-27-18.9-27.9c-0.1-0.3,0-0.6,0.2-0.7
		c0.3-0.1,0.6,0,0.7,0.2l0,0c0.1,0.2,11.2,22.8,18.6,27.5c1,0.7,2.8,0.5,5.3-0.5c12.6-4.9,36.7-27.6,37.3-29.8
		c0-2.7-1.5-10.1-2.5-10.6c-0.8-0.4-2.4,1.3-3.4,2.6c-0.2,0.2-0.5,0.3-0.7,0.1c-0.1-0.1-0.1-0.1-0.2-0.2c0-0.1-0.9-1.9-1.3-2.7
		c-0.5,0.1-1.9,0.9-4.4,3.2c-2.5,2.3-1.6,7.8-1.6,7.9c0,0.2-0.1,0.5-0.3,0.5c-8.3,3.2-16.4,6.9-24.2,11.2c-0.1,0.1-0.3,0.1-0.4,0
		c-0.1-0.1-0.3-0.2-0.3-0.3l-11-30.7c-0.1-0.3,0.1-0.6,0.3-0.6c0.3-0.1,0.5,0,0.6,0.3c0,0,0,0,0,0L153.8,83
		c7.6-4.1,15.4-7.7,23.4-10.7c-0.2-1.4-0.5-6.1,2-8.4c1.5-1.4,4.2-3.7,5.4-3.4c0.3,0.1,0.5,0.2,0.6,0.5c0.2,0.4,0.6,1.4,1,2
		c0.9-1.1,2.7-2.9,4.1-2.3c2,0.9,3,10,3,11.6c0,2.2-21.4,21.9-34.1,28.9C155.8,103,153.2,103.9,151.3,103.9z"/>
	<path class="st0" d="M186,63.5c0.6,1.4,1.2,2.8,1.7,4.2c0.5,1.4,0.7,2.8,0.5,4.3c-0.3,1.4-1.4,2.7-2.6,2.6
		c-1.4-0.1-2.3-1.9-2.7-3.5"/>
	<path class="st1" d="M185.7,75.1h-0.2c-2.1-0.2-2.9-3-3.1-3.9c-0.1-0.3,0.1-0.5,0.4-0.6c0.3-0.1,0.5,0.1,0.6,0.4c0,0,0,0,0,0
		c0.3,1.3,1.1,3,2.2,3c1.1,0.1,1.9-1,2.1-2.2c0.2-1.4,0-2.8-0.4-4.1c-0.5-1.4-1.1-2.8-1.7-4.2c-0.1-0.3,0-0.6,0.3-0.7
		c0.2-0.1,0.5,0,0.7,0.2c0,0,0,0,0,0c0.6,1.4,1.2,2.8,1.7,4.3c0.5,1.4,0.7,3,0.5,4.5C188.4,73.6,187.2,75.1,185.7,75.1z"/>
	<path class="st1" d="M150.3,89.7L150.3,89.7c-0.3,0-0.5-0.3-0.5-0.5c0.2-3.2,3.3-5.7,3.4-5.8c0.2-0.2,0.5-0.1,0.7,0.1
		c0.2,0.2,0.1,0.5-0.1,0.7c0,0-2.8,2.3-3,5.1C150.8,89.5,150.6,89.7,150.3,89.7z"/>
	<path class="st2" d="M132.3,113.2l-45-8c0,0,4.4-27.5,4.4-52c0-7.7,22.3-19.4,31-16.1c8.7,3.3,18.1,11.3,20.7,15.3
		C144.5,54,130,104.6,132.3,113.2z"/>
	<path class="st1" d="M94.7,57.4c0,0-3.5,22.5,3.1,22.2c6.7-0.2,16.5-27.7,11.9-33.5C105.2,40.2,93.8,42.4,94.7,57.4z"/>
	<path class="st1" d="M97.7,80.1c-0.9,0-1.8-0.4-2.4-1.1c-3.8-4.3-1.4-20.4-1.2-21.7c-0.4-7.2,2-12.5,6.6-14.2
		c3.4-1.3,7.2-0.2,9.3,2.7c3,3.8,0.3,15.8-3.8,24.6c-1.7,3.6-5,9.6-8.5,9.7L97.7,80.1z M103.7,43.6c-0.9,0-1.7,0.2-2.5,0.5
		c-4.1,1.6-6.4,6.5-6,13.3v0.1c0,0.2-2.6,16.9,0.9,20.9c0.4,0.5,1,0.8,1.7,0.8c2.1-0.1,4.9-3.5,7.6-9.1c4-8.5,6.6-20.2,4-23.6
		C108,44.6,105.9,43.6,103.7,43.6L103.7,43.6z"/>
	<path class="st0" d="M54.4,72.2C53.3,76,63.6,105,63.6,105s4,14.8,5.9,15.6s7.8,1.1,9.3,1.1c3.5,0,0.3-5.7-0.2-5.8
		c0,0,2.3,1.1,3.4-0.7c1.1-1.7,0.1-3.5-0.8-6.1c-0.9-2.6-5.8-2.9-5.8-2.9c-0.4-5.4-5.6-29.7-5.6-29.7s31.1-14.3,34.9-16.2
		c3.8-1.9,8.4-9.8,0-15.1S55.6,68.4,54.4,72.2z"/>
	<path class="st1" d="M78.8,122.1c-1.3,0-7.4-0.3-9.5-1.1s-5.3-12.4-6.2-15.9c-1-3-10.3-29.2-9.1-33.1l0,0
		c1-3.2,25.4-20.7,40.3-26.3c5.2-1.9,8.8-2.3,10.7-1c4.2,2.6,5.1,5.8,5,7.9c-0.2,3.3-2.1,6.3-5,8c-3.6,1.9-30.9,14.4-34.5,16.1
		c0.7,3.2,4.9,23.2,5.5,28.9c1.3,0.1,5,0.7,5.8,3.2c0.1,0.4,0.3,0.8,0.4,1.1c0.8,2,1.4,3.7,0.4,5.4c-0.5,0.9-1.6,1.4-2.6,1.2
		c0.7,1.1,1,2.4,1,3.8c-0.1,1-1,1.8-2,1.8C78.9,122.2,78.9,122.2,78.8,122.1L78.8,122.1z M54.9,72.3C54.1,75,60,93.2,64,104.8
		c1.9,7,4.6,14.8,5.6,15.2c1.8,0.7,7.6,1,9.1,1l0,0c0.8,0,1-0.4,1-0.5c0.4-1.2-1-3.9-1.4-4.3c-0.2-0.1-0.3-0.4-0.2-0.6
		c0.1-0.2,0.3-0.4,0.6-0.3h0.1l0,0c0.1,0,1.9,0.9,2.8-0.5s0.3-2.5-0.4-4.5c-0.1-0.4-0.3-0.8-0.4-1.2c-0.7-1.9-4.1-2.5-5.4-2.5
		c-0.3,0-0.5-0.2-0.5-0.5c-0.4-5.3-5.6-29.4-5.6-29.6c-0.1-0.2,0.1-0.5,0.3-0.6c0.3-0.1,31.2-14.3,34.9-16.2
		c2.6-1.5,4.2-4.2,4.5-7.2c0.1-2.7-1.5-5.1-4.5-7c-1.7-1-5.1-0.6-9.8,1.1C79.1,52.4,55.6,69.8,54.9,72.3L54.9,72.3z"/>
	<path class="st0" d="M111.2,154.1c-0.1,0-0.1,0-0.2,0c-10.8-4.7-20.6-22.9-21-23.7c-0.1-0.2-0.1-0.5,0.2-0.6c0,0,0,0,0,0
		c0.2-0.1,0.5,0,0.6,0.2c0,0,0,0,0,0c0.1,0.2,10.1,18.7,20.6,23.3c0.2,0.1,0.3,0.3,0.3,0.6C111.6,154,111.4,154.1,111.2,154.1
		L111.2,154.1z"/>
	<path class="st0" d="M144.8,14.4c-0.8-1.4-3.5-1.2-5.1-1.3c-2.8-0.4-5.7-0.6-8.5-0.5c-2.9,0.2-5.6,1.2-7.9,3
		c-4.8,4.1-3.9,13.2-4.4,19c-0.3,3-0.4,6-0.9,8.9v0.1c0.2,1.2,2.7,16.6,8.4,19.9c5.8,3.4,7.8-14.5,7.8-14.5l0.4-11.3
		c0,0,6.1,1,8.3-4.3c1.5-4,2.2-8.2,2.1-12.4C145,19.3,145.5,15.9,144.8,14.4z"/>
	<path class="st1" d="M127.7,64.4c-0.6,0-1.2-0.2-1.7-0.5c-5.8-3.3-8.3-18.5-8.6-20.2c0-0.1,0-0.2,0-0.2c0.4-2.3,0.6-4.6,0.8-6.9
		c0-0.7,0.1-1.3,0.2-2c0.1-1.1,0.1-2.4,0.2-3.8c0.2-5.4,0.4-12.2,4.4-15.6c2.3-1.9,5.2-2.9,8.2-3.1c2.9-0.1,5.8,0,8.6,0.5
		c0.3,0,0.7,0.1,1.2,0.1c1.6,0.1,3.5,0.2,4.3,1.5c0.6,1.2,0.5,3.4,0.3,5.3c0,0.6-0.1,1.1-0.1,1.5c0,3.6-0.3,8.4-2.1,12.6
		c-1.9,4.6-6.7,4.8-8.3,4.7L134.6,49c-0.1,0.6-1.5,13-5.6,15.1C128.6,64.3,128.2,64.4,127.7,64.4z M118.5,43.6L118.5,43.6
		c0.1,0.6,2.6,16.3,8.1,19.5c0.6,0.4,1.4,0.5,2,0.2c3-1.5,4.7-10.8,5.1-14.3l0.4-11.2c0-0.1,0.1-0.3,0.2-0.4
		c0.1-0.1,0.3-0.1,0.4-0.1c0.2,0,5.7,0.8,7.8-4.1c1.7-4.1,2-8.7,2-12.2c0-0.4,0-1,0.1-1.6c0.1-1.6,0.3-3.8-0.2-4.7l0,0
		c-0.4-0.9-2.1-0.9-3.4-1c-0.4,0-0.9,0-1.2-0.1c-2.8-0.4-5.6-0.6-8.4-0.5c-2.8,0.2-5.4,1.2-7.6,2.9c-3.7,3.1-3.9,9.6-4.1,14.8
		c-0.1,1.4-0.1,2.7-0.2,3.9l-0.2,2C119.1,39,118.8,41.3,118.5,43.6z"/>
	<path class="st1" d="M134.3,43.6c-2.6-0.1-5-1.5-6.4-3.8c-2.4-3.8-1.5-6.3-1.5-6.3c2.1,2.4,5,3.9,8.1,4.1L134.3,43.6z"/>
	<path class="st1" d="M134.3,44.1c-2.8-0.1-5.3-1.7-6.8-4.1c-2.5-4-1.6-6.6-1.6-6.7c0.1-0.2,0.2-0.3,0.4-0.3c0.2,0,0.4,0,0.5,0.2
		c0,0,3.2,3.7,7.7,4c0.3,0,0.5,0.2,0.5,0.5c0,0,0,0,0,0l-0.2,5.9C134.8,43.9,134.6,44.1,134.3,44.1L134.3,44.1z M134.3,43.6
		L134.3,43.6z M126.8,34.7c0,1.8,0.6,3.5,1.6,4.9c1.2,1.9,3.2,3.2,5.4,3.5l0.2-4.9C131.3,37.8,128.8,36.6,126.8,34.7L126.8,34.7z"/>
	<path class="st0" d="M135.4,21.1c0,0,1.1,5.9,0,6.7s-3-0.7-3-0.7"/>
	<path class="st1" d="M134.7,28.5c-0.9-0.1-1.8-0.4-2.6-1c-0.2-0.2-0.3-0.5-0.1-0.7c0.2-0.2,0.5-0.3,0.7-0.1
		c0.4,0.3,1.8,1.2,2.5,0.7c0.4-0.3,0.3-3.2-0.2-6.2c0-0.3,0.1-0.5,0.4-0.6c0.3-0.1,0.5,0.1,0.6,0.4c0,0,0,0,0,0
		c0.4,1.9,1,6.3-0.2,7.2C135.4,28.4,135.1,28.5,134.7,28.5z"/>
	<ellipse transform="matrix(0.1723 -0.985 0.985 0.1723 86.1135 147.1805)" class="st1" cx="130.6" cy="22.3" rx="1.3" ry="1"/>
	<ellipse transform="matrix(0.1723 -0.985 0.985 0.1723 93.1405 157.8883)" class="st1" cx="140.5" cy="23.5" rx="1.3" ry="1"/>
	<path class="st0" d="M123,24.8c0-0.6-0.2-1.2-0.5-1.7c-0.4-0.8-1-1.6-1.8-2.2c-0.7-0.6-1.6-1-2.6-1c-1.9,0.2-3.4,1.7-3.6,3.6
		c0,1.9,0.9,3.7,2.6,4.7c1.2,0.9,2.8,1.1,4.3,0.6"/>
	<path class="st1" d="M120,29.5c-1.1,0-2.2-0.4-3.1-1c-1.8-1.1-2.8-3-2.8-5.1c0.2-2.2,1.9-3.9,4.1-4.1l0,0c1.1,0,2.1,0.4,2.9,1.1
		c0.8,0.7,1.4,1.4,1.9,2.3c0.4,0.6,0.6,1.3,0.6,2c0,0.3-0.3,0.5-0.6,0.4c0,0,0,0,0,0c-0.3,0-0.5-0.3-0.4-0.6c0-0.5-0.1-1-0.4-1.4
		c-0.4-0.8-1-1.5-1.6-2.1c-0.6-0.6-1.4-0.9-2.3-0.9c-1.7,0.2-3,1.5-3,3.2c0,1.7,0.9,3.3,2.3,4.2c1.1,0.8,2.5,1,3.8,0.6
		c0.3-0.1,0.6,0,0.7,0.3s0,0.6-0.3,0.7l0,0C121.1,29.4,120.6,29.5,120,29.5z"/>
	<path class="st1" d="M138.1,32.8c-0.3,0-7.1,0-10.9-4.1c-0.2-0.2-0.2-0.5,0-0.7c0.2-0.2,0.5-0.2,0.7,0c0,0,0,0,0.1,0.1
		c3.6,3.7,10.1,3.8,10.1,3.8c0.3,0,0.5,0.2,0.5,0.5C138.6,32.6,138.4,32.8,138.1,32.8z"/>
	<path class="st0" d="M117.7,10.1l28.3,3.1c0.7,0.1,1.2,0.7,1.1,1.4l-0.3,2.7c-0.1,0.7-0.7,1.2-1.4,1.1l-28.3-3.1
		c-0.7-0.1-1.2-0.7-1.1-1.4l0.3-2.7C116.3,10.5,117,10,117.7,10.1z"/>
	<path class="st1" d="M145.6,19h-0.2L117,15.9c-1-0.1-1.7-1-1.6-2c0,0,0,0,0,0l0.3-2.7c0.1-1,1-1.7,2-1.6c0,0,0,0,0.1,0l28.3,3.1
		c0.5,0,0.9,0.3,1.2,0.7c0.3,0.4,0.4,0.8,0.4,1.3l-0.3,2.7C147.3,18.3,146.5,19,145.6,19z M117.5,10.6c-0.4,0-0.7,0.3-0.8,0.7
		l-0.3,2.7c0,0.4,0.3,0.8,0.7,0.9l28.3,3.1l0,0c0.4,0,0.8-0.3,0.9-0.7l0.3-2.7c0-0.4-0.3-0.8-0.7-0.9L117.5,10.6L117.5,10.6z"/>
	<path class="st3" d="M148.6,97.5h-42.3c-2.5,0-4.5-2-4.5-4.5l0,0c0-2.5,2-4.4,4.5-4.4h33.2c7.2,0,12.7-14.3,19-21.3
		c6.3-7,20.2-12.1,38.2-12.2L148.6,97.5z"/>
	<path class="st1" d="M148.6,98h-42.3c-2.7,0.1-5.1-2-5.2-4.7c-0.1-2.7,2-5.1,4.7-5.2c0.1,0,0.3,0,0.4,0h33.2
		c4.5,0,8.5-6.2,12.3-12.3c1.9-3.1,4-6.1,6.3-8.8c6.9-7.5,21.6-12.3,38.6-12.4l0,0c0.2,0,0.4,0.1,0.5,0.3c0.1,0.2,0,0.4-0.1,0.6
		l-48.1,42.5C148.8,98,148.7,98,148.6,98z M106.3,89.1c-2.2-0.1-4,1.6-4.1,3.7c-0.1,2.2,1.6,4,3.7,4.1c0.1,0,0.3,0,0.4,0h42.1
		l47-41.4c-16,0.4-29.9,5-36.4,12.1c-2.3,2.7-4.4,5.6-6.2,8.7c-4,6.3-8.1,12.7-13.2,12.7H106.3z"/>
	<path class="st3" d="M227,97.5c0,0-25.7,28.6-25.7,38.5c0,15.2,25.7,96.4,25.7,96.4h10.6c0,0-26-80.2-26.6-95.1
		c-0.5-11.5,27.8-39.8,27.8-39.8L227,97.5z"/>
	<path class="st1" d="M237.6,232.9H227c-0.2,0-0.4-0.1-0.5-0.4c-1-3.3-25.7-81.4-25.7-96.5c0-10,24.7-37.7,25.8-38.8
		c0.1-0.1,0.2-0.2,0.4-0.2h11.8c0.2,0,0.4,0.1,0.5,0.3c0.1,0.2,0,0.4-0.1,0.5c-0.3,0.3-28.1,28.3-27.6,39.5
		c0.6,14.7,26.3,94.1,26.5,94.9c0,0.2,0,0.3-0.1,0.5C237.9,232.9,237.8,232.9,237.6,232.9z M227.5,231.9h9.5
		c-2.7-8.3-25.8-80.3-26.4-94.5c-0.4-10.6,22.2-34.4,27.1-39.4h-10.4c-2.1,2.4-25.4,28.8-25.4,38C201.9,150.5,225.6,226,227.5,231.9
		z"/>
	<path class="st3" d="M148.6,97.5c0,0-26.9,29.4-26.9,38.5c0,15.2,23.5,93.7,23.5,93.7H135c0,0-23.5-80-21.8-95.2
		c1.5-12.9,24.4-37,24.4-37H148.6z"/>
	<path class="st1" d="M145.2,230.2H135c-0.2,0-0.4-0.1-0.5-0.4c-1-3.3-23.6-80.2-21.8-95.4c1.5-12.9,23.6-36.3,24.6-37.3
		c0.1-0.1,0.2-0.2,0.4-0.2h10.9c0.2,0,0.4,0.1,0.5,0.3c0.1,0.2,0,0.4-0.1,0.5c-0.3,0.3-26.8,29.3-26.8,38.2
		c0,15,23.2,92.7,23.5,93.5c0.1,0.2,0,0.3-0.1,0.4C145.5,230.1,145.3,230.2,145.2,230.2z M135.4,229.2h9.1
		c-2.4-8.1-23.3-78.6-23.3-93.2c0-8.5,21.8-33,26.3-38h-9.5c-2,2.1-22.7,24.6-24.2,36.5C112.1,149,133.7,223.3,135.4,229.2z"/>
	<path class="st1" d="M108.1,229.7h126.8c3.5,0,6.3,2.8,6.3,6.3v0c0,3.5-2.8,6.3-6.3,6.3H108.1c-3.5,0-6.3-2.8-6.3-6.3v0
		C101.8,232.5,104.6,229.7,108.1,229.7z"/>
	<path class="st1" d="M234.9,242.9H108.1c-3.8-0.1-6.7-3.3-6.6-7.1c0.1-3.6,3-6.4,6.6-6.6h126.8c3.8,0.1,6.7,3.3,6.6,7.1
		C241.3,239.9,238.5,242.8,234.9,242.9z M108.1,230.2c-3.2,0.1-5.7,2.9-5.6,6.1c0.1,3,2.6,5.5,5.6,5.6h126.8
		c3.2,0.1,5.9-2.4,6.1-5.6c0.1-3.2-2.4-5.9-5.6-6.1c-0.2,0-0.3,0-0.5,0L108.1,230.2z"/>
	<path class="st1" d="M217.9,242.4H232l0,0l0,0c0,2.7-2.2,4.8-4.8,4.8c0,0,0,0,0,0h-4.4C220,247.2,217.9,245,217.9,242.4
		C217.9,242.4,217.9,242.4,217.9,242.4L217.9,242.4L217.9,242.4L217.9,242.4z"/>
	<path class="st1" d="M227.1,247.7h-4.4c-2.9,0-5.3-2.4-5.3-5.3c0-0.3,0.2-0.5,0.5-0.5H232c0.3,0,0.5,0.2,0.5,0.5
		C232.5,245.3,230.1,247.7,227.1,247.7z M218.4,242.9c0.3,2.2,2.1,3.8,4.3,3.8h4.4c2.2,0,4-1.6,4.3-3.8H218.4z"/>
	<path class="st3" d="M129.7,242.4h14.1l0,0l0,0c0,2.7-2.2,4.8-4.8,4.8l0,0h-4.4C131.9,247.2,129.7,245,129.7,242.4L129.7,242.4
		L129.7,242.4L129.7,242.4z"/>
	<path class="st1" d="M139,247.7h-4.4c-2.9,0-5.3-2.4-5.3-5.3c0-0.3,0.2-0.5,0.5-0.5h14.1c0.3,0,0.5,0.2,0.5,0.5
		C144.3,245.3,141.9,247.7,139,247.7z M130.3,242.9c0.3,2.2,2.1,3.8,4.3,3.8h4.4c2.2,0,4-1.6,4.3-3.8H130.3z"/>
	<path class="st3" d="M13.1,242.4h14.1l0,0l0,0c0,2.7-2.2,4.8-4.8,4.8h0h-4.4C15.2,247.2,13.1,245,13.1,242.4L13.1,242.4L13.1,242.4
		L13.1,242.4z"/>
	<path class="st1" d="M22.3,247.7h-4.4c-2.9,0-5.3-2.4-5.3-5.3c0-0.3,0.2-0.5,0.5-0.5h14.1c0.3,0,0.5,0.2,0.5,0.5
		C27.6,245.3,25.3,247.7,22.3,247.7z M13.6,242.9c0.3,2.2,2.1,3.8,4.3,3.8h4.4c2.2,0,4-1.6,4.3-3.8H13.6z"/>
	<path class="st1" d="M148.6,97.5c0,0,14.2-26.9,26.1-35.6s43-9.7,56.3-3s17.5,20.2,10.6,38.6L148.6,97.5z"/>
	<path class="st1" d="M241.5,98h-93c-0.2,0-0.3-0.1-0.4-0.2c-0.1-0.2-0.1-0.3,0-0.5c0.6-1.1,14.4-27.1,26.3-35.8
		c12.3-9,43.9-9.5,56.8-3c13.9,6.9,17.7,20.9,10.8,39.3C242,97.9,241.7,98.1,241.5,98z M149.4,97h91.7c6.5-17.7,2.9-31-10.4-37.7
		c-12.7-6.4-43.6-5.9-55.7,3C164.4,70.1,151.8,92.6,149.4,97z"/>
	<path class="st3" d="M7.3,229.7h146.1c3.5,0,6.3,2.8,6.3,6.3v0c0,3.5-2.8,6.3-6.3,6.3H7.3c-3.5,0-6.3-2.8-6.3-6.3v0
		C1,232.5,3.8,229.7,7.3,229.7z"/>
	<path class="st1" d="M153.4,242.9H7.3c-3.8-0.1-6.7-3.3-6.6-7.1c0.1-3.6,3-6.4,6.6-6.6h146c3.8-0.1,7,2.8,7.1,6.6
		c0.1,3.8-2.8,7-6.6,7.1C153.7,242.9,153.5,242.9,153.4,242.9z M7.3,230.2c-3.2,0.1-5.7,2.9-5.6,6.1c0.1,3,2.6,5.5,5.6,5.6h146
		c3.2,0.1,5.9-2.4,6.1-5.6c0.1-3.2-2.4-5.9-5.6-6.1c-0.2,0-0.3,0-0.5,0L7.3,230.2z"/>
</g>
</svg>
