<svg id="Ebene_1" data-name="Ebene 1" xmlns="http://www.w3.org/2000/svg" viewBox="0 0 267.31 216.03"><defs><style>.cls-1{fill:#fff;}.cls-2{fill:#231f20;}.cls-3{fill:#d1d3d4;}.cls-4{fill:#63c2de;}</style></defs><g id="_447_reading_a_book_flatline" data-name=" 447 reading a book flatline"><polygon class="cls-1" points="242.4 0.51 242.4 183.52 266.8 208.92 266.8 0.51 242.4 0.51"/><path class="cls-2" d="M266.8,209.42a.51.51,0,0,1-.36-.15L242.08,183.9a.54.54,0,0,1-.14-.36V.51a.49.49,0,0,1,.48-.51h24.37a.51.51,0,0,1,.51.51V208.93a.49.49,0,0,1-.31.46A.58.58,0,0,1,266.8,209.42Zm-23.89-26.1,23.4,24.36V1h-23.4Z" transform="translate(0 0)"/><rect class="cls-1" x="24.91" y="0.51" width="217.5" height="183.01"/><path class="cls-2" d="M242.4,184H24.91a.51.51,0,0,1-.51-.51V.51A.51.51,0,0,1,24.91,0H242.4a.51.51,0,0,1,.51.51v183A.51.51,0,0,1,242.4,184Zm-217-1h216.5V1H25.41Z" transform="translate(0 0)"/><path class="cls-3" d="M128.58,178.56H37.13a.53.53,0,0,1-.51-.51V9.68a.5.5,0,0,1,.51-.5h91.45a.5.5,0,0,1,.51.5V178.05A.53.53,0,0,1,128.58,178.56Zm-90.94-1h90.43V10.19H37.64Z" transform="translate(0 0)"/><path class="cls-3" d="M230.21,178.56H138.73a.53.53,0,0,1-.51-.51V9.68a.5.5,0,0,1,.51-.5h91.45a.5.5,0,0,1,.51.5V178.05A.51.51,0,0,1,230.21,178.56Zm-90.94-1h90.44V10.19H139.27Z" transform="translate(0 0)"/><polygon class="cls-1" points="266.8 208.92 0.51 208.92 24.91 183.52 242.4 183.52 266.8 208.92"/><path class="cls-2" d="M266.8,209.42H.51a.52.52,0,0,1-.47-.3.51.51,0,0,1,.1-.55L24.5,183.2a.5.5,0,0,1,.37-.17H242.4a.48.48,0,0,1,.37.17l24.36,25.37a.5.5,0,0,1-.33.85Zm-265.09-1h263.9l-23.43-24.36H25.12Z" transform="translate(0 0)"/><polygon class="cls-1" points="0.51 0.51 0.51 208.92 24.91 183.52 24.91 0.51 0.51 0.51"/><path class="cls-2" d="M.51,209.42a.31.31,0,0,1-.19,0A.5.5,0,0,1,0,209V.51A.51.51,0,0,1,.51,0H24.87a.5.5,0,0,1,.5.5h0v183a.61.61,0,0,1-.15.36L.86,209.25A.47.47,0,0,1,.51,209.42ZM1,1V207.67l23.34-24.36V1Z" transform="translate(0 0)"/><path class="cls-2" d="M25.37,132.67c-2.15.39-17.44.13-17.14,3.18S16,169.34,18.1,177.51s7.84,15.23,13.27,18.27S53.3,185.57,57,184.62,25.37,132.67,25.37,132.67Z" transform="translate(0 0)"/><path class="cls-2" d="M33.34,196.73a4.53,4.53,0,0,1-2.22-.51c-5.07-2.86-11.16-9.71-13.52-18.58C15.46,169.36,8,139,7.73,135.9a1.43,1.43,0,0,1,.36-1.1c1.49-1.72,7.71-2.14,14-2.41,1.49-.07,2.77-.14,3.24-.22a.51.51,0,0,1,.5.22c5.57,8.12,33.3,48.5,31.89,52.24a.84.84,0,0,1-.58.52c-1.08.26-3.56,1.81-6.43,3.6C45.13,192.2,37.87,196.73,33.34,196.73Zm-8.21-63.51c-.63.07-1.68.12-3,.17-4.15.19-11.89.54-13.2,2a.43.43,0,0,0-.13.34c.3,3,7.78,33.57,9.86,41.61,2.22,8.58,8.12,15.23,13,18,3.45,1.94,12.5-3.71,18.5-7.45a38.35,38.35,0,0,1,6.62-3.7c.49-3-19-32.63-31.64-51Z" transform="translate(0 0)"/><path class="cls-1" d="M82.66,114s-71.2-2.89-71.5,2.19,35.19,79.89,40.37,81,5.73-3.83,7.72-3.34,22.06-5.68,28.42-11.16-10.7-46.91-10-52.05S88.51,114.68,82.66,114Z" transform="translate(0 0)"/><path class="cls-2" d="M52.94,197.8a7,7,0,0,1-1.51-.17c-3.5-.73-17-27.69-22.6-39.25C19.89,140,10.49,119,10.65,116.14c.07-1.11.21-3.7,36.38-3.51,17.64.09,35.52.82,35.65.83h0a2.39,2.39,0,0,1,2,1.21c.93,1.86-1.07,5.28-3.18,8.91-1.54,2.6-3.11,5.31-3.37,7.1s1.7,8,4,15.42c4.54,14.79,10.15,33.19,5.81,36.93-6.39,5.49-26.66,11.78-28.85,11.22-.44-.1-.84.31-1.51,1A5.91,5.91,0,0,1,52.94,197.8Zm-8.12-84.24c-21.12,0-33,1.06-33.12,2.59-.14,2.28,8,21,18.08,41.75C42.52,184.14,50,196.32,51.63,196.65c2.91.61,4.15-.78,5.23-2,.75-.84,1.45-1.61,2.52-1.34,1.7.41,21.59-5.58,27.93-11,3.87-3.31-2.14-22.89-6.09-35.86-2.39-7.8-4.28-14-4-15.87s1.93-4.81,3.5-7.51c1.8-3,3.84-6.57,3.16-7.94a1.47,1.47,0,0,0-1.23-.66c-14.67-.56-27.39-.82-37.86-.82Z" transform="translate(0 0)"/><path class="cls-1" d="M212.28,180.93s10.86-.3,12.27-1,9.55-11.27,11.46-13.78,2.41-5.44,3.72-6,2.12-1.62,2.61,0-2.21,13.19-4.06,19.5-3.92,14.79-5.43,15.8-5.53-.31-6.64-1.41a21.66,21.66,0,0,0-4.06-2.62s-13,.1-13.19-.19S212.28,180.93,212.28,180.93Z" transform="translate(0 0)"/><path class="cls-2" d="M231.35,196.32a9.37,9.37,0,0,1-5.45-1.92,21,21,0,0,0-3.79-2.46c-13.12.1-13.28-.15-13.48-.43s-.33-.51,3.17-10.7a.48.48,0,0,1,.46-.34c4.16-.11,11.1-.48,12.06-1s7.22-8.28,11.28-13.63a16.6,16.6,0,0,0,1.9-3.36c.64-1.35,1.15-2.42,2-2.83a5.46,5.46,0,0,0,.75-.41c.59-.33,1.14-.65,1.7-.43a1.71,1.71,0,0,1,.86,1.15c.61,1.95-2.59,14.78-4.06,19.81-.29,1-.6,2.12-.9,3.21-2,7.2-3.41,12-4.73,12.85A3.26,3.26,0,0,1,231.35,196.32Zm-9.14-5.39a.89.89,0,0,1,.23,0,22.78,22.78,0,0,1,4.15,2.71c1,1,4.77,2.16,6,1.34s3-7.41,4.32-12.28c.31-1.1.61-2.19.91-3.23,2.11-7.39,4.43-17.92,4.06-19.22-.15-.45-.27-.51-.27-.51a6.4,6.4,0,0,0-.82.38,9.12,9.12,0,0,1-.83.44c-.55.25-1,1.22-1.53,2.35a18.25,18.25,0,0,1-2,3.53c-.4.54-10,13.08-11.64,13.93-1.37.68-10,1-12.18,1-1.08,3.18-2.66,7.92-3,9.35,1.73.13,8.38.14,12.59.11Z" transform="translate(0 0)"/><path class="cls-2" d="M94.64,196.23s55.26-7,59.19-7.35,60,3.92,62,3.61,2.57-13,2.57-13-54.27-14.61-69.66-13.87c-8.9.42-37.76,0-37.76,0Z" transform="translate(0 0)"/><path class="cls-2" d="M94.64,196.74a.5.5,0,0,1-.51-.49.51.51,0,0,1,.06-.25l16.35-30.6a.54.54,0,0,1,.46-.26c.29,0,28.94.42,37.72,0,15.29-.73,67.6,13.3,69.82,13.9a.49.49,0,0,1,.38.5c-.19,3.94-.86,13.13-3,13.46-.93.14-11-.53-27.46-1.61-15.23-1-32.48-2.16-34.59-2-3.85.29-58.61,7.28-59.17,7.35Zm16.69-30.58L95.58,195.59c7.65-1,54.6-7,58.25-7.23,2.13-.16,18.7.94,34.73,2,12.95.87,26.34,1.76,27.24,1.63s1.78-5.74,2.11-12.09c-4.95-1.32-54.67-14.45-69.11-13.75C140.46,166.55,114.44,166.2,111.33,166.16Z" transform="translate(0 0)"/><path class="cls-1" d="M170.77,176.15s5.43,8.75,6,10.57.61,6.79,1.81,9.05,35.45,1.82,35.31.47-14.79-7.41-18.63-10.15-13.93-17.17-13.93-17.17Z" transform="translate(0 0)"/><path class="cls-2" d="M196.06,197.83c-8.58,0-17.17-.45-17.89-1.81a20.51,20.51,0,0,1-1.33-6,19.57,19.57,0,0,0-.51-3.14c-.47-1.38-4.12-7.44-6-10.45a.5.5,0,0,1,.14-.68l10.57-7.24a.51.51,0,0,1,.7.12c.1.14,10.1,14.45,13.83,17.08a89.09,89.09,0,0,0,9.33,4.9c7.28,3.53,9.41,4.69,9.51,5.58,0,.36-.2.63-.73.79C212.22,197.43,204.15,197.83,196.06,197.83ZM171.45,176.3c1.1,1.77,5.29,8.62,5.83,10.26a20.69,20.69,0,0,1,.57,3.33,18.9,18.9,0,0,0,1.21,5.65c.55.6,6.16,1.29,17.15,1.32,8.44,0,15.23-.38,17-.79a84,84,0,0,0-8.72-4.56,92,92,0,0,1-9.48-5c-3.55-2.51-12.08-14.49-13.78-16.91Z" transform="translate(0 0)"/><path class="cls-2" d="M72.6,189.22c.92.61,4.91,6.45,22,7.05S140,145,140,145l29.78,35,13.67-8.65s-18.7-52-27.15-57.33-22.33-1.41-28.42,2.51-35.3,44.05-35.3,44.05Z" transform="translate(0 0)"/><path class="cls-2" d="M94.93,196.75h-.31c-15.37-.54-20.3-5.25-21.91-6.79-.18-.17-.3-.29-.38-.35a.45.45,0,0,1-.22-.32.54.54,0,0,1,.08-.39l20-28.66c1.21-1.66,29.44-40.27,35.45-44.2,5.65-3.67,19.93-8.18,28.9-2.5,8.51,5.37,26.61,55.45,27.41,57.58a.51.51,0,0,1-.2.6l-13.69,8.65a.52.52,0,0,1-.66-.11l-29.29-34.38a292.83,292.83,0,0,1-15.92,25.26C112,188.13,102.19,196.75,94.93,196.75Zm-21.65-7.66.13.12c1.55,1.48,6.26,6,21.24,6.51h.29c16.66,0,44.33-50.48,44.61-51a.51.51,0,0,1,.39-.26.51.51,0,0,1,.45.18l29.43,34.61,13-8.19c-1.72-4.75-19-51.77-26.8-56.68-4.24-2.68-16.75-4.7-27.81,2.5C122.28,120.7,93.29,160.4,93,160.81Z" transform="translate(0 0)"/><path class="cls-1" d="M87.26,153.69c0-.6,7.44-10.4,9.3-11.32a58.22,58.22,0,0,0,5.18-3.16L99,132.89s-2.2.89-1.74-1.07-3.48-4.7-3.48-4.7-5.14,4.57-5.26,9.82C88.38,141.18,77,148,77,148Z" transform="translate(0 0)"/><path class="cls-2" d="M87.26,154.16a.54.54,0,0,1-.25-.06l-10.25-5.74a.51.51,0,0,1-.2-.69.52.52,0,0,1,.2-.19c3-1.85,11.16-7.35,11.22-10.59.13-5.41,5.22-10,5.43-10.15a.52.52,0,0,1,.63,0c.43.3,4.19,3,3.68,5.23a1,1,0,0,0,0,.6,3,3,0,0,0,1-.1.5.5,0,0,1,.65.26l2.78,6.31a.5.5,0,0,1-.17.62,54.16,54.16,0,0,1-5.25,3.21c-1.67.82-8.65,10-9,10.94a.55.55,0,0,1-.25.36A.5.5,0,0,1,87.26,154.16ZM78,147.9,87.06,153c1.44-2.51,7.63-10.27,9.28-11.07a55.2,55.2,0,0,0,4.77-2.91l-2.43-5.51a1.82,1.82,0,0,1-1.62-.21,1.53,1.53,0,0,1-.34-1.59c.25-1.1-1.55-2.9-2.94-3.94-1.07,1-4.7,4.93-4.79,9.18-.1,3.87-8.29,9.3-11,11Z" transform="translate(0 0)"/><path class="cls-1" d="M72.76,76.55c-10-12.33-26.69-6.09-31.56,7.26C39.27,89.12,37.41,94,33.82,98.36c-3.21,4-8.22,7.47-8.41,13.06-.14,3.89,2.46,7.5,5.81,9.49s7.33,2.62,11.17,2.83a62,62,0,0,0,25.48-4c3.31-1.26,7.18-3.27,8.93-6.56,2.14-4-.21-7-1.1-11.16-.73-3.4.38-6.87,1.11-10.27C78,86.16,76.35,81,72.76,76.55Z" transform="translate(0 0)"/><path class="cls-2" d="M45.77,124.34c-1.13,0-2.27,0-3.39-.09-3.38-.2-7.73-.69-11.45-2.91s-6.19-6.17-6.09-9.94c.21-4.4,3.11-7.44,6-10.49.93-1,1.81-1.91,2.59-2.88,3.46-4.26,5.28-8.86,7.3-14.41,2.67-7.32,9-12.81,16.06-14,6.24-1,12.06,1.29,16.36,6.59h0c4,4.89,5.4,10.15,4.21,15.69-.12.56-.25,1.12-.38,1.68-.64,2.77-1.31,5.65-.72,8.37a27.59,27.59,0,0,0,.92,3.1c.91,2.71,1.78,5.28.12,8.39-1.46,2.74-4.54,5-9.18,6.79A63.25,63.25,0,0,1,45.77,124.34ZM59.62,70.4a16.43,16.43,0,0,0-2.71.23C50.18,71.76,44.18,77,41.69,84c-2,5.64-3.92,10.31-7.46,14.71-.82,1-1.76,2-2.66,2.94-2.71,2.85-5.51,5.8-5.65,9.81-.12,3.41,2,7,5.57,9s7.72,2.58,11,2.75a62.05,62.05,0,0,0,25.2-3.92c4.4-1.67,7.31-3.8,8.65-6.32,1.45-2.72.69-5-.19-7.58a27.65,27.65,0,0,1-1-3.22c-.64-2.94,0-5.93.72-8.8.13-.56.27-1.12.39-1.67,1.12-5.21-.23-10.15-4-14.85h0A16.08,16.08,0,0,0,59.62,70.4Z" transform="translate(0 0)"/><path class="cls-4" d="M35.5,114c-4.06,5.24-3.32,29.57,6.33,42.24s14.69,29.17,36.61,37.61l17.35-35.4s-14.34-12.67-14.91-16.7,2.2-10.15.2-15.48C72.6,103.84,39.53,108.73,35.5,114Z" transform="translate(0 0)"/><path class="cls-1" d="M63.05,108.64l0,9.83s.8,4.06-5.76,2.52-9.49-9.63-9.49-9.63L48.34,97s10.27-5.5,8.81-16.06a13.45,13.45,0,0,0,13.76,7s.16,9.44-.62,14.52S63.05,108.64,63.05,108.64Z" transform="translate(0 0)"/><path class="cls-2" d="M59.87,121.85a12,12,0,0,1-2.74-.37c-6.76-1.61-9.74-9.61-9.86-10a.6.6,0,0,1,0-.19L47.86,97a.48.48,0,0,1,.27-.42c.09-.05,9.94-5.47,8.54-15.55a.51.51,0,0,1,1-.3,12.85,12.85,0,0,0,13.2,6.75.51.51,0,0,1,.39.12.56.56,0,0,1,.19.38c0,.39.15,9.53-.62,14.6-.71,4.66-5.74,6.17-7.24,6.51l0,9.42h0a2.88,2.88,0,0,1-.8,2.46A3.91,3.91,0,0,1,59.87,121.85ZM48.25,111.27c.35.88,3.24,7.83,9.14,9.23,2.27.54,3.89.44,4.65-.3a2,2,0,0,0,.5-1.64v-9.92a.51.51,0,0,1,.42-.5c.06,0,6.09-1.1,6.82-5.76a110.75,110.75,0,0,0,.62-13.87,13.77,13.77,0,0,1-12.63-5.66c.07,8.6-7.46,13.53-9,14.43Z" transform="translate(0 0)"/><path class="cls-1" d="M51.44,96.45a5.09,5.09,0,0,0-5.31-3.56c-2.85.45-2.81,3.68-1.92,5.76a5.21,5.21,0,0,0,6.85,2.71l0,0" transform="translate(0 0)"/><path class="cls-2" d="M49,102.29a5.65,5.65,0,0,1-5.23-3.45A5.88,5.88,0,0,1,43.66,94a3.15,3.15,0,0,1,2.4-1.6,5.55,5.55,0,0,1,5.87,3.92.53.53,0,0,1-1,.25,4.64,4.64,0,0,0-4.74-3.18,2.13,2.13,0,0,0-1.66,1.1,4.86,4.86,0,0,0,.13,4,4.69,4.69,0,0,0,6.14,2.47l.08,0a.51.51,0,0,1,.67.25.5.5,0,0,1-.26.67h0A5.82,5.82,0,0,1,49,102.29Z" transform="translate(0 0)"/><path class="cls-1" d="M64.64,93s3.63,5,2.85,5.92-3,.43-3,.43" transform="translate(0 0)"/><path class="cls-2" d="M65.7,100a9.76,9.76,0,0,1-1.42-.14.52.52,0,0,1-.4-.62.51.51,0,0,1,.61-.4c.66.14,2.17.26,2.6-.25.16-.47-1.17-3-2.87-5.3a.49.49,0,0,1,.09-.68l0,0a.51.51,0,0,1,.7.11c1.77,2.43,3.7,5.53,2.83,6.54A2.77,2.77,0,0,1,65.7,100Z" transform="translate(0 0)"/><ellipse class="cls-2" cx="61.71" cy="90.37" rx="0.8" ry="1.86" transform="matrix(1, -0.03, 0.03, 1, -2.62, 1.85)"/><ellipse class="cls-2" cx="68.54" cy="91.17" rx="0.8" ry="1.86" transform="translate(-2.64 2.05) rotate(-1.68)"/><path class="cls-2" d="M63.05,108.64s-3.73.68-8.18-2.24c0,0,1.65,6.91,8.12,7.55Z" transform="translate(0 0)"/><path class="cls-2" d="M63,114.46h0c-6.8-.67-8.57-7.87-8.59-7.95a.45.45,0,0,1,.2-.52.5.5,0,0,1,.57,0,11.74,11.74,0,0,0,7.8,2.16.57.57,0,0,1,.42.11.5.5,0,0,1,.18.4V114a.51.51,0,0,1-.16.37A.54.54,0,0,1,63,114.46Zm-7.23-6.93c.75,1.86,2.64,5.19,6.73,5.86V109.2A12.69,12.69,0,0,1,55.79,107.53Z" transform="translate(0 0)"/><path class="cls-1" d="M59,96.45s0,10,8.76,6.76" transform="translate(0 0)"/><path class="cls-2" d="M64.55,104.35a5.2,5.2,0,0,1-3.1-.92c-3-2-3.05-6.78-3.05-7a.52.52,0,0,1,.51-.51h0a.51.51,0,0,1,.51.51s0,4.39,2.56,6.15c1.35.94,3.2,1,5.52.13a.5.5,0,0,1,.64.32.51.51,0,0,1-.3.63A9.75,9.75,0,0,1,64.55,104.35Z" transform="translate(0 0)"/><path class="cls-1" d="M119.32,145c-.44-.15-11.91-3-11.91-3s19.16-30.32,19.61-30.45,16.44-3.35,16.44-3.35Z" transform="translate(0 0)"/><path class="cls-2" d="M119.32,145.48h-.16c-.34-.12-7.3-1.87-11.87-3a.49.49,0,0,1-.37-.61.47.47,0,0,1,.06-.15c19.29-30.45,19.66-30.6,19.88-30.68.46-.15,13.83-2.82,16.51-3.36a.51.51,0,0,1,.52.78l-24.14,36.85A.53.53,0,0,1,119.32,145.48Zm-11.11-3.85,10.89,2.76,23.29-35.52-15.1,3c-1.14,1.49-11.8,18.21-19.08,29.72Z" transform="translate(0 0)"/><polygon class="cls-1" points="107.41 141.96 93.74 134.53 112.24 107.71 127.02 111.49 107.41 141.96"/><path class="cls-2" d="M107.41,142.47a.72.72,0,0,1-.25-.07L93.49,135a.47.47,0,0,1-.24-.32.5.5,0,0,1,.07-.41l18.5-26.81a.51.51,0,0,1,.54-.21L127.14,111a.54.54,0,0,1,.36.3.56.56,0,0,1-.06.47l-19.61,30.45A.53.53,0,0,1,107.41,142.47Zm-12.93-8.12,12.79,6.94,19-29.49-13.77-3.51Z" transform="translate(0 0)"/><path class="cls-1" d="M51.44,149.35S65,171.68,75.63,175.74s41-27.12,41-27.12,3.71,1.7,7.54-3.32a39.23,39.23,0,0,0,5.51-10.21s2-4.06,1.23-6.51c-.64-2.12-2.66,2-2.66,2s-3.4,5.29-5.42,4.79-.3-5.89-.91-7.47-3.59,4.06-4.29,6.47-4.43,6.84-6,8.24S86,160.51,83.92,160.36s-16.65-18-16.65-18Z" transform="translate(0 0)"/><path class="cls-2" d="M77.74,176.56a6.38,6.38,0,0,1-2.29-.39c-10.7-4.06-23.89-25.64-24.45-26.56a.51.51,0,0,1,0-.42.55.55,0,0,1,.28-.3L67.05,142a.52.52,0,0,1,.6.14c7,8.58,15,17.57,16.3,17.77,2,0,25.3-15.7,27.41-17.53,1.63-1.43,5.23-5.78,5.88-8,.49-1.7,2.92-7.05,4.44-7.11a.81.81,0,0,1,.82.61,8.55,8.55,0,0,1,0,3.15c-.14,1.6-.33,3.79.51,4,1.13.27,3.53-2.5,4.86-4.57.52-1.08,1.59-3,2.63-2.91.3,0,.71.22.93,1,.81,2.65-1.16,6.71-1.25,6.88a38.42,38.42,0,0,1-5.57,10.29c-3.39,4.47-6.74,3.93-7.8,3.61C114,152.1,89.49,176.56,77.74,176.56ZM52.18,149.63c2,3.29,14.12,22.06,23.62,25.65,4.18,1.57,12.49-2.55,24-11.94,8.8-7.16,16.4-14.92,16.48-15a.5.5,0,0,1,.57-.1c.14.06,3.42,1.45,6.93-3.17A39,39,0,0,0,129.24,135c0-.11,1.9-3.93,1.22-6.21a.68.68,0,0,0-.12-.26,8.22,8.22,0,0,0-1.6,2.42c-.63,1-3.74,5.61-6,5.07-1.67-.42-1.45-2.89-1.25-5.07a11.72,11.72,0,0,0,.05-2.58c-.84.63-2.78,4.21-3.39,6.29-.73,2.52-4.48,7-6.18,8.49-1.33,1.16-25.38,17.77-28.09,17.77h0c-2.12-.15-13.06-13.31-16.77-17.84Z" transform="translate(0 0)"/><path class="cls-2" d="M67.21,142.91a.5.5,0,0,1-.45-.28l-7.88-16.34a.51.51,0,0,1,.23-.67.5.5,0,0,1,.67.23l7.89,16.34a.5.5,0,0,1-.22.67h0A.46.46,0,0,1,67.21,142.91Z" transform="translate(0 0)"/><path class="cls-2" d="M51.44,149.85a.53.53,0,0,1-.46-.28c-.09-.2-9.8-20.22-11.76-22.7a.51.51,0,0,1,.08-.71.5.5,0,0,1,.7.07v0c2,2.56,11.48,22.05,11.89,22.88a.5.5,0,0,1-.24.67A.33.33,0,0,1,51.44,149.85Z" transform="translate(0 0)"/><path class="cls-1" d="M97.22,196.32a.52.52,0,0,1-.59-.43.52.52,0,0,1,.44-.58c11.83-3.87,29.55-29.52,29.73-29.78a.52.52,0,0,1,.71-.13.5.5,0,0,1,.13.69h0c-.73,1.07-18.1,26.19-30.26,30.17Z" transform="translate(0 0)"/><path class="cls-1" d="M93.74,127.08a20.4,20.4,0,0,1,4.06-2.32c3.32-1.46,7.74-1.1,6.63.33s-8.6,4.55-8.6,4.55.65,3.42-3.27,4.93" transform="translate(0 0)"/><path class="cls-2" d="M92.52,135.08a.52.52,0,1,1-.18-1c3.46-1.33,3-4.24,3-4.36a.52.52,0,0,1,.3-.56c3-1.23,7.65-3.42,8.4-4.39a.35.35,0,0,0,.07-.12c-.29-.42-3.34-.65-6.09.56a21.49,21.49,0,0,0-3.87,2.21.51.51,0,0,1-.71,0,.5.5,0,0,1,0-.7,20,20,0,0,1,4.17-2.42c2.75-1.21,6.45-1.32,7.31-.23a1,1,0,0,1-.07,1.32c-1,1.37-6.86,3.89-8.47,4.57A5.08,5.08,0,0,1,92.71,135,.6.6,0,0,1,92.52,135.08Z" transform="translate(0 0)"/><path class="cls-3" d="M51.53,188.12a.49.49,0,0,1-.48-.36C45.35,169.85,18,120.52,17.65,120a.5.5,0,0,1,.28-.66.49.49,0,0,1,.6.18c.29.49,27.74,49.91,33.5,67.92a.5.5,0,0,1-.34.63A.41.41,0,0,1,51.53,188.12Z" transform="translate(0 0)"/><rect class="cls-1" x="0.51" y="208.93" width="266.31" height="6.61"/><path class="cls-2" d="M266.8,216H.51a.5.5,0,0,1-.51-.5v-6.6a.51.51,0,0,1,.51-.51H266.8a.51.51,0,0,1,.51.51v6.6A.5.5,0,0,1,266.8,216ZM1,215h265.3v-5.6H1Z" transform="translate(0 0)"/><path class="cls-3" d="M80,46.53a.51.51,0,0,1-.39-.19.5.5,0,0,1,.07-.71l22.8-18.81a.5.5,0,0,1,.71,0,.52.52,0,0,1-.07.71L80.35,46.42A.55.55,0,0,1,80,46.53Z" transform="translate(0 0)"/><path class="cls-3" d="M164.21,58.71a.5.5,0,0,1-.5-.51.52.52,0,0,1,.17-.39L193,33.45a.51.51,0,0,1,.66.79L164.53,58.6A.52.52,0,0,1,164.21,58.71Z" transform="translate(0 0)"/><path class="cls-3" d="M91.42,73.86a.49.49,0,0,1-.38-.18A.51.51,0,0,1,91.1,73l18-15.15a.51.51,0,0,1,.72.07.5.5,0,0,1-.06.72l-18,15.14A.5.5,0,0,1,91.42,73.86Z" transform="translate(0 0)"/><path class="cls-3" d="M208.35,144a.56.56,0,0,1-.39-.17.53.53,0,0,1,.06-.73l11.48-10a.51.51,0,0,1,.71.73l0,0-11.49,10A.55.55,0,0,1,208.35,144Z" transform="translate(0 0)"/><path class="cls-3" d="M171,109.26a.51.51,0,0,1-.52-.5.53.53,0,0,1,.19-.4l32.71-27.21a.49.49,0,0,1,.7,0h0a.52.52,0,0,1-.06.72l-32.71,27.21A.47.47,0,0,1,171,109.26Z" transform="translate(0 0)"/></g></svg>