<?xml version="1.0" encoding="utf-8"?>
<!-- Generator: Adobe Illustrator 25.4.1, SVG Export Plug-In . SVG Version: 6.00 Build 0)  -->
<svg version="1.1" id="_280_smiley_face_flatline" xmlns="http://www.w3.org/2000/svg" xmlns:xlink="http://www.w3.org/1999/xlink"
	 x="0px" y="0px" viewBox="0 0 406.9 241.9" style="enable-background:new 0 0 406.9 241.9;" xml:space="preserve">
<style type="text/css">
	.st0{fill:#D1D3D4;}
	.st1{fill:#231F20;}
	.st2{fill:#63C2DE;}
	.st3{fill:#FFFFFF;}
	.st4{fill:#E6E7E8;}
	.st5{fill:#68E1FD;}
</style>
<g>
	<ellipse class="st0" cx="284.8" cy="218" rx="75.5" ry="6.7"/>
	<path class="st1" d="M331.3,187.2c-1.1,0-2.1-0.5-2.8-1.4c-7.6-9.9-27.1-34.8-29.2-37c-1.5-1.3-1.6-3.5-0.3-5
		c1.2-1.3,3.1-1.6,4.6-0.6c2.1,1.4,30.2,37.9,30.4,38.2c1.2,1.5,0.9,3.7-0.7,4.9C332.8,186.9,332.1,187.2,331.3,187.2z M299.4,148.9
		c0.1,0.1,0.2,0.2,0.3,0.2C299.6,149,299.5,148.9,299.4,148.9L299.4,148.9z"/>
	<path class="st1" d="M337.1,93.2c-4.8,0-9.5-0.5-14.2-1.5c-1.9-0.4-3.1-2.3-2.6-4.2c0.4-1.9,2.3-3.1,4.2-2.6l0,0
		c4.3,0.9,8.7,1.3,13,1.3c6.1,0,14.4-1.1,19-6.1c4.6-5,5.1-13.6,1.3-25.3c-0.6-1.8,0.4-3.8,2.3-4.4c1.8-0.6,3.8,0.4,4.4,2.3
		c4.6,14.3,3.6,25.2-2.8,32.2C355.5,91.5,345.5,93.2,337.1,93.2z"/>
	<path class="st1" d="M220.7,141.5c-0.9,0-1.8-0.4-2.4-1c-3.6-3.5-21.6-21.4-21.6-31.7c0-11.2,25.8-18.3,33.7-20.2
		c1.9-0.5,3.8,0.7,4.3,2.5c0.5,1.9-0.7,3.8-2.5,4.3c0,0-0.1,0-0.1,0c-14.8,3.5-28.3,9.9-28.3,13.3c0,5.4,11.4,18.9,19.5,26.7
		c1.4,1.3,1.4,3.6,0.1,5C222.6,141.1,221.7,141.5,220.7,141.5L220.7,141.5z"/>
	<path class="st1" d="M256.1,192.1c-1.6,0-3-1.1-3.4-2.6c-5.4-19.6,3.6-39.1,6.6-45.5c0.2-0.5,0.5-1.1,0.6-1.4
		c0.4-1.9,2.3-3.1,4.2-2.6c1.5,0.3,2.6,1.6,2.7,3.1c0.1,1.1-0.2,1.8-1.2,3.9c-2.7,5.8-10.9,23.5-6.1,40.6c0.5,1.9-0.6,3.8-2.4,4.3
		C256.7,192.1,256.4,192.1,256.1,192.1L256.1,192.1z M259.8,143.8L259.8,143.8z"/>
	<circle class="st2" cx="280.8" cy="102.9" r="57.4"/>
	<path class="st1" d="M280.8,45.5c31.7,0,57.4,25.7,57.4,57.4s-25.7,57.4-57.4,57.4s-57.4-25.7-57.4-57.4c0,0,0,0,0,0
		C223.4,71.2,249.1,45.5,280.8,45.5C280.8,45.5,280.8,45.5,280.8,45.5 M280.8,44.7c-32.2,0-58.3,26.1-58.3,58.3s26.1,58.3,58.3,58.3
		s58.3-26.1,58.3-58.3C339,70.8,313,44.7,280.8,44.7z"/>
	<ellipse class="st1" cx="261.9" cy="88.3" rx="4.6" ry="10.8"/>
	<ellipse class="st1" cx="299.7" cy="88.3" rx="4.6" ry="10.8"/>
	<path class="st1" d="M280.8,140.5c-18.4,0-33.3-11.5-33.3-25.5c0-0.7,0.6-1.3,1.3-1.3c0.7,0,1.3,0.6,1.3,1.3
		c0,12.6,13.8,22.9,30.7,22.9s30.7-10.3,30.7-22.9c0-0.7,0.6-1.3,1.3-1.3s1.3,0.6,1.3,1.3C314.1,129,299.1,140.5,280.8,140.5z"/>
	<path class="st3" d="M350.5,59.7c0,0-15.1-15.9-16.1-19.8s3.2-4.5,6-2.3c2.8,2.2,7.8,8.2,7.8,8.2s-5.8-23.1-4.5-25.9
		c1.4-2.8,23-4.5,25.6,5.5c2.4,9.9,3.9,20.1,4.4,30.3L350.5,59.7z"/>
	<path class="st1" d="M350.5,60.2c-0.1,0-0.2,0-0.3-0.1c-0.6-0.6-15.2-16-16.2-20c-0.6-2.2,0.4-3.2,1.1-3.7c1.5-0.9,3.8-0.5,5.6,0.9
		c2.3,2.1,4.5,4.4,6.6,6.8c-1.4-5.8-5.2-21.9-4-24.4c0.9-1.8,7.5-2.8,13.5-2.2c4.2,0.4,11.4,2,12.9,7.8c3.8,14.5,4.4,30.3,4.4,30.4
		c0,0.2-0.1,0.4-0.4,0.5L350.5,60.2L350.5,60.2z M336.9,36.7c-0.5,0-1,0.1-1.4,0.4c-0.8,0.5-1,1.4-0.7,2.6c0.8,3,10.6,14,15.8,19.5
		l22.5-3.9c-0.1-2.5-0.9-16.7-4.4-29.8c-1.4-5.3-8.2-6.7-12.2-7.1c-6.1-0.6-12.1,0.6-12.6,1.7c-1,1.9,2.2,16.4,4.5,25.6
		c0.1,0.2,0,0.4-0.2,0.5c-0.2,0.1-0.4,0-0.6-0.1c-0.1-0.1-5-6-7.7-8.2C339.1,37.2,338,36.8,336.9,36.7z"/>
	<path class="st3" d="M349.6,57.7l23.1-4c1.9-0.3,3.7,1,4,2.9l0.1,0.5c0.3,1.9-1,3.7-2.9,4l-23.1,4c-1.9,0.3-3.7-1-4-2.9l-0.1-0.5
		C346.4,59.9,347.7,58.1,349.6,57.7z"/>
	<path class="st1" d="M350.2,65.6c-1.9,0-3.6-1.4-3.9-3.3l-0.1-0.5c-0.4-2.1,1.1-4.2,3.2-4.6c0,0,0,0,0,0l23.1-3.9
		c2.1-0.4,4.2,1.1,4.6,3.2c0,0,0,0,0,0l0.1,0.5c0.4,2.1-1.1,4.2-3.2,4.6c0,0,0,0,0,0l-23.1,4C350.7,65.6,350.4,65.6,350.2,65.6z
		 M373.2,54.2c-0.2,0-0.3,0-0.5,0l-23.1,3.9c-1.6,0.3-2.8,1.8-2.5,3.5c0,0,0,0,0,0l0.1,0.4c0.3,1.7,1.8,2.8,3.5,2.5c0,0,0,0,0,0
		l23.1-4l0,0c1.6-0.3,2.8-1.9,2.5-3.5l-0.1-0.5C376,55.2,374.7,54.2,373.2,54.2L373.2,54.2z"/>
	<path class="st1" d="M362.4,48.5c-0.1,0-0.3-0.1-0.3-0.2c-2.3-2.6-4.8-4.1-7.4-4.3c-2.3-0.1-4.5,0.7-6.3,2.1
		c-0.2,0.2-0.5,0.2-0.6,0s-0.2-0.5,0-0.6c0,0,0,0,0.1-0.1c1.9-1.6,4.4-2.4,7-2.3c2.9,0.2,5.6,1.8,8,4.6c0.2,0.2,0.1,0.5,0,0.6
		c0,0,0,0,0,0C362.7,48.5,362.5,48.5,362.4,48.5z"/>
	<path class="st3" d="M228.3,128.5c0,0,8.3,10.3,10.5,14.9c2.2,4.6-3.4,16.3-7.3,19.1c-3.8,2.8-19.9,3.6-20.2,0s6.8-4,6.8-4
		s-6.4-2.4-4.2-10.3l-4.4-10.9L228.3,128.5z"/>
	<path class="st1" d="M219.3,165.4c-2.8,0-5.3-0.3-6.8-1c-1-0.5-1.5-1.1-1.5-1.8c-0.1-1.2,0.5-2.8,3.6-3.8c0.7-0.2,1.4-0.4,2.2-0.5
		c-1.8-1.2-4.8-4.2-3.2-10l-4.4-10.7c-0.1-0.2,0-0.5,0.2-0.6l18.7-8.9c0.2-0.1,0.4,0,0.5,0.1c0.3,0.4,8.3,10.4,10.5,15
		c2.2,4.6-3.3,16.7-7.4,19.7C229.6,164.4,224.1,165.4,219.3,165.4z M210.1,137.5l4.3,10.5c0,0.1,0,0.2,0,0.3
		c-2.1,7.4,3.7,9.6,3.9,9.7c0.2,0.1,0.3,0.3,0.3,0.5c0,0.2-0.2,0.4-0.4,0.4c-0.1,0-6.6,0.4-6.4,3.5c0,0.4,0.4,0.8,1,1.1
		c3.8,1.8,15.3,0.9,18.4-1.4c3.8-2.8,9.2-14.2,7.1-18.6c-2-4.1-8.9-12.9-10.2-14.5L210.1,137.5z"/>
	<path class="st3" d="M206.6,136.2l20-12.1c1.7-1,3.8-0.5,4.8,1.2l0.2,0.4c1,1.7,0.5,3.8-1.2,4.8l-20,12.1c-1.7,1-3.8,0.5-4.8-1.2
		l-0.2-0.4C204.4,139.3,204.9,137.2,206.6,136.2z"/>
	<path class="st1" d="M208.7,143.6c-0.3,0-0.6,0-0.9-0.1c-1-0.3-1.9-0.9-2.4-1.8l-0.2-0.4c-1.1-1.9-0.5-4.3,1.3-5.4l20-12.1
		c1.9-1.1,4.3-0.5,5.4,1.3c0,0,0,0,0,0l0.2,0.4c1.1,1.9,0.5,4.3-1.3,5.4c0,0,0,0,0,0l-20,12.1C210.1,143.4,209.4,143.6,208.7,143.6z
		 M228.5,124c-0.6,0-1.1,0.2-1.6,0.4l-20,12.1c-1.4,0.9-1.9,2.7-1,4.2l0.2,0.4c0.9,1.4,2.7,1.9,4.2,1l20-12.1l0,0
		c1.4-0.9,1.9-2.7,1-4.2l-0.2-0.4C230.5,124.6,229.5,124,228.5,124L228.5,124z"/>
	<path class="st3" d="M266.7,185.8c0,0-24.7-4.8-24.9-2.4c-0.2,2.4,0.8,22.2,0.8,22.2s-23.7,12.7-20,14.3c3.6,1.6,44.2-5.9,44.2-5.9
		V185.8z"/>
	<path class="st1" d="M224.6,220.5c-0.8,0-1.5,0-2.2-0.3c-0.4-0.1-0.6-0.5-0.6-0.9c0-0.6-0.1-2,10.4-8.4c4.4-2.7,8.9-5.1,10-5.7
		c-0.1-2.5-1-19.7-0.8-21.9c0-0.2,0.2-0.5,0.4-0.6c2.3-1.8,21.3,1.9,25.1,2.6c0.2,0,0.4,0.2,0.4,0.4V214c0,0.2-0.2,0.4-0.4,0.4
		C263.1,215.1,233.5,220.5,224.6,220.5z M244.3,183.1c-1.1,0-1.9,0.1-2.1,0.3c-0.2,2.3,0.8,21.8,0.8,22c0,0.2-0.1,0.3-0.2,0.4
		c-10,5.4-20.2,11.8-20.2,13.4c0,0,0,0.1,0.1,0.1c2.8,1.3,32-3.7,43.5-5.8v-27.4C257.5,184.5,248.3,183.1,244.3,183.1z"/>
	<path class="st3" d="M336.1,166.8c0,0-16,3.7-19.6,18.1l21,29l28.5-39.8l-21,7.2L336.1,166.8z"/>
	<path class="st1" d="M337.5,214.3c-0.1,0-0.3-0.1-0.4-0.2l-21-29c-0.1-0.1-0.1-0.2-0.1-0.4c3.7-14.5,19.8-18.4,20-18.5
		c0.2,0,0.4,0,0.5,0.2l8.7,14.2l20.7-7.1c0.2-0.1,0.4,0,0.5,0.2c0.1,0.2,0.1,0.4,0,0.5l-28.5,39.8
		C337.8,214.3,337.6,214.3,337.5,214.3L337.5,214.3z M317,184.8l20.5,28.3l27.4-38.2l-19.7,6.8c-0.2,0.1-0.4,0-0.5-0.2l-8.7-14.2
		C333.7,167.9,320.3,172.1,317,184.8z"/>
	<path class="st0" d="M338.7,215c-7.8-6.1,0.8-15.8,8.9-26.7c5.9-7.8,16.8-17.4,22-13.2C375.7,179.8,347.9,222.2,338.7,215z"/>
	<path class="st1" d="M341.2,216.3c-1,0-2-0.3-2.8-0.9l0,0c-7.5-5.9-0.6-15,6.8-24.6c0.7-0.9,1.4-1.8,2.1-2.7
		c4.8-6.4,12.6-13.6,18.4-14.3c1.5-0.3,3.1,0.1,4.3,1c0.9,0.7,1.2,2,0.9,4c-1.3,9.2-16.6,32.8-26.9,37
		C343.1,216,342.1,216.2,341.2,216.3z M338.9,214.6c1.2,0.9,2.7,1,4.7,0.2c9.3-3.7,25-26.6,26.4-36.2c0.2-1.1,0.2-2.5-0.6-3.1
		c-1-0.8-2.4-1.1-3.6-0.9c-5.3,0.7-12.9,7.6-17.8,14l-2.1,2.7C338.5,200.9,332.2,209.3,338.9,214.6L338.9,214.6z"/>
	<ellipse class="st3" cx="241.8" cy="100.1" rx="7" ry="4.4"/>
	<ellipse class="st3" cx="319.7" cy="100.1" rx="7" ry="4.4"/>
</g>
<g>
	<path class="st1" d="M163.7,181.6h-0.2c-1.9-0.1-3.4-1.8-3.3-3.7l4.9-92.2c0.1-1.9,1.8-3.4,3.7-3.3c1.9,0.1,3.4,1.8,3.3,3.7l0,0
		l-4.9,92.2C167.1,180.1,165.5,181.6,163.7,181.6z"/>
	<path class="st1" d="M47.6,147.9c-1.7,0-3.4-0.3-5.1-0.9c-6.4-2.5-8.5-6.7-9.1-9.6c-2.2-11,11.1-24.4,12.6-25.9
		c1.4-1.4,3.6-1.4,5-0.1c1.4,1.4,1.4,3.6,0.1,5c0,0-0.1,0.1-0.1,0.1c-4.7,4.6-11.8,14-10.6,19.5c0.1,0.7,0.6,2.9,4.8,4.6
		c7.5,3,22.9-9.1,30.8-17.4c1.4-1.3,3.6-1.3,5,0.1c1.3,1.3,1.3,3.4,0.1,4.7C78.8,130.2,61.5,147.9,47.6,147.9z"/>
	<path class="st3" d="M64.4,73.1c0,0-7.9-3.8-9.9,2.9c-2,6.6-2.4,26.4-4.3,28.7c-2,2.1-4.1,4.1-6.3,6l8.5,16.9l18.9-8.5
		C71.2,119,64.6,82.2,64.4,73.1z"/>
	<path class="st1" d="M52.3,127.9c-0.2,0-0.3-0.1-0.4-0.3l-8.5-16.9c-0.1-0.2,0-0.4,0.1-0.6c2.2-1.8,4.3-3.8,6.3-5.9
		c0.9-1.1,1.5-7.2,2-13.2C52.4,85.2,53,79,54,75.8c0.4-1.6,1.5-3,3.1-3.7c3.2-1.4,7.3,0.5,7.5,0.6c0.1,0.1,0.2,0.2,0.3,0.4
		c0.3,9,6.8,45.5,6.8,45.9c0,0.2-0.1,0.4-0.3,0.5l-18.9,8.5C52.4,127.9,52.4,127.9,52.3,127.9z M44.4,110.7l8.1,16.2l18.2-8.2
		c-0.7-3.7-6.4-36.3-6.8-45.4c-0.9-0.4-4.1-1.5-6.5-0.5c-1.3,0.6-2.2,1.8-2.6,3.2c-1,3.1-1.6,9.3-2.1,15.2
		c-0.7,7.7-1.3,12.5-2.2,13.7C48.6,106.9,46.5,108.9,44.4,110.7L44.4,110.7z"/>
	<path class="st1" d="M107.3,200.9c-1.7,0-3.2-1.2-3.5-3l-11-72.2c-0.3-1.9,1-3.7,2.9-4c1.9-0.3,3.7,1,4,2.9l11.1,72.2
		c0.3,1.9-1,3.7-2.9,4c0,0,0,0,0,0C107.7,200.9,107.5,200.9,107.3,200.9z"/>
	<path class="st1" d="M128.2,200.9h-0.4c-1.9-0.2-3.3-2-3.1-3.9c0,0,0,0,0,0c2.6-22.3,6.5-58.6,6.4-63c-0.4-1.9,0.7-3.8,2.6-4.2
		c1.4-0.3,2.9,0.2,3.7,1.4c1,1.5,1.3,1.9-2.2,35c-1.7,15.7-3.5,31.5-3.5,31.6C131.5,199.6,130,200.9,128.2,200.9z M131.6,135.2
		L131.6,135.2z"/>
	<ellipse class="st4" cx="116.3" cy="218" rx="56.1" ry="6.7"/>
	<circle class="st2" cx="114.9" cy="96.6" r="57.4"/>
	<path class="st1" d="M114.9,39.2c31.7,0,57.5,25.7,57.5,57.4c0,31.7-25.7,57.5-57.4,57.5c-31.7,0-57.5-25.7-57.5-57.4
		c0-27.4,19.3-51,46.2-56.4C107.4,39.5,111.2,39.2,114.9,39.2 M114.9,38.3L114.9,38.3c-32.2,0-58.3,26-58.4,58.3
		c0,32.2,26,58.3,58.3,58.4s58.3-26,58.4-58.3S147.1,38.3,114.9,38.3z"/>
	<ellipse transform="matrix(0.9817 -0.1903 0.1903 0.9817 -14.7671 19.2711)" class="st1" cx="92.9" cy="86.5" rx="4.6" ry="10.8"/>
	<ellipse transform="matrix(0.9817 -0.1903 0.1903 0.9817 -12.7241 26.1935)" class="st1" cx="130" cy="79.3" rx="4.6" ry="10.8"/>
	<path class="st1" d="M90.6,139.7c-0.6,0-1.2-0.4-1.3-1.1c-1.3-6.8,0.9-13.8,6.1-19.7c5.3-6,12.9-10.1,21.6-11.8
		c18-3.6,34.9,4.8,37.6,18.6c0.1,0.7-0.3,1.4-1.1,1.6c-0.7,0.1-1.4-0.3-1.6-1.1c-2.5-12.4-17.9-19.8-34.5-16.5
		c-8.1,1.6-15.2,5.5-20.1,10.9c-4.8,5.4-6.7,11.6-5.6,17.5c0.1,0.7-0.3,1.4-1,1.5L90.6,139.7z"/>
	<path class="st3" d="M45.2,109.4l8.7,17.6c0.8,1.6,0.1,3.6-1.5,4.4l-0.9,0.4c-1.6,0.8-3.6,0.1-4.4-1.5l-8.7-17.6
		c-0.8-1.6-0.1-3.6,1.5-4.4l0.9-0.4C42.4,107.1,44.4,107.8,45.2,109.4z"/>
	<path class="st1" d="M50.1,132.5c-1.4,0-2.7-0.8-3.3-2.1l0,0l-8.7-17.5c-0.9-1.8-0.2-4.1,1.7-5c0,0,0,0,0,0l0.9-0.4
		c0.9-0.4,1.9-0.5,2.8-0.2c0.9,0.3,1.7,1,2.1,1.9l8.7,17.5c0.9,1.8,0.2,4.1-1.7,5c0,0,0,0,0,0l-0.9,0.4
		C51.2,132.4,50.7,132.5,50.1,132.5z M47.6,130c0.7,1.4,2.4,1.9,3.8,1.3l0.9-0.4c1.4-0.7,2-2.4,1.3-3.8l-8.7-17.5
		c-0.3-0.7-0.9-1.2-1.6-1.4c-0.7-0.2-1.5-0.2-2.1,0.1l-0.9,0.4c-1.4,0.7-2,2.4-1.3,3.7c0,0,0,0,0,0L47.6,130z"/>
	<ellipse transform="matrix(0.9809 -0.1946 0.1946 0.9809 -18.273 16.7498)" class="st3" cx="76.1" cy="101.4" rx="7" ry="4.4"/>
	<ellipse transform="matrix(0.9809 -0.1946 0.1946 0.9809 -13.8295 31.6712)" class="st3" cx="154.3" cy="86.2" rx="7" ry="4.4"/>
	<path class="st5" d="M82.2,81.8c0,0,12-5.3,13.5-13.3"/>
	<path class="st1" d="M82.2,83.1c-0.7,0.1-1.4-0.5-1.4-1.2c0-0.6,0.3-1.1,0.9-1.3c0.1-0.1,11.4-5.1,12.7-12.3
		c0.1-0.7,0.8-1.2,1.6-1.1c0.7,0.1,1.2,0.8,1.1,1.6c-1.6,8.6-13.7,14-14.2,14.2C82.6,83,82.4,83.1,82.2,83.1z"/>
	<path class="st5" d="M138.9,70.9c0,0-13.1-0.3-17.5-7.1"/>
	<path class="st1" d="M138.9,72.2L138.9,72.2c-0.6,0-13.8-0.4-18.6-7.7c-0.5-0.6-0.4-1.4,0.2-1.9c0.6-0.5,1.4-0.4,1.9,0.2
		c0.1,0.1,0.1,0.1,0.1,0.2c4,6.1,16.3,6.5,16.5,6.5c0.7,0,1.3,0.6,1.3,1.3S139.6,72.2,138.9,72.2L138.9,72.2z"/>
	<path class="st3" d="M53.1,106.5c0,0-0.3-15.1,3.2-20.6s11.2-7.5,9.5-1.6c-1.6,5.9-6.1,13-6.1,13s3.3,12.7-0.8,20.2"/>
	<path class="st1" d="M58.9,118c-0.1,0-0.2,0-0.2-0.1c-0.2-0.1-0.3-0.4-0.2-0.6c4-7.3,0.8-19.8,0.8-19.9c0-0.1,0-0.3,0.1-0.4
		c0.1-0.1,4.5-7.1,6.1-12.9c0.3-1.1,0.4-2.4-0.6-2.8c-1.8-0.8-5.9,1.3-8.1,4.8c-3.4,5.3-3.1,20.2-3.1,20.4c0,0.2-0.2,0.5-0.4,0.5
		c0,0,0,0,0,0l0,0c-0.2,0-0.4-0.2-0.5-0.4c0-0.6-0.3-15.3,3.3-20.9c2.4-3.7,6.9-6.2,9.3-5.2c0.7,0.3,1.8,1.3,1.1,3.9
		c-1.5,5.5-5.4,11.9-6.1,13c0.4,1.7,3,13.2-0.9,20.4C59.2,117.9,59,118,58.9,118z"/>
	<path class="st3" d="M172.5,163.4c0,0-2.4,13.5-2.6,17.7c-0.2,4.2-6.5,20.6-14.6,21.6s4.1-8.1,3.9-14c-0.2-5.9-4.8-0.7-6.5,5.5
		c-1.7,6.2-5-0.3-3.5-6c1.5-5.7,2.3-5.8,2.8-10.5c0.5-4.7-0.3-19.7-0.3-19.7L172.5,163.4z"/>
	<path class="st1" d="M154.2,203.2c-1,0-1.7-0.2-2-0.8c-0.7-1.2,0.6-3,2.5-5.6c1.8-2.6,4.1-5.7,4-8.2c-0.1-1.5-0.4-2.1-0.7-2.2
		c-1.1-0.1-3.6,3.1-4.9,7.7c-0.7,2.6-1.8,3-2.5,2.8c-1.8-0.5-3-4.9-1.9-9c0.6-2.3,1.1-3.7,1.5-4.8c0.7-1.8,1.1-3.6,1.3-5.5
		c0.5-4.6-0.3-19.5-0.3-19.7c0-0.1,0.1-0.3,0.2-0.4c0.1-0.1,0.3-0.1,0.4-0.1l20.9,5.4c0.2,0.1,0.4,0.3,0.3,0.5
		c0,0.1-2.4,13.5-2.6,17.6c-0.2,4.1-6.5,21-15,22C154.9,203.1,154.6,203.2,154.2,203.2z M157.9,185.6h0.2c0.9,0.1,1.5,1.1,1.5,3
		c0.1,2.7-2.2,5.9-4.2,8.7c-1.3,1.9-2.8,4-2.4,4.6c0.1,0.1,0.5,0.5,2.2,0.2c7.8-1,14-17.4,14.2-21.2s2.2-15,2.6-17.3l-19.9-5.2
		c0.1,2.9,0.7,15,0.3,19.2c-0.2,2-0.6,3.9-1.3,5.7c-0.4,1.1-0.9,2.5-1.5,4.8c-1,3.8,0.2,7.6,1.3,7.9c0.3,0.1,0.9-0.4,1.4-2.2
		C153.3,189.9,155.9,185.6,157.9,185.6z"/>
	<path class="st3" d="M173.9,167.1l-22.6-6.1c-1.9-0.5-3-2.4-2.5-4.3l0.1-0.4c0.5-1.9,2.4-3,4.3-2.5l22.6,6.1c1.9,0.5,3,2.4,2.5,4.3
		l-0.1,0.4C177.7,166.5,175.8,167.6,173.9,167.1z"/>
	<path class="st1" d="M174.9,167.7c-0.3,0-0.7-0.1-1-0.1l-22.6-6.1c-2.1-0.6-3.3-2.7-2.8-4.8l0.1-0.4c0.6-2.1,2.7-3.3,4.8-2.8l0,0
		l22.6,6.1c2.1,0.6,3.3,2.7,2.8,4.8c0,0,0,0,0,0l-0.1,0.5C178.2,166.5,176.6,167.7,174.9,167.7L174.9,167.7z M152.4,154.1
		c-1.4,0-2.6,0.9-2.9,2.3l-0.1,0.4c-0.4,1.6,0.5,3.3,2.1,3.7c0,0,0,0,0,0l22.6,6.1c1.6,0.4,3.3-0.5,3.7-2.1c0,0,0,0,0,0l0.1-0.5
		c0.4-1.6-0.5-3.3-2.1-3.7c0,0,0,0-0.1,0l-22.6-6.1C152.9,154.1,152.6,154.1,152.4,154.1L152.4,154.1z"/>
	<path class="st3" d="M116.3,186c0,0-24.7-4.8-24.9-2.4c-0.2,2.4,0.8,22.2,0.8,22.2s-23.7,12.7-20,14.3c3.6,1.6,44.2-5.9,44.2-5.9
		V186z"/>
	<path class="st1" d="M74.2,220.7c-0.8,0-1.5,0-2.2-0.3c-0.4-0.1-0.6-0.5-0.6-0.9c0-0.6-0.1-2,10.4-8.4c4.4-2.7,8.9-5.1,10-5.7
		c-0.1-2.5-1-19.6-0.8-21.9c0-0.2,0.2-0.5,0.4-0.6c2.3-1.8,21.3,1.9,25.1,2.6c0.2,0,0.4,0.2,0.4,0.4v28.2c0,0.2-0.2,0.4-0.4,0.4
		C112.7,215.3,83.1,220.7,74.2,220.7z M93.9,183.3c-1.1,0-1.9,0.1-2.1,0.3c-0.2,2.3,0.8,21.9,0.8,22.1c0,0.2-0.1,0.3-0.2,0.4
		c-10,5.4-20.2,11.8-20.2,13.4c0,0,0,0.1,0.1,0.1c2.8,1.3,32-3.7,43.5-5.8v-27.4C107.1,184.6,97.9,183.3,93.9,183.3L93.9,183.3z"/>
	<path class="st3" d="M119,186c0,0,24.7-4.8,24.9-2.4s-0.8,22.2-0.8,22.2s23.7,12.7,20,14.3c-3.6,1.6-44.2-5.9-44.2-5.9V186z"/>
	<path class="st1" d="M161.2,220.7c-8.9,0-38.5-5.4-42.2-6.1c-0.2,0-0.4-0.2-0.4-0.4V186c0-0.2,0.2-0.4,0.4-0.4
		c3.8-0.7,22.8-4.4,25.1-2.6c0.2,0.1,0.3,0.4,0.4,0.6c0.2,2.3-0.7,19.4-0.8,21.9c4,2.1,20.5,11.3,20.4,14.1c0,0.4-0.3,0.7-0.6,0.9
		C162.7,220.6,161.9,220.7,161.2,220.7z M119.5,213.8c11.5,2.1,40.7,7.1,43.5,5.8c0.1,0,0.1-0.1,0.1-0.1c0.1-1.6-10.2-8.1-20.2-13.4
		c-0.2-0.1-0.2-0.2-0.2-0.4c0-0.2,1-19.7,0.8-22.1c-0.9-1-12.8,0.6-24.1,2.8L119.5,213.8z"/>
	<path class="st3" d="M54.3,33.6c-1.4-2.5-4.8-3.3-7.6-2.6c-2.8,0.7-5.1,2.6-7.1,4.7c-0.7,0.5-1.1,1.3-1.3,2.1
		c-0.1,0.9,0.8,1.8,1.6,1.5c-3.8-0.7-7,3-8.7,6.5c-0.9,1.8-1.6,3.8-0.8,5.5c0.8,1.7,2.9,2.6,4.9,2.8c3.7,0.4,7.5-0.7,10.4-3
		c3.8,3.7,9.9,3.6,13.6-0.2c1-1,1.8-2.3,2.2-3.7c-0.7,0.5,0.4,1.4,1.3,1.4c2.1,0.1,4.3,0.2,6.2-0.5c4.4-1.8,5-12.4,2-15.9
		C68,28.5,56.3,28.7,54.3,33.6z"/>
	<path class="st0" d="M36.9,54.7c-0.5,0-1.1,0-1.6-0.1c-2.6-0.3-4.5-1.4-5.3-3.1c-0.9-2-0.1-4.2,0.8-5.9c0.8-1.7,3.4-6.3,7.3-6.8
		c-0.2-0.3-0.2-0.7-0.2-1c0.2-0.9,0.6-1.8,1.4-2.4c1.8-1.8,4.2-4,7.3-4.8c2.6-0.6,5.9,0,7.7,2.2c1.1-1.6,3.3-2.8,6.3-3.3
		c3.9-0.6,8.9,0.1,10.9,2.5c1.9,2.2,2.5,7.2,1.5,11.4c-0.7,2.7-2,4.6-3.6,5.3c-2.1,0.8-4.4,0.7-6.4,0.6c-0.5,0-0.9-0.2-1.3-0.5
		c-2.4,5-8.4,7.1-13.4,4.8c-0.9-0.4-1.7-1-2.4-1.6C43.2,53.6,40.1,54.7,36.9,54.7z M39,39.6c-3.2,0-5.9,3.2-7.4,6.4
		c-0.7,1.5-1.5,3.5-0.8,5.1c0.9,2,3.5,2.5,4.5,2.6c3.6,0.4,7.3-0.7,10.1-2.9c0.2-0.1,0.4-0.1,0.6,0c3.6,3.6,9.4,3.5,12.9-0.1
		c0.8-0.9,1.5-1.9,2-3c0-0.4,0.1-0.7,0.4-0.9c0.2-0.1,0.4-0.1,0.5,0c0.2,0.1,0.2,0.3,0.1,0.5c0,0.1-0.1,0.2-0.1,0.4
		c0.3,0.3,0.6,0.4,1,0.5c1.9,0.1,4.1,0.2,6-0.5c1.4-0.6,2.5-2.2,3.1-4.6c1-3.9,0.4-8.6-1.3-10.6c-1.7-2-6-2.7-10.1-2.1
		c-3.1,0.5-5.3,1.8-6,3.4c-0.1,0.2-0.2,0.3-0.4,0.3c-0.2,0-0.3-0.1-0.4-0.2c-1.4-2.4-4.6-3.1-7.1-2.4c-2.9,0.7-5.2,2.8-6.9,4.6
		c-0.6,0.5-1,1.1-1.1,1.9c0,0.3,0.2,0.7,0.4,0.9l0,0c0.2,0,0.5,0,0.7,0.1c0.2,0,0.4,0.2,0.4,0.4c0,0.2-0.1,0.4-0.3,0.5
		C39.7,39.7,39.3,39.7,39,39.6L39,39.6z"/>
	<path class="st0" d="M61.5,47.7c-0.5,0-1,0-1.5-0.1c-1.8-0.3-4.1-1-4.7-3c-0.1-0.2,0.1-0.5,0.3-0.6c0.2-0.1,0.5,0.1,0.6,0.3
		c0.5,1.6,2.7,2.2,4,2.4c0.9,0.2,1.9,0.1,2.8-0.1c0.7-0.3,1.4-0.8,1.9-1.5c0.8-0.9,1.4-2,1.8-3.1c0.1-0.2,0.3-0.4,0.6-0.3
		c0.2,0.1,0.4,0.3,0.3,0.6c-0.4,1.2-1.1,2.4-1.9,3.4c-0.6,0.8-1.4,1.4-2.2,1.8C62.7,47.6,62.1,47.7,61.5,47.7z"/>
	<path class="st3" d="M156.2,32.3c-3.3-0.7-6.5,1.3-7.3,4.6c-0.6,2.7,0.7,5.6,3.3,6.8c0.7,0.2,1.4,0.5,1.9,1c0.4,0.4,0.7,0.9,1,1.4
		c1.8,2.9,5.8,4.1,9.2,3.4c3.4-0.7,6.3-3,8.6-5.6c-0.6,0.5-0.6,1.5-0.1,2.1c0.6,0.6,1.3,1,2.1,1.1c2.4,0.6,5.1,0.9,7.3-0.3
		c2.3-1.1,3.5-3.6,2.9-6c0.4,1.5,2.3,0.9,3,0.2c0.9-0.9,0.8-3.4,0.6-4.5c-0.4-3.4-3.6-6.9-7.3-6.6c-0.7,0.1-1.5,0.2-2.2,0.1
		c-1.2-0.3-2-1.5-3.1-2c-1.4-0.6-2.9-0.4-4.2,0.4c-1.2,0.8-2.3,1.9-3.1,3.1c-0.5-1.2-2.1-1.5-3.5-1.5c-3.5,0-5.5,0.8-7.9,3
		C157,32.7,156.6,32.5,156.2,32.3z"/>
	<path class="st0" d="M162.4,50.2c-3,0.1-5.9-1.4-7.6-3.8c-0.1-0.1-0.1-0.2-0.2-0.4c-0.4-0.8-1.1-1.4-2-1.6l-0.5-0.2
		c-3.3-1.5-4.8-5.3-3.3-8.6c1.3-2.9,4.5-4.4,7.5-3.7l0,0c0.4,0.1,0.7,0.3,1,0.5l0,0c2.3-2.1,4.4-2.9,8-2.9c1.6,0,2.8,0.4,3.5,1.2
		c0.8-1.1,1.7-2,2.8-2.7c1.4-0.9,3.1-1.1,4.6-0.4c0.5,0.3,0.9,0.6,1.3,1c0.7,0.9,1.9,1.3,3.1,1l0.7-0.1c4-0.3,7.3,3.4,7.8,7
		c0,0.1,0.5,3.7-0.8,4.9c-0.7,0.6-1.6,0.9-2.6,0.8h-0.1c-0.1,2.2-1.3,4.1-3.3,5.1c-2,1-4.6,1.1-7.6,0.3c-0.9-0.2-1.6-0.6-2.3-1.2
		c-0.2-0.2-0.3-0.5-0.4-0.8c-2.1,2.2-4.7,3.8-7.6,4.5C163.7,50.1,163.1,50.2,162.4,50.2z M154.8,32.6c-2.4,0-4.6,1.5-5.5,3.8
		c-0.9,2.8,0.4,5.7,3.1,7l0.5,0.2c1.1,0.3,1.9,1,2.4,2l0.2,0.3c1.6,2.6,5.3,3.9,8.7,3.2c3.1-0.8,5.9-2.6,8-5.1
		c0.1-0.2,0.3-0.3,0.4-0.5c0.2-0.1,0.5-0.1,0.6,0.1c0.1,0.2,0.1,0.4,0,0.5l-0.3,0.3c0,0.1-0.1,0.2-0.1,0.2c0,0.3,0.1,0.7,0.3,0.9
		c0.5,0.5,1.1,0.8,1.8,0.9c2.8,0.8,5.1,0.7,6.9-0.2c2.1-1,3.2-3.3,2.6-5.5l0,0c-0.1-0.2,0.1-0.5,0.3-0.6c0.2-0.1,0.5,0.1,0.6,0.3
		l0,0c0.1,0.3,0.3,0.5,0.5,0.6c0.6,0.1,1.2-0.1,1.7-0.6c0.6-0.6,0.7-2.8,0.5-4.1c-0.4-3.2-3.4-6.5-6.8-6.2l-0.6,0.1
		c-1.4,0.4-2.8-0.1-3.8-1.2c-0.4-0.3-0.7-0.6-1.2-0.9c-1.2-0.5-2.6-0.4-3.7,0.4c-1.2,0.8-2.1,1.8-2.9,3c-0.2,0.2-0.4,0.2-0.6,0.1
		c-0.1,0-0.1-0.1-0.1-0.2c-0.5-1.1-2.1-1.3-3-1.2c-3.5,0-5.3,0.7-7.6,2.9c-0.1,0.1-0.4,0.2-0.5,0.1l-0.4-0.2
		c-0.2-0.2-0.4-0.3-0.7-0.4l0,0C155.7,32.6,155.3,32.6,154.8,32.6z"/>
	<path class="st0" d="M173.8,44.6c-0.3,0-0.6,0-0.9-0.1c-2.9-0.4-5.3-2.5-6.1-5.4c-0.1-0.2,0.1-0.5,0.3-0.6c0,0,0,0,0,0
		c0.2-0.1,0.5,0.1,0.6,0.3c0.9,3.4,4.4,5.4,7.8,4.5c1.6-0.4,3-1.5,3.9-3c0.1-0.2,0.4-0.3,0.6-0.2c0,0,0,0,0,0
		c0.2,0.1,0.3,0.4,0.2,0.6C178.9,43.3,176.4,44.6,173.8,44.6z"/>
	<path class="st3" d="M155.4,37.2c-0.3-1.9,0.9-3.7,2.8-4.1c0.7-0.1,1.4,0,2.1,0.3"/>
	<path class="st0" d="M155.4,37.6c-0.2,0-0.4-0.2-0.4-0.4c-0.4-2.1,1-4.2,3.2-4.6c0.8-0.1,1.6,0,2.4,0.3c0.2,0.1,0.3,0.4,0.2,0.6
		c-0.1,0.2-0.4,0.3-0.6,0.2c-1.5-0.7-3.3-0.1-4,1.5c-0.3,0.6-0.4,1.2-0.2,1.8C155.9,37.3,155.8,37.5,155.4,37.6L155.4,37.6z"/>
	<path class="st0" d="M46.9,57.6c0-0.2-0.2-0.4-0.4-0.4c-0.2,0-0.4,0.2-0.4,0.4c0.1,1.3,0.3,2.6,0.5,4c0,0.2,0.2,0.4,0.4,0.4
		c0.2,0,0.4-0.2,0.4-0.4C47.2,60.2,47,58.9,46.9,57.6z"/>
	<path class="st0" d="M55.6,63.3c-0.1-0.2-0.4-0.3-0.6-0.2c-0.2,0.1-0.3,0.4-0.2,0.6l0,0c0.1,0.2,0.2,0.3,0.3,0.5v0.1l0,0v0.1
		c0,0.1,0.1,0.2,0.1,0.3c0.1,0.2,0.1,0.4,0.1,0.6v0.1c0,0,0,0.1,0,0.1c0,0,0,0.2,0,0.3c0,0.2,0.2,0.4,0.4,0.4c0.2,0,0.4-0.2,0.4-0.4
		C56.3,64.9,56,64.1,55.6,63.3z"/>
	<path class="st0" d="M62.6,59.8c-0.1-0.7-0.2-1.3-0.3-2c-0.1-0.2-0.3-0.4-0.5-0.3c-0.2,0.1-0.4,0.3-0.3,0.5c0.1,0.7,0.2,1.3,0.3,2
		c0.1,0.2,0.3,0.4,0.5,0.3C62.6,60.2,62.7,60,62.6,59.8z"/>
	<path class="st0" d="M164,57.5l-0.7-2.3c-0.1-0.2-0.3-0.4-0.6-0.3c-0.2,0.1-0.4,0.3-0.3,0.6l0.7,2.3c0.1,0.2,0.3,0.4,0.6,0.3
		C163.9,58,164.1,57.7,164,57.5L164,57.5z"/>
	<path class="st0" d="M173.1,60.1c-0.2,0-0.4,0.2-0.4,0.4v2.6c0,0.2,0.2,0.4,0.4,0.4c0.2,0,0.4-0.2,0.4-0.4v-2.6
		C173.5,60.3,173.4,60.1,173.1,60.1z"/>
	<path class="st0" d="M181.8,60.5c0-0.2-0.2-0.4-0.4-0.4c-0.2,0-0.5,0.2-0.4,0.4l0.5,4c0,0.2,0.2,0.4,0.4,0.4s0.4-0.2,0.4-0.4
		L181.8,60.5z"/>
	<path class="st0" d="M177.7,79.9c-0.2,0-0.4,0.2-0.4,0.4v1.6c0,0.2,0.2,0.4,0.4,0.4c0.2,0,0.4-0.2,0.4-0.4v-1.6
		C178.2,80.1,178,79.9,177.7,79.9z"/>
	<path class="st0" d="M186.7,89.1c-0.3-1.1-0.7-2.2-1-3.3c-0.1-0.2-0.3-0.4-0.5-0.3c-0.2,0.1-0.4,0.3-0.3,0.5c0.3,1.1,0.7,2.2,1,3.3
		c0.1,0.2,0.3,0.4,0.6,0.3C186.7,89.6,186.8,89.3,186.7,89.1L186.7,89.1z"/>
	<path class="st0" d="M40.5,67.8c0-0.2-0.2-0.4-0.4-0.4c-0.2,0-0.4,0.2-0.4,0.4c0.1,1,0.2,2,0.3,3c0,0.2,0.2,0.4,0.4,0.4
		c0.2,0,0.4-0.2,0.4-0.4C40.7,69.8,40.6,68.8,40.5,67.8z"/>
	<path class="st0" d="M44.8,86.8c-0.3-1.3-0.4-2.6-0.3-3.8c0-0.2-0.2-0.4-0.4-0.4c-0.2,0-0.4,0.2-0.4,0.4c-0.2,1.4-0.1,2.7,0.3,4.1
		c0.1,0.2,0.3,0.4,0.5,0.3C44.7,87.3,44.9,87,44.8,86.8z"/>
	<path class="st0" d="M49.3,71.6c-0.2,0-0.4,0.2-0.4,0.4v2c0,0.2,0.2,0.4,0.4,0.4c0.2,0,0.4-0.2,0.4-0.4v-2
		C49.8,71.8,49.6,71.6,49.3,71.6z"/>
</g>
</svg>
