<?xml version="1.0" encoding="utf-8"?>
<!-- Generator: Adobe Illustrator 25.3.1, SVG Export Plug-In . SVG Version: 6.00 Build 0)  -->
<svg version="1.1" id="Ebene_1" xmlns="http://www.w3.org/2000/svg" xmlns:xlink="http://www.w3.org/1999/xlink" x="0px" y="0px"
	 viewBox="0 0 239.2 246.8" style="enable-background:new 0 0 239.2 246.8;" xml:space="preserve">
<style type="text/css">
	.st0{fill:#FFFFFF;}
	.st1{fill:#D1D3D4;}
	.st2{fill:#231F20;}
	.st3{fill:#63C2DE;}
</style>
<g id="_119_analyzing_process_flatline">
	<rect x="0.5" y="0.5" class="st0" width="238.2" height="209.8"/>
	<path class="st1" d="M238.7,210.9H0.5c-0.3,0-0.5-0.2-0.5-0.5V0.5C0,0.2,0.2,0,0.5,0h238.2c0.3,0,0.5,0.2,0.5,0.5v209.8
		C239.2,210.6,239,210.9,238.7,210.9z M1,209.8h237.2V1H1V209.8z"/>
	<path class="st1" d="M218.1,149.7h-3c-0.3,0-0.5-0.2-0.5-0.5c0-0.3,0.2-0.5,0.5-0.5h3c0.3,0,0.5,0.2,0.5,0.5
		C218.6,149.5,218.4,149.7,218.1,149.7z M212,149.7h-3c-0.3,0-0.5-0.2-0.5-0.5c0-0.3,0.2-0.5,0.5-0.5h3c0.3,0,0.5,0.2,0.5,0.5
		C212.5,149.5,212.3,149.7,212,149.7z M205.9,149.7h-3c-0.3,0-0.5-0.2-0.5-0.5c0-0.3,0.2-0.5,0.5-0.5h3c0.3,0,0.5,0.2,0.5,0.5
		C206.5,149.5,206.2,149.7,205.9,149.7z M199.9,149.7h-3c-0.3,0-0.5-0.2-0.5-0.5c0-0.3,0.2-0.5,0.5-0.5h3c0.3,0,0.5,0.2,0.5,0.5
		C200.4,149.5,200.1,149.7,199.9,149.7z M193.8,149.7h-3c-0.3,0-0.5-0.2-0.5-0.5c0-0.3,0.2-0.5,0.5-0.5h3c0.3,0,0.5,0.2,0.5,0.5
		C194.3,149.5,194,149.7,193.8,149.7z M187.7,149.7h-3c-0.3,0-0.5-0.2-0.5-0.5c0-0.3,0.2-0.5,0.5-0.5h3c0.3,0,0.5,0.2,0.5,0.5
		C188.2,149.5,188,149.7,187.7,149.7z M181.6,149.7h-3c-0.3,0-0.5-0.2-0.5-0.5c0-0.3,0.2-0.5,0.5-0.5h3c0.3,0,0.5,0.2,0.5,0.5
		C182.1,149.5,181.9,149.7,181.6,149.7z M175.5,149.7h-3c-0.3,0-0.5-0.2-0.5-0.5c0-0.3,0.2-0.5,0.5-0.5h3c0.3,0,0.5,0.2,0.5,0.5
		C176,149.5,175.8,149.7,175.5,149.7z M169.4,149.7h-3c-0.3,0-0.5-0.2-0.5-0.5c0-0.3,0.2-0.5,0.5-0.5h3c0.3,0,0.5,0.2,0.5,0.5
		C169.9,149.5,169.7,149.7,169.4,149.7z M163.3,149.7h-3c-0.3,0-0.5-0.2-0.5-0.5c0-0.3,0.2-0.5,0.5-0.5h3c0.3,0,0.5,0.2,0.5,0.5
		C163.8,149.5,163.6,149.7,163.3,149.7z M157.2,149.7h-3c-0.3,0-0.5-0.2-0.5-0.5c0-0.3,0.2-0.5,0.5-0.5h3c0.3,0,0.5,0.2,0.5,0.5
		C157.7,149.5,157.5,149.7,157.2,149.7z M151.1,149.7h-3c-0.3,0-0.5-0.2-0.5-0.5c0-0.3,0.2-0.5,0.5-0.5h3c0.3,0,0.5,0.2,0.5,0.5
		C151.6,149.5,151.4,149.7,151.1,149.7z M145,149.7h-3c-0.3,0-0.5-0.2-0.5-0.5c0-0.3,0.2-0.5,0.5-0.5h3c0.3,0,0.5,0.2,0.5,0.5
		C145.6,149.5,145.3,149.7,145,149.7z M139,149.7h-3c-0.3,0-0.5-0.2-0.5-0.5c0-0.3,0.2-0.5,0.5-0.5h3c0.3,0,0.5,0.2,0.5,0.5
		C139.5,149.5,139.2,149.7,139,149.7z M132.9,149.7h-3c-0.3,0-0.5-0.2-0.5-0.5c0-0.3,0.2-0.5,0.5-0.5h3c0.3,0,0.5,0.2,0.5,0.5
		C133.4,149.5,133.1,149.7,132.9,149.7z M126.8,149.7h-3c-0.3,0-0.5-0.2-0.5-0.5c0-0.3,0.2-0.5,0.5-0.5h3c0.3,0,0.5,0.2,0.5,0.5
		C127.3,149.5,127.1,149.7,126.8,149.7z M120.7,149.7h-3c-0.3,0-0.5-0.2-0.5-0.5c0-0.3,0.2-0.5,0.5-0.5h3c0.3,0,0.5,0.2,0.5,0.5
		C121.2,149.5,121,149.7,120.7,149.7z M114.6,149.7h-3c-0.3,0-0.5-0.2-0.5-0.5c0-0.3,0.2-0.5,0.5-0.5h3c0.3,0,0.5,0.2,0.5,0.5
		C115.1,149.5,114.9,149.7,114.6,149.7z M108.5,149.7h-3c-0.3,0-0.5-0.2-0.5-0.5c0-0.3,0.2-0.5,0.5-0.5h3c0.3,0,0.5,0.2,0.5,0.5
		C109,149.5,108.8,149.7,108.5,149.7z M102.4,149.7h-3c-0.3,0-0.5-0.2-0.5-0.5c0-0.3,0.2-0.5,0.5-0.5h3c0.3,0,0.5,0.2,0.5,0.5
		C102.9,149.5,102.7,149.7,102.4,149.7z M96.3,149.7h-3c-0.3,0-0.5-0.2-0.5-0.5c0-0.3,0.2-0.5,0.5-0.5h3c0.3,0,0.5,0.2,0.5,0.5
		C96.8,149.5,96.6,149.7,96.3,149.7z M90.2,149.7h-3c-0.3,0-0.5-0.2-0.5-0.5c0-0.3,0.2-0.5,0.5-0.5h3c0.3,0,0.5,0.2,0.5,0.5
		C90.7,149.5,90.5,149.7,90.2,149.7z M84.1,149.7h-3c-0.3,0-0.5-0.2-0.5-0.5c0-0.3,0.2-0.5,0.5-0.5h3c0.3,0,0.5,0.2,0.5,0.5
		C84.7,149.5,84.4,149.7,84.1,149.7z M78.1,149.7h-3c-0.3,0-0.5-0.2-0.5-0.5c0-0.3,0.2-0.5,0.5-0.5h3c0.3,0,0.5,0.2,0.5,0.5
		C78.6,149.5,78.3,149.7,78.1,149.7z M72,149.7h-3c-0.3,0-0.5-0.2-0.5-0.5c0-0.3,0.2-0.5,0.5-0.5h3c0.3,0,0.5,0.2,0.5,0.5
		C72.5,149.5,72.2,149.7,72,149.7z M65.9,149.7h-3c-0.3,0-0.5-0.2-0.5-0.5c0-0.3,0.2-0.5,0.5-0.5h3c0.3,0,0.5,0.2,0.5,0.5
		C66.4,149.5,66.2,149.7,65.9,149.7z M59.8,149.7h-3c-0.3,0-0.5-0.2-0.5-0.5c0-0.3,0.2-0.5,0.5-0.5h3c0.3,0,0.5,0.2,0.5,0.5
		C60.3,149.5,60.1,149.7,59.8,149.7z M53.7,149.7h-3c-0.3,0-0.5-0.2-0.5-0.5c0-0.3,0.2-0.5,0.5-0.5h3c0.3,0,0.5,0.2,0.5,0.5
		C54.2,149.5,54,149.7,53.7,149.7z M47.6,149.7h-3c-0.3,0-0.5-0.2-0.5-0.5c0-0.3,0.2-0.5,0.5-0.5h3c0.3,0,0.5,0.2,0.5,0.5
		C48.1,149.5,47.9,149.7,47.6,149.7z M41.5,149.7h-3c-0.3,0-0.5-0.2-0.5-0.5c0-0.3,0.2-0.5,0.5-0.5h3c0.3,0,0.5,0.2,0.5,0.5
		C42,149.5,41.8,149.7,41.5,149.7z M35.4,149.7h-3c-0.3,0-0.5-0.2-0.5-0.5c0-0.3,0.2-0.5,0.5-0.5h3c0.3,0,0.5,0.2,0.5,0.5
		C35.9,149.5,35.7,149.7,35.4,149.7z M29.3,149.7h-3c-0.3,0-0.5-0.2-0.5-0.5c0-0.3,0.2-0.5,0.5-0.5h3c0.3,0,0.5,0.2,0.5,0.5
		C29.8,149.5,29.6,149.7,29.3,149.7z M23.2,149.7h-3c-0.3,0-0.5-0.2-0.5-0.5c0-0.3,0.2-0.5,0.5-0.5h3c0.3,0,0.5,0.2,0.5,0.5
		C23.8,149.5,23.5,149.7,23.2,149.7z"/>
	<path class="st1" d="M198.6,132.3L198.6,132.3c-0.2,0-0.4-0.1-0.5-0.3L158.3,20.9h-42L71,50.1L43.3,94.5c-0.1,0.2-0.5,0.3-0.7,0.2
		L19.9,81c-0.3-0.1-0.4-0.4-0.2-0.7c0.1-0.3,0.4-0.4,0.7-0.2c0,0,0,0,0.1,0l22.2,13.4l27.5-44.1c0-0.1,0.1-0.1,0.2-0.2L115.9,20
		c0.1-0.1,0.2-0.1,0.3-0.1h42.5c0.2,0,0.4,0.1,0.5,0.3l39.6,110.3l19.8-42c0.1-0.3,0.4-0.4,0.7-0.2c0.3,0.1,0.4,0.4,0.2,0.7
		c0,0,0,0,0,0l-20.4,43.1C199,132.2,198.8,132.3,198.6,132.3z"/>
	<circle class="st0" cx="42.8" cy="94.1" r="5.4"/>
	<path class="st1" d="M42.8,100c-3.2,0-5.9-2.6-5.9-5.9s2.6-5.9,5.9-5.9c3.2,0,5.9,2.6,5.9,5.9c0,0,0,0,0,0
		C48.7,97.3,46.1,100,42.8,100C42.8,100,42.8,100,42.8,100z M42.8,89.2c-2.7,0-4.9,2.2-4.9,4.9c0,2.7,2.2,4.9,4.9,4.9
		c2.7,0,4.9-2.2,4.9-4.9c0,0,0,0,0,0C47.7,91.4,45.5,89.2,42.8,89.2z"/>
	<circle class="st0" cx="70.6" cy="49.7" r="5.4"/>
	<path class="st1" d="M70.6,55.6c-3.2,0-5.9-2.6-5.9-5.9c0-3.2,2.6-5.9,5.9-5.9c3.2,0,5.9,2.6,5.9,5.9c0,0,0,0,0,0
		C76.5,53,73.8,55.6,70.6,55.6z M70.6,44.9c-2.7,0-4.9,2.2-4.9,4.9s2.2,4.9,4.9,4.9c2.7,0,4.9-2.2,4.9-4.9c0,0,0,0,0,0
		C75.4,47,73.3,44.9,70.6,44.9z"/>
	<circle class="st0" cx="158.6" cy="20.4" r="5.4"/>
	<path class="st1" d="M158.6,26.3c-3.2,0-5.9-2.6-5.9-5.9c0-3.2,2.6-5.9,5.9-5.9c3.2,0,5.9,2.6,5.9,5.9c0,0,0,0,0,0
		C164.5,23.6,161.9,26.3,158.6,26.3z M158.6,15.5c-2.7,0-4.9,2.2-4.9,4.9c0,2.7,2.2,4.9,4.9,4.9c2.7,0,4.9-2.2,4.9-4.9c0,0,0,0,0,0
		C163.5,17.7,161.3,15.6,158.6,15.5z"/>
	<circle class="st0" cx="198.6" cy="131.8" r="5.4"/>
	<path class="st1" d="M198.6,137.7c-3.2,0-5.9-2.6-5.9-5.9c0-3.2,2.6-5.9,5.9-5.9c3.2,0,5.9,2.6,5.9,5.9c0,0,0,0,0,0
		C204.5,135.1,201.9,137.7,198.6,137.7C198.7,137.7,198.6,137.7,198.6,137.7z M198.6,127c-2.7,0-4.9,2.2-4.9,4.9
		c0,2.7,2.2,4.9,4.9,4.9c2.7,0,4.9-2.2,4.9-4.9C203.5,129.2,201.3,127,198.6,127C198.6,127,198.6,127,198.6,127L198.6,127z"/>
	<circle class="st0" cx="116.1" cy="20.4" r="5.4"/>
	<path class="st1" d="M116.1,26.3c-3.2,0-5.9-2.6-5.9-5.9s2.6-5.9,5.9-5.9s5.9,2.6,5.9,5.9c0,0,0,0,0,0
		C122,23.6,119.4,26.3,116.1,26.3z M116.1,15.5c-2.7,0-4.9,2.2-4.9,4.9s2.2,4.9,4.9,4.9c2.7,0,4.9-2.2,4.9-4.9v0
		C121,17.7,118.8,15.5,116.1,15.5z"/>
	<path class="st1" d="M51.4,24.3H26.5c-0.3,0-0.5-0.2-0.5-0.5c0-0.3,0.2-0.5,0.5-0.5h24.9c0.3,0,0.5,0.2,0.5,0.5
		S51.7,24.3,51.4,24.3z"/>
	<path class="st1" d="M51.4,30.7H26.5c-0.3,0-0.5-0.2-0.5-0.5c0-0.3,0.2-0.5,0.5-0.5h24.9c0.3,0,0.5,0.2,0.5,0.5
		C51.9,30.5,51.7,30.7,51.4,30.7z"/>
	<path class="st1" d="M51.4,37.2H26.5c-0.3,0-0.5-0.2-0.5-0.5s0.2-0.5,0.5-0.5h24.9c0.3,0,0.5,0.2,0.5,0.5S51.7,37.2,51.4,37.2z"/>
	<path class="st1" d="M42.7,43.6H26.5c-0.3,0-0.5-0.2-0.5-0.5s0.2-0.5,0.5-0.5h16.1c0.3,0,0.5,0.2,0.5,0.5S42.9,43.6,42.7,43.6z"/>
	<path class="st1" d="M219.3,49.1h-24.9c-0.3,0-0.5-0.2-0.5-0.5c0-0.3,0.2-0.5,0.5-0.5h24.9c0.3,0,0.5,0.2,0.5,0.5
		C219.8,48.9,219.6,49.1,219.3,49.1z"/>
	<path class="st1" d="M219.3,55.6h-24.9c-0.3,0-0.5-0.2-0.5-0.5s0.2-0.5,0.5-0.5h24.9c0.3,0,0.5,0.2,0.5,0.5S219.6,55.6,219.3,55.6z
		"/>
	<path class="st1" d="M211,62h-16.5c-0.3,0-0.5-0.2-0.5-0.5s0.2-0.5,0.5-0.5H211c0.3,0,0.5,0.2,0.5,0.5S211.2,62,211,62z"/>
	
		<rect x="35.2" y="150.1" transform="matrix(0.5813 -0.8137 0.8137 0.5813 -116.0233 111.475)" class="st0" width="30.1" height="36.7"/>
	<path class="st2" d="M56.4,191.9c-0.1,0-0.2,0-0.3-0.1l-29.8-21.3c-0.1-0.1-0.2-0.2-0.2-0.3c0-0.1,0-0.3,0.1-0.4l17.5-24.5
		c0.2-0.2,0.4-0.3,0.6-0.1l29.8,21.3c0.2,0.1,0.3,0.4,0.1,0.6l-17.5,24.5C56.8,191.8,56.6,191.8,56.4,191.9L56.4,191.9z M27.2,170
		l29.1,20.8l17-23.8l-29.1-20.8L27.2,170z"/>
	<path class="st0" d="M66.4,148.5c0,0-6.3,13.8-7.4,12.4c-1.5-1.9,0.7-4.8,0.7-4.8l-5.9-4c0,0,6.5-8.2,6.9-8.4
		C60.9,143.4,66.4,148.5,66.4,148.5z"/>
	<path class="st2" d="M59.2,161.5c-0.2,0-0.4-0.1-0.6-0.3c-1.3-1.7-0.2-4.1,0.4-5l-5.5-3.7c-0.1-0.1-0.2-0.2-0.2-0.3
		c0-0.1,0-0.3,0.1-0.4c2-2.5,6.6-8.3,6.9-8.5s0.6-0.5,6.4,4.9c0.1,0.1,0.2,0.3,0.1,0.5C65.1,152.5,60.9,161.3,59.2,161.5L59.2,161.5
		z M54.4,152l5.5,3.7c0.1,0.1,0.2,0.2,0.2,0.3c0,0.1,0,0.3-0.1,0.4c0,0-1.8,2.5-0.8,4.1c1-0.7,4.1-6.5,6.6-11.8
		c-2-1.9-4.3-3.9-5.1-4.4C59.9,145.1,56.7,149.1,54.4,152z"/>
	<path class="st0" d="M93.6,225.9c0,0-0.6,9.5-0.5,13.1s0,7,4.2,6.2c2.3-0.4,14.9-3.6,13.8-6s-9.4-3-9.4-3l0.7-10.9"/>
	<path class="st2" d="M96.1,245.7c-0.8,0-1.5-0.2-2.1-0.7c-1.4-1.2-1.4-3.5-1.4-6V239c0-3.6,0.5-13,0.5-13.1c0-0.2,0.2-0.4,0.4-0.4
		c0,0,0,0,0,0c0.3,0,0.4,0.2,0.4,0.5c0,0.1-0.6,9.5-0.5,13.1v0.1c0,2.2,0,4.4,1.1,5.2c0.8,0.5,1.7,0.6,2.6,0.4
		c3-0.6,12.5-3.2,13.4-5.1c0-0.1,0-0.2,0-0.3c-0.8-1.5-5.9-2.5-9-2.7c-0.3,0-0.4-0.2-0.4-0.5l0.7-10.9c0-0.3,0.2-0.4,0.5-0.4
		c0,0,0,0,0,0c0.2,0,0.4,0.2,0.4,0.5c0,0,0,0,0,0l-0.7,10.4c1.9,0.2,8.2,0.9,9.3,3.2c0.2,0.3,0.2,0.8,0,1.1
		c-1.4,2.8-14,5.5-14.1,5.5C97,245.6,96.6,245.7,96.1,245.7z"/>
	<path class="st0" d="M123.1,227c0,0-0.6,9.5-0.5,13.1s0,7,4.2,6.2c2.3-0.4,15.9-2.6,14.8-5c-1.2-2.4-10.4-4-10.4-4l0.7-10.8"/>
	<path class="st2" d="M125.7,246.8c-0.8,0-1.5-0.2-2.1-0.7c-1.4-1.1-1.4-3.5-1.4-5.9v-0.1c0-3.6,0.5-13,0.5-13.1
		c0-0.3,0.2-0.5,0.5-0.5c0.3,0,0.5,0.2,0.5,0.5c0,0.1-0.6,9.5-0.5,13.1v0.2c0,2.2,0,4.4,1.1,5.2c0.8,0.5,1.7,0.6,2.6,0.4l0.7-0.1
		c10.6-1.9,13.3-3.2,13.7-4c0-0.1,0-0.1,0-0.2c-0.8-1.6-6.6-3.1-10-3.7c-0.2,0-0.4-0.2-0.4-0.5l0.7-10.9c0-0.3,0.2-0.5,0.4-0.5
		c0.3,0,0.5,0.2,0.5,0.4c0,0,0,0.1,0,0.1l-0.7,10.4c2,0.4,9.1,1.9,10.3,4.1c0.2,0.3,0.2,0.7,0,1c-0.8,1.5-5.2,2.9-14.4,4.5l-0.7,0.1
		C126.5,246.8,126.1,246.8,125.7,246.8z"/>
	<path class="st2" d="M91.3,129.3c0,0-1.8,90.6-0.3,99.2c0,0,5.9,6.7,13.6,3.3l8.6-71.5l6.2,71.4c0,0,4.9,4.9,15.2-3.2l-5.4-104.4
		L91.3,129.3z"/>
	<path class="st2" d="M123.9,233.7c-1.8,0.1-3.5-0.5-4.8-1.6c-0.1-0.1-0.1-0.2-0.2-0.3l-5.8-66.5l-8,66.6c0,0.2-0.1,0.3-0.3,0.4
		c-7.9,3.4-14.1-3.4-14.2-3.5c-0.1-0.1-0.1-0.2-0.1-0.3c-1.5-8.6,0.2-95.6,0.3-99.3c0-0.3,0.2-0.5,0.4-0.5l38-5.1
		c0.1,0,0.3,0,0.4,0.1c0.1,0.1,0.2,0.2,0.2,0.4l5.4,104.4c0,0.2-0.1,0.3-0.2,0.4C130.2,232.7,126.5,233.7,123.9,233.7z M119.9,231.5
		c0.8,0.7,5.3,3.7,14.2-3.2l-5.4-103.6l-37,5c-0.1,6.8-1.7,89.6-0.3,98.5c0.8,0.8,6,5.9,12.7,3.2l8.6-71.2c0-0.3,0.2-0.4,0.5-0.4
		l0,0c0.3,0,0.5,0.2,0.5,0.5L119.9,231.5z"/>
	<path class="st0" d="M111,52.3c0,0,2.8,11.5,2.2,14.1c-0.6,2.7-4.2,3.6-4.2,3.6l2.6,9.6l-16.2,1c0,0-2.9-15.9-2.4-24.8
		C93.5,47,111,52.3,111,52.3z"/>
	<path class="st2" d="M95.3,81.1c-0.2,0-0.4-0.2-0.5-0.4c0-0.2-2.9-16-2.4-24.9c0-1.6,0.8-3.1,2.2-4.1c4.8-3.4,15.9-0.1,16.4,0
		c0.2,0.1,0.3,0.2,0.3,0.3c0.1,0.5,2.9,11.6,2.2,14.4c-0.6,2.3-3,3.4-4.1,3.8l2.5,9.1c0,0.1,0,0.3-0.1,0.4c-0.1,0.1-0.2,0.2-0.3,0.2
		L95.3,81.1L95.3,81.1z M101,51.2c-2-0.1-4,0.3-5.8,1.3c-1.1,0.8-1.8,2-1.8,3.4c-0.4,7.9,1.8,21.7,2.3,24.2l15.2-1l-2.4-9
		c0-0.1,0-0.2,0-0.4c0.1-0.1,0.2-0.2,0.3-0.2c0,0,3.3-0.9,3.9-3.3c0.5-2-1.3-10.3-2.1-13.7C107.4,51.7,104.2,51.3,101,51.2z"/>
	<path class="st0" d="M152.8,36.3c0,0,2-6.1,2.1-6.7c0.1-0.5-2-5.7-2-6.2c0-0.5,0.2-1.5,0.9-1.1c0.7,0.4,2.9,3.7,2.9,3.7
		s1.5-8.7,2-8.8s1.2,0.1,1.5,2c0.1,1.5-0.1,3.1-0.5,4.5c0,0,3.6,0.4,4,1.3c0.4,0.9-3.2,14.2-3.2,14.2"/>
	<path class="st2" d="M160.5,39.8h-0.1c-0.2-0.1-0.4-0.3-0.3-0.6c1.7-6.2,3.4-13.2,3.2-14c-0.1-0.3-1.9-0.8-3.6-1
		c-0.1,0-0.3-0.1-0.3-0.2c-0.1-0.1-0.1-0.2-0.1-0.4c0.4-1.4,0.6-2.9,0.5-4.4c-0.1-1-0.4-1.4-0.5-1.5c-0.1,0-0.1-0.1-0.2-0.1
		c-0.8,2.8-1.4,5.6-1.8,8.4c0,0.2-0.2,0.3-0.4,0.4c-0.2,0-0.4,0-0.5-0.2c-0.8-1.3-1.7-2.5-2.8-3.5c-0.1,0-0.2,0.3-0.2,0.7
		c0,0.2,0.5,1.4,0.8,2.4c0.9,2.6,1.2,3.4,1.1,3.8c-0.1,0.6-1.8,5.7-2.1,6.8c-0.1,0.2-0.3,0.4-0.6,0.3c-0.2-0.1-0.4-0.3-0.3-0.6
		c0,0,0,0,0,0c0.8-2.3,2-6.2,2-6.6c-0.3-1.1-0.7-2.3-1.1-3.3c-0.4-0.9-0.7-1.8-0.9-2.8c0-0.3,0.1-1.2,0.6-1.5c0.3-0.2,0.6-0.2,0.9,0
		c1,0.8,1.8,1.8,2.5,2.9c1.4-7.9,1.9-8,2.2-8c0.4-0.1,0.8,0,1.1,0.2c0.6,0.6,0.9,1.3,0.9,2.1c0.1,1.4-0.1,2.8-0.4,4.2
		c1.3,0.2,3.5,0.6,3.9,1.5c0.4,0.9-2.1,10.5-3.2,14.5C160.8,39.6,160.7,39.8,160.5,39.8z"/>
	<path class="st3" d="M121.1,74.4c0,0-28.2,1.7-32.1,4.3c-3.9,2.5-5.1,32.6-1.7,58.1l46.9-0.2C134.2,136.6,135.2,78,121.1,74.4z"/>
	<path class="st3" d="M82.2,80.6c0,0-9.7,29-11.1,31.6c-1.3,2.6-13.4,33.2-13.4,33.2l9.3,6c0,0,23.3-30.2,24.9-40
		S82.2,80.6,82.2,80.6z"/>
	<path class="st3" d="M104.7,76.6c1.3,0.1,35.1-12.4,35.7-13.7C141,61.6,152.2,32,152.2,32l11.5,1.1c0,0-4.1,29.3-5.8,34.8
		c-2.5,8.3-26.1,27-35.3,34L104.7,76.6z"/>
	<path class="st0" d="M102,45c4.3,1.3,9.1,5.4,10,10c0.3,2,0.1,4.1-0.5,6c-0.5,1.7-1,3.3-1.7,5c-1.1,2.6-4.1,4.3-4.3,7.3
		c-0.3,3.5,3,6.8,4.8,9.6c2.4,3.7,3.2,8.1,2.4,12.4c-0.9,4.3-3.8,7.9-7.8,9.7c-3.3,1.4-7,1.2-10.5,0.8c-5.5-0.6-11-1.9-15.5-5.1
		c-7.9-5.6-9.5-15.6-1.5-21.9c1.7-1.3,3.7-2.3,5-4.1c2.3-3.2,1.3-7.6,1.1-11.5c-0.2-3.3,0.4-6.6,1.6-9.7c0.8-2.3,2.1-4.4,3.9-6.1
		C92.3,44.3,97.5,43.6,102,45z"/>
	<path class="st2" d="M98.5,106.5c-1.4,0-2.8-0.1-4.2-0.3c-6.8-0.8-11.8-2.4-15.7-5.2c-4.3-3-6.9-7.4-7-11.9c0-4.2,2-8.2,5.4-10.7
		c0.5-0.4,1.1-0.8,1.6-1.2c1.2-0.7,2.3-1.7,3.2-2.8c1.7-2.4,1.5-5.7,1.2-8.8c-0.1-0.8-0.2-1.6-0.2-2.4c-0.2-3.4,0.4-6.8,1.6-9.9
		c0.8-2.4,2.2-4.5,4.1-6.2c3.4-3,8.6-4,13.6-2.5c4.3,1.3,9.4,5.5,10.4,10.3c0.3,2.1,0.1,4.2-0.5,6.3c-0.5,1.7-1.1,3.4-1.7,5
		c-0.5,1.1-1.2,2.1-2,3c-1.1,1.3-2.1,2.5-2.3,4.2c-0.2,2.5,1.6,5,3.2,7.1c0.5,0.7,1.1,1.4,1.5,2.1c2.5,3.8,3.3,8.4,2.5,12.8
		c-0.9,4.5-4,8.2-8.1,10C102.9,106.1,100.7,106.6,98.5,106.5z M97.5,44.8c-3-0.1-6,1-8.3,2.9c-1.7,1.6-3,3.6-3.8,5.9
		c-1.2,3-1.7,6.3-1.5,9.6c0,0.8,0.1,1.6,0.2,2.4c0.3,3.3,0.6,6.7-1.4,9.4c-1,1.2-2.1,2.2-3.5,3c-0.5,0.4-1.1,0.7-1.6,1.1
		c-3.2,2.3-5.1,6-5.1,10c0.1,4.2,2.5,8.3,6.6,11.2c3.8,2.7,8.6,4.3,15.2,5.1c3.2,0.4,7,0.6,10.3-0.8c3.9-1.7,6.7-5.2,7.6-9.4
		c0.8-4.2,0-8.5-2.3-12.1c-0.4-0.7-0.9-1.3-1.5-2c-1.7-2.3-3.7-4.9-3.4-7.8c0.2-1.9,1.3-3.3,2.5-4.7c0.8-0.8,1.4-1.7,1.9-2.7
		c0.7-1.6,1.2-3.2,1.7-4.9c0.6-1.9,0.8-3.9,0.5-5.8c-0.9-4.4-5.7-8.5-9.7-9.6C100.4,45,98.9,44.8,97.5,44.8L97.5,44.8z"/>
	<path class="st2" d="M86.4,129.1c-0.2,0-0.4-0.2-0.5-0.4c-0.9-11.7-0.9-13-1-15.6c0-1.6-0.1-3.5-0.3-8.2c0-0.3,0.1-0.5,0.4-0.5
		c0.3,0,0.5,0.1,0.5,0.4c0,0,0,0.1,0,0.1c0.2,4.7,0.2,6.7,0.3,8.3c0,2.6,0.1,3.9,1,15.5C86.9,128.9,86.7,129.1,86.4,129.1
		L86.4,129.1z"/>
	<path class="st0" d="M59.6,156.2c0,0-2.3-2.9,0.1-5.1"/>
	<path class="st2" d="M59.6,156.7c-0.1,0-0.3-0.1-0.4-0.2c-0.9-1.1-2-3.7,0.2-5.7c0.2-0.1,0.5-0.1,0.7,0.1c0.1,0.2,0.1,0.4,0,0.6
		c-2.1,1.9-0.2,4.3-0.1,4.4c0.2,0.2,0.1,0.5-0.1,0.7C59.8,156.7,59.7,156.7,59.6,156.7z"/>
	<path class="st1" d="M219,190.6h-53c-0.3,0-0.5-0.2-0.5-0.5v-23.3c0-0.3,0.2-0.5,0.5-0.5h53c0.3,0,0.5,0.2,0.5,0.5V190
		C219.5,190.3,219.3,190.6,219,190.6z M166.6,189.5h52v-22.3h-52V189.5z"/>
</g>
</svg>
