<svg xmlns="http://www.w3.org/2000/svg" viewBox="0 0 400 300" width="406" height="306" class="illustration styles_illustrationTablet__1DWOa"><g id="_426_lunch_flatline" data-name="#426_lunch_flatline"><rect x="46.06" y="56.48" width="307.88" height="193.77" rx="16.63" fill="#231f20"></rect><path d="M337.31,250.79H62.69a17.19,17.19,0,0,1-17.17-17.17V73.11A17.19,17.19,0,0,1,62.69,55.94H337.31a17.19,17.19,0,0,1,17.17,17.17V233.62A17.19,17.19,0,0,1,337.31,250.79ZM62.69,57A16.1,16.1,0,0,0,46.6,73.11V233.62a16.11,16.11,0,0,0,16.09,16.09H337.31a16.11,16.11,0,0,0,16.09-16.09V73.11A16.1,16.1,0,0,0,337.31,57Z" fill="#231f20"></path><rect x="46.06" y="49.75" width="307.88" height="193.77" rx="16.63" fill="#fff"></rect><path d="M337.31,244H62.69a17.15,17.15,0,0,1-17.13-17.13V66.38A17.15,17.15,0,0,1,62.69,49.25H337.31a17.15,17.15,0,0,1,17.13,17.13V226.89A17.15,17.15,0,0,1,337.31,244ZM62.69,50.25A16.15,16.15,0,0,0,46.56,66.38V226.89A16.15,16.15,0,0,0,62.69,243H337.31a16.15,16.15,0,0,0,16.13-16.13V66.38a16.15,16.15,0,0,0-16.13-16.13Z" fill="#231f20"></path><path d="M336.9,232H212.08a9.7,9.7,0,0,1-9.68-9.69v-79a9.7,9.7,0,0,1,9.68-9.69H336.9a9.7,9.7,0,0,1,9.69,9.69v79A9.7,9.7,0,0,1,336.9,232ZM212.08,134.62a8.7,8.7,0,0,0-8.68,8.69v79a8.7,8.7,0,0,0,8.68,8.69H336.9a8.7,8.7,0,0,0,8.69-8.69v-79a8.7,8.7,0,0,0-8.69-8.69Z" fill="#d1d3d4"></path><path d="M185.36,232h-78.3a9.7,9.7,0,0,1-9.69-9.69v-79a9.7,9.7,0,0,1,9.69-9.69h78.3a9.7,9.7,0,0,1,9.69,9.69v79A9.7,9.7,0,0,1,185.36,232Zm-78.3-97.38a8.7,8.7,0,0,0-8.69,8.69v79a8.7,8.7,0,0,0,8.69,8.69h78.3a8.7,8.7,0,0,0,8.69-8.69v-79a8.7,8.7,0,0,0-8.69-8.69Z" fill="#d1d3d4"></path><path d="M233.85,153.58c-2.24-.63-4.56-.85-6.28-3-.46-.56-.94-1.24-1.66-1.32-.92-.09-1.59.88-1.85,1.78a5.06,5.06,0,0,1-1,2.54c-1,.88-2.6.58-3.55,1.46-1.82,1.67.92,4.88-.19,7.09-.57,1.15-2,1.59-2.85,2.56-1.84,2.13-.13,5.44,1.9,7.4a3.42,3.42,0,0,1,1.21,1.74c.29,1.63-1.84,2.73-2.09,4.36s1.25,2.76,1.8,4.22a8.14,8.14,0,0,1,.28,3c-.1,4.06-.33,11.69,2.87,14.84s6.2-.07,7.9,5.12a8.66,8.66,0,0,0,5.54,5.1,25.62,25.62,0,0,0,7.71,1,5,5,0,0,0,3-.52,4.46,4.46,0,0,0,1.41-1.92c3.25-7.09,2-15.33.76-23-1.24-7.43-2.1-15.15-5.22-22.09a23.43,23.43,0,0,0-6.52-9A8.61,8.61,0,0,0,233.85,153.58Z" fill="#63C2DE"></path><path d="M244.19,212.1h-.65a26,26,0,0,1-7.86-1.06,9.14,9.14,0,0,1-5.86-5.42c-.88-2.69-2-2.85-3.61-3.07a6.57,6.57,0,0,1-4.16-1.84c-3.32-3.27-3.13-10.95-3-15.07v-.35a7.07,7.07,0,0,0-.25-2.65,7.5,7.5,0,0,0-.79-1.42,4.42,4.42,0,0,1-1-3.05,4.82,4.82,0,0,1,1.18-2.2c.55-.7,1-1.31.91-2a3,3,0,0,0-1-1.43c-2.39-2.3-4-5.8-2-8.12a6.49,6.49,0,0,1,1.35-1.12,4.12,4.12,0,0,0,1.43-1.34,4.83,4.83,0,0,0-.14-3.12c-.36-1.41-.76-3,.43-4.12a4.13,4.13,0,0,1,2-.85,2.28,2.28,0,0,0,2.29-2.32l.15-.6c.33-1.15,1.19-2.26,2.38-2.13a2.9,2.9,0,0,1,1.85,1.32l.14.18c1.31,1.59,3,2,4.82,2.46l1.22.32h0a9,9,0,0,1,3.26,1.56,23.86,23.86,0,0,1,6.67,9.18c2.68,6,3.72,12.54,4.72,18.89.17,1.11.35,2.22.53,3.31,1.17,7.06,2.63,15.84-.8,23.32a4.79,4.79,0,0,1-1.58,2.12A4.63,4.63,0,0,1,244.19,212.1Zm-18.4-62.29c-.55,0-1,.7-1.25,1.41,0,.19-.09.38-.14.57a3.24,3.24,0,0,1-3,3.06,3.24,3.24,0,0,0-1.55.61c-.71.65-.53,1.62-.14,3.14.31,1.23.66,2.62.06,3.8a4.73,4.73,0,0,1-1.75,1.72,5.91,5.91,0,0,0-1.17.95c-1.7,2,.19,5.09,1.87,6.71a3.87,3.87,0,0,1,1.35,2,3.57,3.57,0,0,1-1.1,2.78,4,4,0,0,0-1,1.73,3.68,3.68,0,0,0,.88,2.36,8.69,8.69,0,0,1,.89,1.61,7.83,7.83,0,0,1,.31,3v.34c-.1,4-.28,11.37,2.73,14.34a5.57,5.57,0,0,0,3.61,1.55c1.64.24,3.34.48,4.41,3.76a8.18,8.18,0,0,0,5.24,4.79,25.35,25.35,0,0,0,7.56,1,4.55,4.55,0,0,0,2.66-.44,3.93,3.93,0,0,0,1.23-1.71c3.3-7.2,1.87-15.81.73-22.73-.19-1.1-.36-2.21-.54-3.32-1-6.29-2-12.79-4.64-18.64a22.92,22.92,0,0,0-6.38-8.81,8.22,8.22,0,0,0-2.92-1.38h0l-1.19-.31c-1.88-.46-3.82-.95-5.34-2.8l-.15-.19c-.36-.44-.73-.9-1.17-.95Z" fill="#231f20"></path><circle cx="237.15" cy="193.23" r="21.99" fill="#fff"></circle><path d="M237.14,215.72a22.49,22.49,0,0,1-19.29-10.94A22.49,22.49,0,1,1,259,198.71h0A22.52,22.52,0,0,1,237.14,215.72Zm0-44A21.49,21.49,0,1,0,258,198.47h0a21.49,21.49,0,0,0-20.84-26.73Zm21.32,26.85h0Z" fill="#231f20"></path><path d="M237.14,210.49A17.26,17.26,0,0,1,220.41,189a17.26,17.26,0,1,1,33.47,8.42h0A17.28,17.28,0,0,1,237.14,210.49Zm0-33.52a16.26,16.26,0,1,0,15.79,20.22h0a16.25,16.25,0,0,0-11.8-19.73A16.45,16.45,0,0,0,237.12,177Zm16.28,20.34h0Z" fill="#d1d3d4"></path><path d="M295.3,142.66a12.93,12.93,0,0,0,4.22-2.28,9.9,9.9,0,0,1,4.23-2,5,5,0,0,1,4.39,1.25c.85.88,1.3,2.17,2.38,2.75,1.36.74,3,0,4.47-.54a8.67,8.67,0,0,1,4.52-.58A4.47,4.47,0,0,1,323,144c.67,2-.42,4.32.63,6.1,1.93,3.24,10.31-1.58,8.14,4.88-.5,1.49-1.63,2.67-2.47,4s-1.35,3.12-.52,4.46c1.08,1.77,4.11,2.26,4.17,4.33,0,1.37-1.36,2.29-2.08,3.45a4,4,0,0,0,.42,4.64c.52.58,1.21,1,1.67,1.61,1.44,2,0,4.66-1.47,6.62s-2.86,4.7-1.37,6.61c.55.69,1.38,1.1,2,1.75,1.83,2,.67,5.19-.56,7.6s-2.39,5.61-.55,7.61c1.42,1.54,4.06,1.56,5.28,3.26s.42,3.9-1.1,5.05a7.44,7.44,0,0,1-5.47,1.08c-4.77-.63-8.86-3.56-12.92-6.12a102.38,102.38,0,0,0-16.82-8.57c-4.63-1.84-9.43-3.37-13.58-6.12s-7.66-7-8.07-11.95c-.38-4.7,1.21-11,2.45-15.59a105,105,0,0,1,6.08-16.56c1.16-2.51,2.33-5.87,4.11-8,1.46-1.75,1.58-.67,3.22-1.11C294.55,142.89,294.94,142.77,295.3,142.66Z" fill="#63C2DE"></path><path d="M331.12,217.61a11.87,11.87,0,0,1-1.52-.1c-4.33-.58-8.1-3-11.74-5.32l-1.38-.88a103,103,0,0,0-16.74-8.53c-.95-.38-1.91-.74-2.87-1.11a54.4,54.4,0,0,1-10.8-5c-4.89-3.23-7.91-7.72-8.29-12.33s1-10.54,2.47-15.76a105.92,105.92,0,0,1,6.1-16.64c.28-.61.57-1.26.86-1.94a25.11,25.11,0,0,1,3.33-6.16c1-1.23,1.57-1.27,2.34-1.2a2.87,2.87,0,0,0,1.13-.07c.41-.11.78-.22,1.14-.34a12.51,12.51,0,0,0,4.07-2.19,10.24,10.24,0,0,1,4.45-2.14,5.49,5.49,0,0,1,4.83,1.4,9,9,0,0,1,.9,1.18,4.26,4.26,0,0,0,1.36,1.48c1.05.57,2.38.06,3.68-.42l.37-.14a9.06,9.06,0,0,1,4.79-.62,5,5,0,0,1,3.85,3.06,7.62,7.62,0,0,1,.22,3,5.23,5.23,0,0,0,.37,3c.66,1.1,2.42,1,4.11,1s3.28-.09,4.05.95c.53.72.54,1.81,0,3.34a10.76,10.76,0,0,1-1.66,2.87c-.3.41-.6.82-.86,1.25s-1.41,2.49-.52,3.93a5.7,5.7,0,0,0,1.87,1.6c1.15.75,2.33,1.51,2.37,3a4,4,0,0,1-1.36,2.71,8.11,8.11,0,0,0-.8,1,3.45,3.45,0,0,0,.37,4,8.05,8.05,0,0,0,.68.63,5.84,5.84,0,0,1,1,1c1.26,1.72.77,4.15-1.47,7.2-1.34,1.84-2.67,4.37-1.38,6a5.06,5.06,0,0,0,1,.87,7.75,7.75,0,0,1,1,.85c1.59,1.74,1.43,4.42-.49,8.17-1.7,3.34-1.91,5.64-.62,7a6.65,6.65,0,0,0,2.37,1.38,6.35,6.35,0,0,1,2.95,1.93c1.32,1.84.42,4.5-1.21,5.74A7.1,7.1,0,0,1,331.12,217.61Zm-38.61-74c-.33,0-.6.13-1.21.86a24.91,24.91,0,0,0-3.18,5.92c-.29.68-.58,1.35-.86,2a105.29,105.29,0,0,0-6.05,16.48c-1.32,4.84-2.79,11-2.43,15.42.35,4.3,3.21,8.52,7.84,11.58a54.41,54.41,0,0,0,10.6,5c1,.36,1.93.73,2.89,1.11A104.24,104.24,0,0,1,317,210.46l1.38.89c3.55,2.27,7.22,4.62,11.33,5.16a7,7,0,0,0,5.11-1c1.26-1,2-3,1-4.36a5.54,5.54,0,0,0-2.51-1.59A7.33,7.33,0,0,1,330.6,208c-1.61-1.74-1.46-4.42.46-8.17,1.7-3.34,1.91-5.65.64-7a5.6,5.6,0,0,0-.85-.73,6.23,6.23,0,0,1-1.14-1.05c-1.33-1.69-.86-4.19,1.36-7.22,1.95-2.66,2.45-4.69,1.47-6a5.77,5.77,0,0,0-.86-.85,8.64,8.64,0,0,1-.78-.72,4.49,4.49,0,0,1-.48-5.24,9.32,9.32,0,0,1,.9-1.15,3.3,3.3,0,0,0,1.11-2c0-.94-.9-1.5-1.91-2.16a6.64,6.64,0,0,1-2.19-1.92c-.8-1.3-.6-3.16.53-5,.28-.45.59-.88.9-1.31a10,10,0,0,0,1.52-2.6c.39-1.18.43-2,.12-2.42-.47-.63-1.87-.59-3.22-.55-1.9,0-4,.11-5-1.49a6,6,0,0,1-.52-3.58,6.78,6.78,0,0,0-.17-2.61,3.92,3.92,0,0,0-3.08-2.4,8.09,8.09,0,0,0-4.26.56l-.37.14c-1.43.54-3.06,1.16-4.51.37a5.07,5.07,0,0,1-1.71-1.8,7.87,7.87,0,0,0-.79-1,4.45,4.45,0,0,0-3.94-1.11,9.24,9.24,0,0,0-4,1.94,13.52,13.52,0,0,1-4.36,2.35h0c-.37.12-.77.24-1.19.35a3.75,3.75,0,0,1-1.49.11Zm2.79-.91h0Z" fill="#231f20"></path><circle cx="312.09" cy="175.36" r="21.99" fill="#fff"></circle><path d="M312.13,197.86a22.76,22.76,0,0,1-5.53-.69,22.34,22.34,0,1,1,5.53.69Zm0-44a21.49,21.49,0,1,0,20.84,26.73h0a21.49,21.49,0,0,0-20.84-26.73Z" fill="#231f20"></path><path d="M312.12,192.62a17.29,17.29,0,0,1-16.77-21.47,17.26,17.26,0,1,1,33.47,8.42h0a17.25,17.25,0,0,1-16.7,13.05Zm0-33.52a16.26,16.26,0,1,0,8.34,30.21,16.26,16.26,0,0,0-4.38-29.72A16.33,16.33,0,0,0,312.09,159.1Zm16.25,20.34h0Z" fill="#d1d3d4"></path><circle cx="307.15" cy="200.87" r="19.49" fill="#fff"></circle><path d="M307.14,220.87a20,20,0,1,1,19.39-15.12h0A20,20,0,0,1,307.14,220.87Zm0-39a19,19,0,0,0-4.59,37.41,19,19,0,0,0,23-13.79h0a19,19,0,0,0-13.78-23A19.08,19.08,0,0,0,307.11,181.88Zm18.94,23.74h0Z" fill="#231f20"></path><path d="M307.17,216.23a15.37,15.37,0,0,1-14.91-19.1A15.35,15.35,0,0,1,322,204.62h0a15.37,15.37,0,0,1-14.87,11.61Zm0-29.71a14.35,14.35,0,1,0,13.92,17.85h0A14.37,14.37,0,0,0,310.65,187,14.58,14.58,0,0,0,307.15,186.52Z" fill="#d1d3d4"></path><path d="M227.29,198.49c-1,1.4-2.74,2-4,3.09s-2,3.45-.52,4.36c.53.33,1.21.36,1.7.75,1.2,1,.17,2.92-1.07,3.82s-2.86,1.86-2.79,3.4c.08,1.89,2.57,2.53,4.47,2.49a3.4,3.4,0,0,0,3.84,5.12,10.38,10.38,0,0,0,2.26-1.29c2.61-1.63,5.92-2.09,8.17-4.18,3.27-3,3.1-8.18,2.33-12.56s-2.25-11.39-7.69-11.92a13.5,13.5,0,0,0-6.92,1.6C223.25,195.78,227,196,227.29,198.49Z" fill="#63C2DE"></path><path d="M227.93,222.16a3.87,3.87,0,0,1-3.69-5.28c-2.13-.15-4.09-1.07-4.17-2.95-.07-1.64,1.41-2.69,2.59-3.53l.41-.29a3.32,3.32,0,0,0,1.39-2.25.91.91,0,0,0-.34-.78,2.49,2.49,0,0,0-.77-.34,4.25,4.25,0,0,1-.89-.38,2.25,2.25,0,0,1-1-1.8,4.29,4.29,0,0,1,1.51-3.36,14.17,14.17,0,0,1,1.67-1.15,7.74,7.74,0,0,0,2.17-1.69,3.41,3.41,0,0,0-1-1.6,2.33,2.33,0,0,1-.89-1.78c.07-.69.65-1.38,1.88-2.22a13.74,13.74,0,0,1,7.25-1.68c6.07.58,7.46,8.51,8.13,12.32,1.09,6.2.28,10.46-2.48,13a14.81,14.81,0,0,1-4.84,2.66,21.06,21.06,0,0,0-3.4,1.58l-.53.35a7,7,0,0,1-1.86,1A3.65,3.65,0,0,1,227.93,222.16ZM225,215.9a.48.48,0,0,1,.43.26.49.49,0,0,1,0,.52,2.9,2.9,0,0,0,3.28,4.36,6.56,6.56,0,0,0,1.59-.87l.55-.36a20.65,20.65,0,0,1,3.57-1.67,13.94,13.94,0,0,0,4.53-2.46c2.49-2.3,3.2-6.26,2.17-12.11-.95-5.43-2.56-11-7.23-11.5a13.18,13.18,0,0,0-6.6,1.51c-1.15.8-1.42,1.26-1.45,1.51s.22.55.63,1a4,4,0,0,1,1.3,2.35.52.52,0,0,1-.09.34,7.84,7.84,0,0,1-2.57,2.13,14.18,14.18,0,0,0-1.56,1.06,3.27,3.27,0,0,0-1.15,2.52,1.21,1.21,0,0,0,.57,1,3.14,3.14,0,0,0,.67.28,3.13,3.13,0,0,1,1.08.51,1.88,1.88,0,0,1,.72,1.58,4.34,4.34,0,0,1-1.8,3l-.42.29c-1.09.78-2.22,1.58-2.17,2.67.07,1.66,2.62,2.05,4,2Z" fill="#231f20"></path><path d="M314.7,222.22c7.15.82,12.81,1.62,13.62-1.57s-9.09-42.08-9-44.36,4.59-13.66,2.8-21.28-7-10.09-11.44-10.74-10.49,3.16-15.54,2.11-30.49-2.81-39.38-2.5-21.33.1-25.18,3.92-4.35,10.41-3.92,15.6,3.4,8,2.32,10.54-2.41,49.19-.37,52.11,46.39-1.23,50.23-1.41S307.55,221.41,314.7,222.22Z" fill="#e6e7e8"></path><path d="M237.4,227.62c-5.72,0-8.62-.43-9.21-1.27-2.2-3.13-.8-50.06.31-52.63.49-1.12,0-2.39-.71-4.14a20.57,20.57,0,0,1-1.65-6.13c-.42-5,0-11.93,4.08-16,3.52-3.49,13.36-3.75,22-4l3.5-.1c8.7-.32,34.37,1.44,39.51,2.51,2.56.52,5.47-.28,8.28-1.05,2.59-.72,5.05-1.4,7.23-1.07,4.38.64,10,3.1,11.89,11.15,1.34,5.72-.75,13.42-2,18a22.52,22.52,0,0,0-.8,3.4c0,.82,1.54,7.73,3.21,15,3.55,15.51,6.23,27.53,5.75,29.44-.88,3.5-6.33,2.88-13.23,2.09l-1-.11c-5.18-.59-20,.9-28.89,1.78-3.25.33-5.82.58-6.86.63-.63,0-2.42.18-4.89.37C256.53,226.93,244.68,227.62,237.4,227.62Zm20.73-83.24c-.87,0-1.65,0-2.33,0l-3.51.1c-8.07.21-18.1.48-21.31,3.66-4,4-4.09,11.23-3.77,15.18a19.62,19.62,0,0,0,1.57,5.82c.74,1.84,1.37,3.44.71,5-.43,1-1.07,11.79-1.31,25.7-.3,17.73.29,25,.89,25.89,1.13,1.43,16.22,1,44.85-1.27,2.48-.2,4.27-.34,4.92-.37,1,0,3.57-.3,6.81-.63,8.91-.89,23.82-2.38,29.12-1.78l1,.11c6.37.73,11.4,1.31,12.05-1.28.46-1.82-3.28-18.14-5.75-28.94-2.1-9.16-3.28-14.4-3.24-15.32a22.92,22.92,0,0,1,.84-3.63c1.22-4.5,3.26-12,2-17.5-1.75-7.46-6.94-9.73-11-10.33-2-.29-4.31.36-6.8,1-2.93.8-6,1.64-8.78,1.06C290.35,145.94,268.33,144.38,258.13,144.38Z" fill="#231f20"></path><path d="M231,223.7s89.89-2.94,91.32-6.19-6.51-35.48-5.78-39.61,3.29-14.29,2.28-20.1-7.9-7.85-11.24-8.07-20.36,4.76-34.42,4.31-37.7-2.08-41.63,1.25-3.08,11-1.55,14.73S231,223.7,231,223.7Z" fill="#fff"></path><path d="M231,224.2a.5.5,0,0,1-.35-.14.48.48,0,0,1-.15-.37c.17-17.22.2-50.57-1-53.48-1.68-4.16-2.31-11.9,1.69-15.3,3.45-2.93,20-2.25,34.64-1.65l7.33.28c9.17.3,19.72-1.76,26.7-3.12a46.84,46.84,0,0,1,7.74-1.19c4.15.28,10.7,2.77,11.69,8.48.84,4.84-.7,12.45-1.73,17.48-.22,1.09-.41,2-.54,2.79-.33,1.83,1.24,10,2.76,18,2.3,12,3.75,20,3,21.78-.31.69-1,2.31-46.63,4.61-22.4,1.13-44.91,1.87-45.14,1.88Zm16.42-70.45c-7.49,0-13.81.43-15.56,1.92-3.63,3.08-3,10.27-1.41,14.16,1.47,3.66,1.1,47.73,1.05,53.35,35.33-1.16,88.19-3.69,90.39-5.93.68-1.55-1.4-12.41-3.07-21.13s-3.12-16.31-2.77-18.31c.14-.76.33-1.72.55-2.82,1-5,2.53-12.45,1.73-17.1-1-5.76-8.12-7.48-10.78-7.66a49,49,0,0,0-7.48,1.17c-7,1.37-17.63,3.44-26.92,3.14l-7.34-.28C260.06,154,253.37,153.75,247.42,153.75Z" fill="#231f20"></path><path d="M290.27,194.56a.5.5,0,0,1-.08-1l6.86-1.12a.5.5,0,0,1,.58.41.51.51,0,0,1-.42.58l-6.86,1.12Z" fill="#d1d3d4"></path><path d="M296,178a.5.5,0,0,1-.16-1l5.5-1.85a.5.5,0,0,1,.64.32.51.51,0,0,1-.32.63l-5.5,1.84A.45.45,0,0,1,296,178Z" fill="#d1d3d4"></path><path d="M278.22,180.61a.5.5,0,0,1-.24-.06L269.69,176a.5.5,0,0,1,.48-.88l8.29,4.55a.51.51,0,0,1,.2.68A.49.49,0,0,1,278.22,180.61Z" fill="#d1d3d4"></path><path d="M281.49,187.76a.5.5,0,0,1-.21-.95c1.83-.83,6.18-2.72,7.12-2.5a.5.5,0,0,1-.23,1c-.55,0-3.79,1.21-6.47,2.43A.52.52,0,0,1,281.49,187.76Z" fill="#d1d3d4"></path><path d="M258.45,183.71a.48.48,0,0,1-.2,0l-6.41-2.73a.49.49,0,0,1-.26-.65.5.5,0,0,1,.65-.27l6.41,2.73a.5.5,0,0,1-.19,1Z" fill="#d1d3d4"></path><path d="M254.7,170.38a.5.5,0,0,1-.3-.9l4.38-3.29a.5.5,0,0,1,.7.1.51.51,0,0,1-.1.7L255,170.28A.47.47,0,0,1,254.7,170.38Z" fill="#d1d3d4"></path><path d="M251.48,197.33A.5.5,0,0,1,251,197a.5.5,0,0,1,.31-.63l6.25-2.13a.5.5,0,1,1,.32.94l-6.24,2.13Z" fill="#d1d3d4"></path><path d="M269.9,202a.5.5,0,0,1-.07-1l4.59-.7a.5.5,0,0,1,.15,1L270,202Z" fill="#d1d3d4"></path><path d="M301.83,203.82l-.13,0-6.86-1.72a.51.51,0,0,1-.37-.61.5.5,0,0,1,.61-.36l6.87,1.72a.51.51,0,0,1,.36.61A.5.5,0,0,1,301.83,203.82Z" fill="#d1d3d4"></path><path d="M282.51,169.35a.5.5,0,0,1,0-1l6.73-.16a.48.48,0,0,1,.51.49.49.49,0,0,1-.48.51l-6.73.16Z" fill="#d1d3d4"></path><path d="M264,199.56h-.13a.51.51,0,0,1-.36-.61l1.61-6.38a.5.5,0,0,1,.6-.37.51.51,0,0,1,.37.61l-1.61,6.38A.5.5,0,0,1,264,199.56Z" fill="#d1d3d4"></path><path d="M306.56,170.46a.51.51,0,0,1-.49-.4l-1.61-8.12a.51.51,0,0,1,.39-.59.49.49,0,0,1,.59.39l1.61,8.12a.5.5,0,0,1-.39.59Z" fill="#d1d3d4"></path><path d="M281.5,211.94a.47.47,0,0,1-.3-.1.5.5,0,0,1-.1-.7l3.82-5a.5.5,0,1,1,.79.6l-3.81,5.06A.5.5,0,0,1,281.5,211.94Z" fill="#d1d3d4"></path><path d="M261.38,211a.49.49,0,0,1-.23-.06c-.25-.13-6.17-3.18-6.78-3.57a.5.5,0,0,1,.54-.84c.47.3,5,2.65,6.7,3.52a.5.5,0,0,1-.23,1Z" fill="#d1d3d4"></path><path d="M240.35,188.36a.5.5,0,0,1-.09-1l6.23-1.05a.49.49,0,0,1,.57.41.51.51,0,0,1-.41.58l-6.22,1.05Z" fill="#d1d3d4"></path><path d="M245.5,173.4a.49.49,0,0,1-.41-.21l-4.83-6.54a.5.5,0,0,1,.81-.6l4.83,6.55a.5.5,0,0,1-.11.7A.53.53,0,0,1,245.5,173.4Z" fill="#d1d3d4"></path><path d="M302.89,212.46a.5.5,0,0,1-.48-.34.52.52,0,0,1,.32-.64c4-1.33,8.41-3.1,8.83-3.76a.5.5,0,0,1,.85.53c-.8,1.26-7.37,3.52-9.36,4.18Z" fill="#d1d3d4"></path><path d="M306.48,194a.5.5,0,0,1-.22-.95l5.78-2.72a.49.49,0,0,1,.66.24.5.5,0,0,1-.24.67L306.69,194A.52.52,0,0,1,306.48,194Z" fill="#d1d3d4"></path><path d="M309,184l-.12,0-5.5-1.38A.51.51,0,0,1,303,182a.5.5,0,0,1,.61-.36l5.5,1.38a.5.5,0,0,1-.13,1Z" fill="#d1d3d4"></path><path d="M272.67,165a.5.5,0,0,1-.44-.28.49.49,0,0,1,.22-.67l4.13-2.05a.5.5,0,0,1,.45.9l-4.13,2A.49.49,0,0,1,272.67,165Z" fill="#d1d3d4"></path><path d="M251.15,215.43h0l-8.32-.5a.5.5,0,1,1,.06-1l8.32.5a.49.49,0,0,1,.47.52A.5.5,0,0,1,251.15,215.43Z" fill="#d1d3d4"></path><path d="M240.38,200.1a.5.5,0,0,1-.29-.91l3.19-2.2a.49.49,0,0,1,.69.12.51.51,0,0,1-.12.7l-3.19,2.2A.51.51,0,0,1,240.38,200.1Z" fill="#d1d3d4"></path><path d="M171.74,126.9H107.67A9.73,9.73,0,0,1,98,117.19V73.05a9.73,9.73,0,0,1,9.72-9.71h64.07a9.73,9.73,0,0,1,9.72,9.71v44.14A9.73,9.73,0,0,1,171.74,126.9ZM107.67,64.34A8.73,8.73,0,0,0,99,73.05v44.14a8.73,8.73,0,0,0,8.72,8.71h64.07a8.73,8.73,0,0,0,8.72-8.71V73.05a8.73,8.73,0,0,0-8.72-8.71Z" fill="#d1d3d4"></path><path d="M333.41,126.9H202.75a13.19,13.19,0,0,1-13.17-13.17V76.51a13.19,13.19,0,0,1,13.17-13.17H333.41a13.19,13.19,0,0,1,13.18,13.17v37.22A13.19,13.19,0,0,1,333.41,126.9ZM202.75,64.34a12.18,12.18,0,0,0-12.17,12.17v37.22a12.18,12.18,0,0,0,12.17,12.17H333.41a12.19,12.19,0,0,0,12.18-12.17V76.51a12.19,12.19,0,0,0-12.18-12.17Z" fill="#d1d3d4"></path><path d="M144.37,223.35c-5-1.59-8.78-2-14.12-.3-5.13,1.6-11.38,0-15.69-3.08a9.36,9.36,0,0,1-3.47-3.94c-1-2.57-.22-5.46-.19-8.24.11-7.92-5.89-12.76-8.66-19.55-1.93-4.74-1.11-8.92,0-13.58,1.25-5.32,1-10.7,3.26-15.86s6.29-9.73,11.63-11.49c3.95-1.29,8.21-1,12.36-1,5.8,0,12.11-.32,17.72-1.91,4.73-1.34,8.58-3.4,13.78-2.34,4.36.89,4.71,2.91,7.23,5.78,4.31,4.89,12.65,3.86,17.57,8.06,5.15,4.4,5.09,12.38,3.38,18.93s-4.67,13.07-3.82,19.78c.63,5,3.31,9.54,3.51,14.53.34,8.79-7.49,16.3-16.06,18.31s-17.55-.26-25.82-3.25C146.06,223.91,145.19,223.62,144.37,223.35Z" fill="#fff"></path><path d="M166,228.75c-6.91,0-13.68-2.05-19.18-4-.9-.32-1.75-.62-2.58-.88h0c-4.62-1.48-8.36-2-13.81-.3-4.91,1.53-11.24.3-16.12-3.15a9.72,9.72,0,0,1-3.65-4.16,12.52,12.52,0,0,1-.39-6c.07-.81.15-1.64.16-2.44.07-4.95-2.3-8.64-4.81-12.54a41.79,41.79,0,0,1-3.81-6.82c-1.94-4.75-1.21-8.93,0-13.89.46-2,.73-4,1-5.92a36.53,36.53,0,0,1,2.3-10c2.5-5.81,6.85-10.1,11.93-11.77,3.4-1.12,7-1.07,10.54-1l2,0c4.64,0,11.51-.17,17.57-1.89,1-.29,2-.63,3-.94,3.51-1.17,6.83-2.26,11-1.41,3.5.72,4.61,2.19,6,4,.44.6.91,1.21,1.5,1.89,2.19,2.49,5.47,3.37,8.94,4.3,3,.82,6.19,1.67,8.58,3.71,6.35,5.43,4.58,15.4,3.53,19.44-.42,1.6-.92,3.23-1.41,4.81-1.48,4.82-3,9.81-2.39,14.78a35.79,35.79,0,0,0,1.68,6.49,30.4,30.4,0,0,1,1.83,8.08c.36,9.28-8.08,16.86-16.44,18.82A30.32,30.32,0,0,1,166,228.75Zm-29.19-7.29a24.73,24.73,0,0,1,7.74,1.42h0c.83.26,1.7.56,2.61.89,7.22,2.61,16.64,5.33,25.55,3.24,8-1.87,16-9,15.67-17.81a29.79,29.79,0,0,0-1.78-7.81,35.79,35.79,0,0,1-1.72-6.68c-.66-5.18.91-10.27,2.43-15.2.48-1.56,1-3.18,1.39-4.77,1-3.85,2.71-13.36-3.21-18.42-2.22-1.89-5.26-2.71-8.19-3.5-3.46-.93-7-1.9-9.43-4.61-.62-.71-1.12-1.37-1.55-2-1.38-1.82-2.28-3-5.41-3.67-3.93-.8-7.13.25-10.51,1.37-1,.33-2,.66-3,1-6.18,1.75-13.14,1.92-17.85,1.93l-2,0c-3.43-.05-7-.11-10.21,1-4.82,1.58-9,5.67-11.33,11.21a35.51,35.51,0,0,0-2.23,9.75,59.08,59.08,0,0,1-1,6c-1.16,4.94-1.84,8.79,0,13.29a41.85,41.85,0,0,0,3.72,6.65c2.48,3.85,5,7.84,5,13.09,0,.84-.09,1.7-.17,2.53a11.69,11.69,0,0,0,.33,5.52,8.75,8.75,0,0,0,3.29,3.71c3.8,2.69,10,4.66,15.25,3A22.15,22.15,0,0,1,136.78,221.46Z" fill="#231f20"></path><ellipse cx="145.93" cy="183.21" rx="18.74" ry="18.75" fill="#63C2DE"></ellipse><path d="M145.93,202.46a19.25,19.25,0,1,1,19.25-19.25A19.26,19.26,0,0,1,145.93,202.46Zm0-37.5a18.25,18.25,0,1,0,18.25,18.25A18.26,18.26,0,0,0,145.93,165Z" fill="#231f20"></path><path d="M108.63,174.55a.5.5,0,0,1-.39-.18.52.52,0,0,1,.07-.71l16.5-13.54a.5.5,0,0,1,.7.07.5.5,0,0,1-.07.71l-16.5,13.54A.51.51,0,0,1,108.63,174.55Z" fill="#d1d3d4"></path><path d="M159.33,189.93a.46.46,0,0,1-.23-.05.5.5,0,0,1-.21-.67,16.13,16.13,0,0,0,.51-11.2c-1.67-5.45-7.89-8.47-8-8.5a.51.51,0,0,1-.24-.67.5.5,0,0,1,.67-.23c.27.13,6.68,3.23,8.48,9.11a16.77,16.77,0,0,1-.59,11.95A.48.48,0,0,1,159.33,189.93Z" fill="#fff"></path><path d="M110.12,179.44a.49.49,0,0,1-.41-.21.51.51,0,0,1,.12-.7l10.22-7.18a.5.5,0,0,1,.7.12.51.51,0,0,1-.12.7l-10.22,7.18A.52.52,0,0,1,110.12,179.44Z" fill="#d1d3d4"></path><path d="M80.35,232H68.19a9.41,9.41,0,0,1-9.39-9.4V72.73a9.4,9.4,0,0,1,9.39-9.39H80.35a9.4,9.4,0,0,1,9.39,9.39V222.6A9.41,9.41,0,0,1,80.35,232ZM68.19,64.34a8.39,8.39,0,0,0-8.39,8.39V222.6a8.4,8.4,0,0,0,8.39,8.4H80.35a8.4,8.4,0,0,0,8.39-8.4V72.73a8.39,8.39,0,0,0-8.39-8.39Z" fill="#d1d3d4"></path><path d="M81.48,85.53v23.61a1.25,1.25,0,0,1-1.25,1.25h-.3a1.25,1.25,0,0,1-1.25-1.25V85.53a1.34,1.34,0,0,0-1.35-1.35h-.11a1.34,1.34,0,0,0-1.34,1.35v23.81a1.25,1.25,0,0,1-1.26,1.25h0a1.25,1.25,0,0,1-1.25-1.25V85.53A1.34,1.34,0,0,0,72,84.18H71a1.34,1.34,0,0,0-1.35,1.35v23.71a1.25,1.25,0,0,1-1.25,1.25h0a1.24,1.24,0,0,1-1.25-1.26l.17-23.73A1.34,1.34,0,0,0,66,84.18h-.4a1.33,1.33,0,0,0-1.33,1.19c-.63,5.74-1.94,21.07-1.78,26.43.2,7,7.2,10.6,7.2,10.6s-1,82.43-1.11,88.82c-.13,7.89,2.72,8.43,6.19,8.43s5.16-2.37,5.36-5.78c.3-5.05-1.23-90.67-1.23-90.67,4.8-3.2,7.3-7.7,7.2-12.31-.07-3.55-1.34-19.54-1.92-25.5a1.33,1.33,0,0,0-1.34-1.21h0A1.34,1.34,0,0,0,81.48,85.53Z" fill="#231f20"></path><path d="M74.75,220.19c-1.74,0-3.54-.12-4.86-1.45S68,215,68,211.21c.1-6.11,1-82.84,1.1-88.49-1.39-.8-7-4.42-7.2-10.91-.15-5.2,1.1-20.23,1.78-26.5a1.88,1.88,0,0,1,1.87-1.67H66a1.9,1.9,0,0,1,1.88,1.84l-.18,23.76a.72.72,0,0,0,.72.72.72.72,0,0,0,.73-.72V85.53A1.89,1.89,0,0,1,71,83.64h1a1.89,1.89,0,0,1,1.88,1.89v23.81a.72.72,0,1,0,1.43,0V85.53a1.89,1.89,0,0,1,1.88-1.89h.11a1.89,1.89,0,0,1,1.89,1.89v23.61a.71.71,0,0,0,.71.72h.3a.71.71,0,0,0,.71-.72V85.53a1.88,1.88,0,0,1,3.76-.19c.55,5.74,1.84,21.91,1.92,25.54.11,4.81-2.52,9.39-7.2,12.61.11,6.36,1.52,85.49,1.23,90.41C80.42,217.89,78.27,220.19,74.75,220.19ZM65.58,84.72a.79.79,0,0,0-.8.71c-.68,6.24-1.92,21.19-1.78,26.35.19,6.6,6.85,10.11,6.92,10.15a.54.54,0,0,1,.29.48c0,.82-1,82.5-1.11,88.82-.06,3.42.45,5.63,1.56,6.75.92.94,2.25,1.13,4.09,1.13,3.93,0,4.71-3.3,4.83-5.27.29-5-1.23-89.77-1.24-90.63a.54.54,0,0,1,.24-.45c4.52-3,7.06-7.34,7-11.85-.08-3.62-1.37-19.74-1.92-25.47a.81.81,0,0,0-1.61.09v23.61a1.79,1.79,0,0,1-1.79,1.79h-.3a1.79,1.79,0,0,1-1.79-1.79V85.53a.81.81,0,0,0-.81-.81h-.11a.81.81,0,0,0-.81.81v23.81a1.79,1.79,0,1,1-3.57,0V85.53a.81.81,0,0,0-.81-.81H71a.81.81,0,0,0-.81.81v23.71a1.8,1.8,0,0,1-3.6,0l.18-23.74a.81.81,0,0,0-.81-.77Z" fill="#231f20"></path><path d="M330.25,62.9s-26,21.26-58.57,24.63c-27.26,2.82-64-15.83-73.4-21.61,0,0-4.29,4.66-5.42,5.19s15.41,51,75.41,48.67c51.39-2,65.43-32.69,68.24-55Z" fill="#63C2DE"></path><path d="M264.42,120.35c-49.84,0-69.4-37.63-71.94-48-.23-.93-.27-1.47.17-1.68.76-.36,3.63-3.31,5.26-5.08a.5.5,0,0,1,.63-.09c5,3.09,9.41,5.8,13.32,8.17-5.84-2.75-10.55-5.32-13.49-7.1a46.65,46.65,0,0,1-5.06,4.87c.15,1.77,4.19,13.45,14.79,24.83,10.38,11.15,29.26,24.21,60.15,23,52.85-2,65.13-34.61,67.71-54.19l-5.61-1.63c-2.53,2-27.79,21.38-58.62,24.57a62.74,62.74,0,0,1-11.15.08c3.25-.27,6.88-.65,11.05-1.08,32.05-3.31,58-24.3,58.3-24.51a.51.51,0,0,1,.46-.1l6.26,1.83a.5.5,0,0,1,.36.54c-2.5,19.84-14.75,53.43-68.72,55.49C267,120.33,265.69,120.35,264.42,120.35Z" fill="#231f20"></path><path d="M262.32,103a95.86,95.86,0,0,1-19.6-2.09c-18.51-3.89-30.49-12.37-37.29-18.8-7.38-7-10.33-13-10.45-13.21a.5.5,0,0,1,.9-.44c.11.24,12.11,24.13,47.05,31.47,31.22,6.55,54-3.68,67.54-13.43a87.07,87.07,0,0,0,22.23-23,.5.5,0,0,1,.86.51,87.91,87.91,0,0,1-22.48,23.26A82.75,82.75,0,0,1,262.32,103Z" fill="#231f20"></path><polygon points="330.25 62.9 331.62 51.97 344.81 56.11 336.51 64.73 330.25 62.9" fill="#63C2DE"></polygon><path d="M336.51,65.23a.36.36,0,0,1-.14,0l-6.26-1.83a.5.5,0,0,1-.36-.54l1.38-10.93a.51.51,0,0,1,.22-.36.52.52,0,0,1,.42-.06L345,55.63a.5.5,0,0,1,.33.35.48.48,0,0,1-.12.47l-8.3,8.63A.48.48,0,0,1,336.51,65.23Zm-5.72-2.69,5.57,1.63,7.53-7.83L332,52.62Z" fill="#231f20"></path><path d="M192.86,71.11s-2.15-2-1.31-2.82,3.13-4.19,3.67-4.49,3.06,2.12,3.06,2.12S196.14,70.09,192.86,71.11Z" fill="#231f20"></path><path d="M192.86,71.65a.51.51,0,0,1-.37-.15c-.28-.27-1.68-1.67-1.67-2.76a1.12,1.12,0,0,1,.37-.85,21.76,21.76,0,0,0,1.8-2.24,11,11,0,0,1,2-2.32c.27-.15.88-.5,3.7,2.2a.53.53,0,0,1,.11.63c-.09.18-2.28,4.38-5.74,5.46A.45.45,0,0,1,192.86,71.65Zm2.55-7.32c-.3.29-1,1.25-1.56,2a21.61,21.61,0,0,1-1.94,2.39,3.65,3.65,0,0,0,1.09,1.8c2.34-.9,4.05-3.52,4.61-4.47A11.18,11.18,0,0,0,195.41,64.33Z" fill="#231f20"></path><path d="M125.53,63.62s.3-5.26-.55-5.06-3.11,4.13-3.11,4.13-4-1.36-4.74-.06.76,3.1.76,3.1-4.59.48-3.87,2.15S119,69.35,119.94,69,125.53,63.62,125.53,63.62Z" fill="#231f20"></path><path d="M117.77,69.77c-1.69,0-3.69-.38-4.25-1.68a1.29,1.29,0,0,1,.06-1.21c.55-.92,2.29-1.37,3.39-1.56a3.15,3.15,0,0,1-.31-2.94c.75-1.41,3.61-.75,5-.34.92-1.55,2.37-3.8,3.24-4a.71.71,0,0,1,.64.16c.7.58.69,3.28.57,5.45a.53.53,0,0,1-.15.33c-.78.85-4.73,5.09-5.78,5.49A7.76,7.76,0,0,1,117.77,69.77Zm.81-7.17c-.51,0-.87.09-1,.28-.43.81.38,2.12.7,2.51a.54.54,0,0,1-.36.88c-1.18.12-3.09.58-3.43,1.15a.24.24,0,0,0,0,.25c.52,1.21,4.33,1.15,5.24.8.54-.2,3.06-2.72,5.25-5.08a19.59,19.59,0,0,0-.12-4.14,22,22,0,0,0-2.54,3.7.55.55,0,0,1-.64.25A10.92,10.92,0,0,0,118.58,62.6Zm7,1h0Z" fill="#231f20"></path><path d="M143,87.53c1.46-2.31,1.42-5.59,1.34-8.44a53.77,53.77,0,0,0-1.31-12,12.3,12.3,0,0,0-3.09-6c-2.57-2.44-6.12-2.46-9.33-1.52-5.86,1.72-9.92,5.65-13.56,10.34-1.93,2.5-3.57,5.08-2.38,8.32a13.07,13.07,0,0,0,2.74,4.21A25.37,25.37,0,0,0,130.25,90a17.23,17.23,0,0,0,9.55,0A5.91,5.91,0,0,0,143,87.53Z" fill="#63C2DE"></path><path d="M135.53,91.18a23.45,23.45,0,0,1-5.39-.71,26,26,0,0,1-13.06-7.67,13.29,13.29,0,0,1-2.84-4.37c-1.29-3.52.51-6.28,2.45-8.79C119.9,65.5,124,61,130.51,59.12c2.82-.82,6.82-1.21,9.81,1.64A12.46,12.46,0,0,1,143.55,67a54.07,54.07,0,0,1,1.33,12.13c.07,2.61.18,6.2-1.42,8.72h0a6.41,6.41,0,0,1-3.5,2.68A13.49,13.49,0,0,1,135.53,91.18ZM134.4,59.52a13.13,13.13,0,0,0-3.61.56c-6.19,1.82-10.2,6.16-13.3,10.17-1.86,2.39-3.43,4.79-2.31,7.83a12.4,12.4,0,0,0,2.64,4,25,25,0,0,0,12.55,7.36c3.75.9,6.7.92,9.27.05a5.47,5.47,0,0,0,3-2.28c1.43-2.26,1.33-5.67,1.26-8.15a53.45,53.45,0,0,0-1.29-11.9,11.75,11.75,0,0,0-3-5.73A7.37,7.37,0,0,0,134.4,59.52Zm8.64,28h0Z" fill="#231f20"></path><path d="M131.21,68.22a.86.86,0,0,1-.63,0,2.5,2.5,0,0,1-1.08-1l-.55-.77a1,1,0,0,1-.26-.64.67.67,0,0,1,.66-.57,1.37,1.37,0,0,1,.88.33C130.71,65.91,132.24,67.76,131.21,68.22Z" fill="#fff"></path><path d="M134.89,67.62a1,1,0,0,1-.12-1,.73.73,0,0,1,.81-.25,2.07,2.07,0,0,1,.78.46c.5.41,1.84,1.78,1,2.52S135.21,68.2,134.89,67.62Z" fill="#fff"></path><path d="M132.67,72a2.1,2.1,0,0,1-.4-.77.77.77,0,0,1,.23-.78c.33-.25.8-.07,1.16.14a7.44,7.44,0,0,1,.92.67,2.38,2.38,0,0,1,.82,1.14.88.88,0,0,1-.94,1.19C133.71,73.48,133.05,72.5,132.67,72Z" fill="#fff"></path><path d="M138.81,75.8l.59.58c.39.37.8.88.62,1.38a.89.89,0,0,1-.88.54,2,2,0,0,1-1-.37c-.61-.39-1.89-1.39-1.65-2.26C136.81,74.42,138.27,75.28,138.81,75.8Z" fill="#fff"></path><path d="M133.7,76a1.23,1.23,0,0,1,.39.65c.06.43-.38.81-.82.85-.93.08-3-1.18-2.59-2.34C131.2,73.69,133.17,75.45,133.7,76Z" fill="#fff"></path><path d="M128.06,71.75c.45.43,2.79,2.27,2.62.35-.06-.77-1.09-1.43-1.6-1.9s-.84-.66-1.28-.48a.89.89,0,0,0-.42,1A2.24,2.24,0,0,0,128.06,71.75Z" fill="#fff"></path><path d="M167.06,89.14s4.61-2.55,4-3.17-5.14-.42-5.14-.42-1-4.14-2.49-4-2.22,2.3-2.22,2.3-2.85-3.62-3.88-2.13,1.39,5,2.24,5.6S167.06,89.14,167.06,89.14Z" fill="#231f20"></path><path d="M167.06,89.68H167c-1.14-.21-6.83-1.29-7.74-2s-3.66-4.45-2.36-6.33a1.25,1.25,0,0,1,1-.59c1.07,0,2.38,1.19,3.13,2A3.16,3.16,0,0,1,163.37,81c1.59-.12,2.56,2.65,2.94,4,1.8-.06,4.48,0,5.11.59a.71.71,0,0,1,.21.63c-.12.9-2.41,2.34-4.31,3.39A.59.59,0,0,1,167.06,89.68ZM158,81.86h0a.22.22,0,0,0-.21.13c-.75,1.09,1.34,4.27,2.12,4.86a41.6,41.6,0,0,0,7.1,1.73,20.29,20.29,0,0,0,3.44-2.32,22.25,22.25,0,0,0-4.49-.17.58.58,0,0,1-.55-.41c-.42-1.73-1.3-3.63-1.9-3.63h0c-.91.06-1.57,1.42-1.75,1.93a.54.54,0,0,1-.42.36.52.52,0,0,1-.51-.2C160,83.22,158.65,81.86,158,81.86Z" fill="#231f20"></path><path d="M156.2,116.72c2.74,0,5.49-1.79,7.85-3.38a53.83,53.83,0,0,0,9.46-7.52,12.34,12.34,0,0,0,3.38-5.8c.7-3.47-1.19-6.48-3.7-8.7-4.57-4-10.07-5.37-16-5.94-3.15-.3-6.2-.3-8.3,2.44a13,13,0,0,0-2.1,4.56,25.37,25.37,0,0,0,.49,14.84,17.29,17.29,0,0,0,5.08,8.08A6,6,0,0,0,156.2,116.72Z" fill="#63C2DE"></path><path d="M156.21,117.22h0a6.53,6.53,0,0,1-4.14-1.53c-2.26-1.83-3.92-4.47-5.23-8.31a25.91,25.91,0,0,1-.5-15.14,13.42,13.42,0,0,1,2.18-4.73c2.29-3,5.58-2.92,8.75-2.62,5.2.49,11.21,1.6,16.26,6.06,2.21,2,4.68,5.12,3.86,9.17a12.44,12.44,0,0,1-3.51,6,53.82,53.82,0,0,1-9.54,7.6C162.16,115.22,159.19,117.22,156.21,117.22Zm0-1h0c2.67,0,5.5-1.9,7.56-3.29a53.39,53.39,0,0,0,9.37-7.45,11.57,11.57,0,0,0,3.26-5.56c.72-3.58-1.53-6.45-3.54-8.22-4.84-4.27-10.65-5.34-15.7-5.82-3-.29-5.88-.33-7.85,2.24a12.37,12.37,0,0,0-2,4.39,24.93,24.93,0,0,0,.49,14.55c1.24,3.65,2.8,6.15,4.91,7.86a5.5,5.5,0,0,0,3.52,1.3Z" fill="#231f20"></path><path d="M166.21,96.4a.86.86,0,0,1-.34-.54,2.51,2.51,0,0,1,.28-1.45l.35-.87a1.1,1.1,0,0,1,.4-.56.67.67,0,0,1,.84.25,1.4,1.4,0,0,1,.2.92C167.89,94.75,167.15,97,166.21,96.4Z" fill="#fff"></path><path d="M168.68,99.19c.17-.3.42-.62.76-.62a.73.73,0,0,1,.65.55,2,2,0,0,1,0,.9c-.07.65-.51,2.51-1.57,2.23S168.36,99.78,168.68,99.19Z" fill="#fff"></path><path d="M163.83,99.63a2.35,2.35,0,0,1,.44-.75.77.77,0,0,1,.79-.22c.38.15.48.64.49,1a7.27,7.27,0,0,1-.07,1.14,2.41,2.41,0,0,1-.52,1.3.89.89,0,0,1-1.52-.16C163.09,101.32,163.57,100.24,163.83,99.63Z" fill="#fff"></path><path d="M163.86,106.87l-.17.82c-.11.52-.32,1.14-.84,1.26a.92.92,0,0,1-.93-.46,2,2,0,0,1-.23-1.06c0-.72.16-2.34,1-2.6C164,104.45,164,106.14,163.86,106.87Z" fill="#fff"></path><path d="M160.94,102.68a1.37,1.37,0,0,1-.34.68.87.87,0,0,1-1.16-.24c-.57-.75-.61-3.17.6-3.45C161.58,99.31,161.14,101.92,160.94,102.68Z" fill="#fff"></path><path d="M161.54,95.62c-.13.61-.42,3.57,1.11,2.41.61-.47.62-1.69.75-2.38.08-.47.11-1.05-.29-1.33a.87.87,0,0,0-1.09.2A2.23,2.23,0,0,0,161.54,95.62Z" fill="#fff"></path><path d="M125.31,95.52s.84-5.19,0-5.08-3.52,3.78-3.52,3.78-3.88-1.77-4.71-.55.43,3.17.43,3.17-4.61,0-4.07,1.73,4.76,2,5.79,1.7S125.31,95.52,125.31,95.52Z" fill="#231f20"></path><path d="M118.11,100.9c-1.8,0-4.69-.49-5.21-2.17a1.28,1.28,0,0,1,.19-1.2c.63-.86,2.41-1.12,3.53-1.2a3.13,3.13,0,0,1,0-3c.9-1.32,3.67-.36,5,.18,1.07-1.45,2.75-3.53,3.64-3.65a.76.76,0,0,1,.62.23c.63.65.35,3.34,0,5.48a.61.61,0,0,1-.18.32c-.86.76-5.23,4.57-6.32,4.86A5.3,5.3,0,0,1,118.11,100.9Zm0-7.13c-.32,0-.56.06-.65.2-.52.76.14,2.11.44,2.57a.57.57,0,0,1,0,.55.56.56,0,0,1-.48.28c-1.19,0-3.13.26-3.53.8a.24.24,0,0,0,0,.24c.39,1.26,4.18,1.6,5.13,1.34a41.87,41.87,0,0,0,5.75-4.5,20.18,20.18,0,0,0,.3-4.13,22.27,22.27,0,0,0-2.91,3.41.55.55,0,0,1-.66.18A9.7,9.7,0,0,0,118.15,93.77Zm7.16,1.75h0Z" fill="#231f20"></path><path d="M140.25,121.12c1.69-2.15,2-5.41,2.2-8.25a53.12,53.12,0,0,0-.06-12.09,12.29,12.29,0,0,0-2.45-6.24c-2.3-2.7-5.84-3.08-9.13-2.48-6,1.1-10.45,4.59-14.55,8.88-2.19,2.29-4.08,4.68-3.23,8a13.29,13.29,0,0,0,2.28,4.46,25.34,25.34,0,0,0,12,8.8,17.23,17.23,0,0,0,9.49,1A6,6,0,0,0,140.25,121.12Z" fill="#63C2DE"></path><path d="M134,124.06a20.69,20.69,0,0,1-6.88-1.36,25.87,25.87,0,0,1-12.2-9,13.49,13.49,0,0,1-2.36-4.64c-.92-3.64,1.15-6.19,3.35-8.5,3.61-3.78,8.2-7.81,14.82-9,2.9-.53,6.92-.5,9.6,2.64a12.6,12.6,0,0,1,2.57,6.5A54.56,54.56,0,0,1,143,112.9c-.2,2.62-.47,6.19-2.31,8.53h0a6.45,6.45,0,0,1-3.76,2.31A13.06,13.06,0,0,1,134,124.06Zm-.57-31.75a14.18,14.18,0,0,0-2.52.24c-6.34,1.16-10.78,5.07-14.28,8.74-2.09,2.18-3.9,4.41-3.1,7.55a12.29,12.29,0,0,0,2.2,4.3,24.88,24.88,0,0,0,11.72,8.62c3.64,1.28,6.57,1.6,9.22,1a5.36,5.36,0,0,0,3.19-2h0c1.66-2.1,1.92-5.5,2.11-8a53.76,53.76,0,0,0-.06-12,11.59,11.59,0,0,0-2.34-6A7.73,7.73,0,0,0,133.42,92.31Zm6.83,28.81h0Z" fill="#231f20"></path><path d="M130.48,100.69a.92.92,0,0,1-.63-.07,2.56,2.56,0,0,1-1-1.11l-.46-.82a1,1,0,0,1-.2-.67.68.68,0,0,1,.72-.5,1.44,1.44,0,0,1,.84.42C130.22,98.34,131.55,100.33,130.48,100.69Z" fill="#fff"></path><path d="M134.2,100.48a1,1,0,0,1,0-1,.74.74,0,0,1,.84-.17,2.24,2.24,0,0,1,.72.54c.46.46,1.65,2,.78,2.62S134.46,101.09,134.2,100.48Z" fill="#fff"></path><path d="M131.54,104.55a2.18,2.18,0,0,1-.31-.8.76.76,0,0,1,.31-.76c.36-.21.8,0,1.13.26a6.87,6.87,0,0,1,.85.76,2.37,2.37,0,0,1,.7,1.22.88.88,0,0,1-1.06,1.09C132.42,106.18,131.87,105.14,131.54,104.55Z" fill="#fff"></path><path d="M137.25,109l.53.64c.35.41.71,1,.48,1.43a.93.93,0,0,1-.93.45,1.93,1.93,0,0,1-1-.48c-.57-.45-1.74-1.58-1.41-2.41C135.41,107.43,136.77,108.44,137.25,109Z" fill="#fff"></path><path d="M132.15,108.72a1.3,1.3,0,0,1,.32.68.85.85,0,0,1-.9.76c-.94,0-2.86-1.48-2.34-2.6C129.9,106.13,131.68,108.08,132.15,108.72Z" fill="#fff"></path><path d="M127,103.87c.4.48,2.54,2.55,2.57.62,0-.76-.94-1.53-1.4-2.06-.32-.36-.76-.74-1.22-.6a.89.89,0,0,0-.52,1A2.22,2.22,0,0,0,127,103.87Z" fill="#fff"></path></g></svg>