<svg id="Ebene_1" data-name="Ebene 1" xmlns="http://www.w3.org/2000/svg" viewBox="0 0 280.54 212.76"><defs><style>.cls-1{fill:#fff;}.cls-2{fill:#231f20;}.cls-3{fill:#63c2de;}</style></defs><g id="_571_lunch_break_flatline" data-name=" 571 lunch break flatline"><path class="cls-1" d="M81.19,135.66l10.38,59.66s9.67-2.73,10.15-2.93,5.75-41.39,2.71-50-15.67-16.1-17.94-16.86-5.36,8.22-5.36,8.22" transform="translate(0)"/><path class="cls-2" d="M91.57,195.82a.5.5,0,0,1-.27-.08.48.48,0,0,1-.23-.34l-10.4-59.65a.5.5,0,0,1,.4-.59.51.51,0,0,1,.59.41L92,194.69c3.51-1,8.3-2.36,9.38-2.69.8-3.22,5.45-41.45,2.63-49.39-3-8.62-15.72-15.93-17.62-16.56-1.08-.37-3.31,3.79-4.72,7.9a.52.52,0,0,1-.62.37.51.51,0,0,1-.36-.62.16.16,0,0,1,0-.09c.76-2.21,3.43-9.38,6-8.52,2.73.91,15.23,8.66,18.27,17.17,1.65,4.63.92,18,0,28.35-.59,6.84-1.26,12.45-1.62,15.18-.88,6.9-1,7-1.39,7.1s-9.22,2.65-10.21,2.93Z" transform="translate(0)"/><path class="cls-2" d="M91.57,195.32s-1.28,9.79,1,10.55,30,1.2,29.44-3.18-20.3-10.3-20.3-10.3Z" transform="translate(0)"/><path class="cls-2" d="M101.79,206.87a52,52,0,0,1-9.33-.54c-2.51-.83-1.52-9.35-1.3-11a.44.44,0,0,1,.31-.38L101.62,192a.39.39,0,0,1,.26,0c2,.61,20,6.09,20.58,10.65a1.65,1.65,0,0,1-.7,1.52C119.3,206.19,109.43,206.87,101.79,206.87ZM92,195.7c-.47,3.91-.56,9.36.74,9.79,1.83.62,24.78,1,28.42-2,.44-.35.4-.62.39-.7-.44-3.34-14.33-8.24-19.82-9.89Z" transform="translate(0)"/><path class="cls-1" d="M74,142.1s9.06-.73,10,.79,23,52.43,23,52.43l11.09-5.71s-13-48.31-14.83-52.45-12.75-11.39-20-12.35S74,142.1,74,142.1Z" transform="translate(0)"/><path class="cls-2" d="M107,195.82a.39.39,0,0,1-.46-.27C99,178,84.35,144.37,83.61,143.2c-.47-.77-5.31-.91-9.54-.56a.56.56,0,0,1-.41-.15.54.54,0,0,1-.13-.42c.06-.53,1.54-12.94,6.33-16.69a4.66,4.66,0,0,1,3.56-1c7.47,1,18.5,8.35,20.35,12.61s14.32,50.55,14.86,52.53a.52.52,0,0,1-.27.58l-11.08,5.72A.39.39,0,0,1,107,195.82ZM78.46,141.4c2.63,0,5.4.25,6,1.23.93,1.47,20.4,46.4,22.82,52l10.25-5.29c-1.26-4.64-13-48.13-14.71-52s-12.49-11.09-19.55-12a3.63,3.63,0,0,0-2.79.83c-3.88,3-5.51,12.84-5.87,15.4C75.58,141.48,77,141.4,78.46,141.4Z" transform="translate(0)"/><path class="cls-1" d="M84.05,70.86s3.91-2.43,4.13-3.15,1.92-6.57,3-6.85,1.35.35.71,3.5c0,0,5.36-6,6.86-5.14s2,4.49,1.5,6.09S90.86,75,88.22,77.49Z" transform="translate(0)"/><path class="cls-2" d="M88.18,78.09h-.07a.47.47,0,0,1-.37-.23l-4.13-6.72a.51.51,0,0,1,.16-.69,20.57,20.57,0,0,0,3.93-2.88c2-6.83,3-7.11,3.35-7.19a1.37,1.37,0,0,1,1.28.21c.37.36.49,1,.35,2.19,2-2,5-4.77,6.32-4,1.75,1,2.36,4.94,1.73,6.76-.49,1.4-5.54,6.18-10.67,11L88.52,78A.44.44,0,0,1,88.18,78.09ZM84.74,71l3.54,5.75,1.09-1c3-2.78,9.95-9.29,10.4-10.57.53-1.52-.09-4.86-1.27-5.54-.6-.33-3.57,2-6.23,5.08a.52.52,0,0,1-.72,0,.52.52,0,0,1-.16-.47c.5-2.46.31-2.88.24-3h0a.62.62,0,0,0-.33,0c-.29.15-1.2,1.68-2.62,6.43-.23.83-2.4,2.32-3.94,3.29Z" transform="translate(0)"/><path class="cls-3" d="M54.16,82.56,84,69.1l6.77,7.11S80.36,92.45,71.6,92.14,54.16,82.56,54.16,82.56Z" transform="translate(0)"/><path class="cls-2" d="M101.72,82.56h24.19V86.4a11.47,11.47,0,0,1-11.47,11.47h-1.26A11.47,11.47,0,0,1,101.71,86.4h0V82.56h0Z" transform="translate(0)"/><path class="cls-2" d="M114.43,98.36h-1.26a12,12,0,0,1-12-12V82.56a.51.51,0,0,1,.51-.51h24.18a.51.51,0,0,1,.51.51V86.4A12,12,0,0,1,114.43,98.36ZM102.25,83.07V86.4a11,11,0,0,0,11,10.95h1.26a11,11,0,0,0,11-10.95V83Z" transform="translate(0)"/><path class="cls-1" d="M93.22,89.19c.19.28,8,1.42,9.34,1.13s2.38-2.37,3.71-2.56,7.34-.16,9.14,1.31,3.43,9.08,2.38,9.65-12.76-.49-14.86-.58S90.75,98,90.75,98Z" transform="translate(0)"/><path class="cls-2" d="M115.85,99.39c-2,0-5.48-.21-10.15-.56-1.26-.09-2.26-.16-2.75-.18-2-.1-12.06-.1-12.18-.1a.5.5,0,0,1-.5-.49.39.39,0,0,1,0-.15l2.47-8.86a.52.52,0,0,1,.42-.37.49.49,0,0,1,.37.09c.81.31,7.79,1.3,8.94,1a4,4,0,0,0,1.56-1.15,4.33,4.33,0,0,1,2.18-1.43c1.31-.18,7.54-.18,9.53,1.42,1.7,1.36,3.1,7,2.89,9.3a1.39,1.39,0,0,1-.58,1.19A6,6,0,0,1,115.85,99.39ZM91.41,97.53c2.31,0,9.76,0,11.55.1.49,0,1.5.09,2.77.19,3.28.24,11,.8,11.84.44.52-.75-.91-7.55-2.47-8.8s-7.48-1.39-8.76-1.21a3.77,3.77,0,0,0-1.61,1.15,4.55,4.55,0,0,1-2,1.42c-1.5.33-7-.57-9.07-1.08Z" transform="translate(0)"/><path class="cls-3" d="M49.31,45.59S55.22,51.27,56,56s-1.15,50.35,4.57,64.56l27.63,3.62L77.7,142.92H28.41l-10.7-41.61s3.41-28.93,9.14-47.22,15.81-19,22.48-8.54" transform="translate(0)"/><polygon class="cls-1" points="74.71 152.23 84.05 207.87 89.76 207.87 79.76 148.5 74.71 152.23"/><path class="cls-2" d="M89.76,208.38H84.05a.52.52,0,0,1-.51-.43l-9.33-55.64a.52.52,0,0,1,.19-.49l5.08-3.74A.51.51,0,0,1,80,148a.52.52,0,0,1,.31.38l10,59.39a.47.47,0,0,1-.11.41A.49.49,0,0,1,89.76,208.38Zm-5.29-1h4.69l-9.77-58-4.14,3Z" transform="translate(0)"/><path class="cls-1" d="M83.28,152.23H20.6L.51,69.1s8.27,4.72,10.57,9.25,17.33,64.57,17.33,64.57H84.05Z" transform="translate(0)"/><path class="cls-2" d="M83.28,152.74H20.6a.49.49,0,0,1-.49-.39L0,69.22a.52.52,0,0,1,.38-.61.55.55,0,0,1,.36,0c.35.2,8.45,4.85,10.77,9.46,2.22,4.39,15.88,58.67,17.26,64.26H84a.54.54,0,0,1,.38.17.52.52,0,0,1,.13.38l-.76,9.34A.52.52,0,0,1,83.28,152.74Zm-62.28-1H82.82l.67-8.32H28.41a.5.5,0,0,1-.49-.39c-.16-.6-15.07-60-17.26-64.43-1.71-3.41-7.1-7-9.34-8.41Z" transform="translate(0)"/><polygon class="cls-1" points="28.98 152.23 16.41 207.87 11.45 207.87 22.88 152.23 28.98 152.23"/><path class="cls-2" d="M16.46,208.38h-5a.53.53,0,0,1-.39-.18.55.55,0,0,1-.11-.43l11.43-55.64a.53.53,0,0,1,.5-.41H29a.52.52,0,0,1,.51.53s0,.06,0,.09L16.9,208A.49.49,0,0,1,16.46,208.38Zm-4.34-1h3.93l12.34-54.62H23.32Z" transform="translate(0)"/><rect class="cls-1" x="75.55" y="98.72" width="144.59" height="5.27"/><path class="cls-2" d="M220.14,104.48H75.55A.5.5,0,0,1,75,104V98.72a.51.51,0,0,1,.51-.51H220.14a.5.5,0,0,1,.5.51V104A.5.5,0,0,1,220.14,104.48ZM76,103.47H219.63V99.28H76.06Z" transform="translate(0)"/><polygon class="cls-1" points="205.87 152.23 196.53 207.87 190.81 207.87 200.81 148.5 205.87 152.23"/><path class="cls-2" d="M196.53,208.38h-5.72a.5.5,0,0,1-.49-.59l10-59.39a.52.52,0,0,1,.31-.38.53.53,0,0,1,.5.06l5.07,3.74a.52.52,0,0,1,.19.49L197.06,208A.53.53,0,0,1,196.53,208.38Zm-5.08-1h4.66l9.22-54.91-4.14-3Z" transform="translate(0)"/><path class="cls-1" d="M197.29,152.23H260L280.06,69.1s-8.27,4.72-10.56,9.25-17.34,64.57-17.34,64.57H196.53Z" transform="translate(0)"/><path class="cls-2" d="M260,152.74H197.29a.54.54,0,0,1-.51-.47l-.76-9.34a.52.52,0,0,1,.13-.38.56.56,0,0,1,.38-.17h55.23c1.41-5.59,15.08-59.88,17.26-64.26,2.32-4.61,10.42-9.26,10.77-9.46a.52.52,0,0,1,.69.2.5.5,0,0,1,0,.36l-20.1,83.13A.5.5,0,0,1,260,152.74Zm-62.22-1h61.81l19.77-81.55c-2.27,1.41-7.62,5-9.34,8.41C267.77,83,252.86,142.41,252.75,143a.51.51,0,0,1-.5.39H197.13Z" transform="translate(0)"/><polygon class="cls-1" points="158.05 175.21 153.83 187.52 162.62 192.07 168.9 175.21 158.05 175.21"/><path class="cls-2" d="M162.62,192.58a.48.48,0,0,1-.24-.06L153.59,188a.52.52,0,0,1-.24-.62l4.19-12.31a.52.52,0,0,1,.49-.35h10.85a.56.56,0,0,1,.43.21.55.55,0,0,1,0,.47L163,192.24a.55.55,0,0,1-.29.31Zm-8.12-5.3,7.89,4.06,5.83-15.64h-9.77Z" transform="translate(0)"/><polygon class="cls-1" points="178.48 186.43 175.67 197.5 184.34 200.07 188.55 188.71 178.48 186.43"/><path class="cls-2" d="M184.34,200.57a.33.33,0,0,1-.14,0L175.53,198a.52.52,0,0,1-.36-.61L178,186.32a.5.5,0,0,1,.61-.37l10.07,2.28a.59.59,0,0,1,.34.26.51.51,0,0,1,0,.42l-4.22,11.36A.5.5,0,0,1,184.34,200.57Zm-8.06-3.42,7.74,2.3,3.85-10.38-9-2Z" transform="translate(0)"/><path class="cls-2" d="M207.8,115.77c-1,.36-29.76,6.57-33.56,10s-19.81,49.53-19.81,49.53l15,5.91,27.24-41.54Z" transform="translate(0)"/><path class="cls-2" d="M169.48,181.65a.22.22,0,0,1-.16,0l-15.06-5.9a.45.45,0,0,1-.26-.56c.66-1.89,16.09-46.25,19.94-49.74,2.83-2.53,17.87-6.32,30.66-9.33,1.61-.39,2.88-.68,3-.74a.43.43,0,0,1,.49.12.45.45,0,0,1,.08.48l-11.08,23.9-27.28,41.61A.44.44,0,0,1,169.48,181.65Zm-14.5-6.6,14.33,5.61,27-41.23,10.65-23-2.19.53c-7.45,1.75-27.24,6.41-30.26,9.13S160.59,159,155,175.05Z" transform="translate(0)"/><path class="cls-2" d="M253.68,123.29s1,16.48-9.9,18.49S202,142.92,202,142.92s-7.46,36.54-12.56,48.31l-16.81-4.57s7.81-53.74,11.91-59.17,30.33-14.21,30.33-14.21Z" transform="translate(0)"/><path class="cls-2" d="M189.43,191.64h-.11l-16.82-4.56a.43.43,0,0,1-.32-.49c.31-2.21,7.87-53.92,12-59.38s29.44-14,30.56-14.38a.36.36,0,0,1,.25,0l38.82,10a.44.44,0,0,1,.34.4c0,.17.85,16.9-10.27,19-10.15,1.87-37.94,1.25-41.51,1.16-.8,3.88-7.72,37-12.5,48A.47.47,0,0,1,189.43,191.64Zm-16.31-5.34,16.06,4.36c5-11.92,12.29-47.49,12.37-47.86a.44.44,0,0,1,.45-.35c.31,0,31,.83,41.69-1.14,9.53-1.76,9.62-15.4,9.56-17.69l-38.37-9.92c-2,.66-26.17,9-30,14s-11,53.7-11.77,58.59Z" transform="translate(0)"/><path class="cls-1" d="M197.88,46.22c-1.37-2.09-2.08-6.29-4.45-7.18a16.18,16.18,0,0,0-7.83-.86,3.56,3.56,0,0,0-1.81.66,4,4,0,0,0-1,2.84l-.17,2.38a3.06,3.06,0,0,0,.62,2.59c1,.88,2.64.08,3.94.48s1.81,1.77,2.71,2.67a22.53,22.53,0,0,1,2.67,2.68C192.39,52.22,197.35,46.85,197.88,46.22Z" transform="translate(0)"/><path class="cls-2" d="M192.57,53a.51.51,0,0,1-.41-.2A11.51,11.51,0,0,0,190.49,51c-.31-.27-.62-.55-1-.88a11.64,11.64,0,0,1-.85-1,3.51,3.51,0,0,0-1.64-1.5,4.44,4.44,0,0,0-1.54-.06,3.33,3.33,0,0,1-2.58-.52,3.5,3.5,0,0,1-.8-3.05l.18-2.38a4.33,4.33,0,0,1,1.15-3.18,3.87,3.87,0,0,1,2-.77,16.62,16.62,0,0,1,8.12.87c1.78.67,2.65,2.79,3.5,4.84a15.92,15.92,0,0,0,1.2,2.54.5.5,0,0,1,0,.61c-.11.14-.44.51-.89,1-1.09,1.21-3.93,4.37-4.29,5a.5.5,0,0,1-.51.42Zm-6.3-6.48a3.85,3.85,0,0,1,1,.14,4.37,4.37,0,0,1,2.22,1.89,7.51,7.51,0,0,0,.75.92c.32.32.61.58.91.84a14,14,0,0,1,1.35,1.32c.58-.76,1.77-2.13,4.11-4.72l.63-.7a20.46,20.46,0,0,1-1.09-2.38c-.76-1.85-1.55-3.77-2.91-4.28a15.53,15.53,0,0,0-7.58-.82,3.11,3.11,0,0,0-1.56.54,3.59,3.59,0,0,0-.81,2.48l-.17,2.38a2.66,2.66,0,0,0,.45,2.17,2.5,2.5,0,0,0,1.85.28A3.82,3.82,0,0,1,186.27,46.5Z" transform="translate(0)"/><path class="cls-3" d="M229.71,65l-31.78-21.2-8.12,7.85S214.55,83.34,223.13,80,229.71,65,229.71,65Z" transform="translate(0)"/><path class="cls-2" d="M159.38,82.56h24.2V86.4a11.48,11.48,0,0,1-11.47,11.47h-1.27A11.47,11.47,0,0,1,159.37,86.4h0V82.56h0Z" transform="translate(0)"/><path class="cls-2" d="M172.11,98.36h-1.26a12,12,0,0,1-12-12V82.56a.51.51,0,0,1,.51-.51h24.2a.5.5,0,0,1,.5.51V86.4A12,12,0,0,1,172.11,98.36ZM159.93,83.07V86.4a11,11,0,0,0,11,10.95h1.26a11,11,0,0,0,11-10.95V83Z" transform="translate(0)"/><path class="cls-1" d="M187.29,87.85s-6.76,1.24-8,.48-3.24-2.71-5.13-3.17-6.39-.36-6.19.69,3,.38,4,1.81c0,0-8.57-1.14-9.13.29s-.19,4.85,1.24,6.28,10.86,1.15,13.05,2,10.57,0,10.57,0Z" transform="translate(0)"/><path class="cls-2" d="M180.89,97.12a13.51,13.51,0,0,1-4-.41,28,28,0,0,0-5.32-.66c-4.19-.31-7-.57-7.91-1.46-1.6-1.61-2-5.29-1.35-6.83.42-1,3.05-1.16,5.81-1a1.1,1.1,0,0,1-.69-.82.9.9,0,0,1,.28-.81c1-.94,4.88-.85,6.53-.46A12.28,12.28,0,0,1,178.34,87a14.08,14.08,0,0,0,1.25.89c.67.41,4.4,0,7.64-.54a.51.51,0,0,1,.41.1.56.56,0,0,1,.19.38l.37,8.38a.5.5,0,0,1-.45.53C187.49,96.76,183.93,97.12,180.89,97.12Zm-14.77-9.38c-1.55,0-2.63.13-2.82.4-.5,1.23-.18,4.43,1.12,5.74.7.69,4.49,1,7.26,1.15a26,26,0,0,1,5.62.73c1.6.62,7.26.26,9.86,0l-.34-7.33c-1.86.32-6.59,1-7.78.31-.39-.24-.84-.59-1.33-1a11.44,11.44,0,0,0-3.66-2.14c-1.78-.43-4.92-.26-5.54.16a4.8,4.8,0,0,0,1.12.26,3.81,3.81,0,0,1,2.76,1.3.5.5,0,0,1-.15.7.46.46,0,0,1-.34.08,45,45,0,0,0-5.8-.4Z" transform="translate(0)"/><path class="cls-1" d="M236.85,9.12a6.94,6.94,0,0,0-1.57-.39c-2.12-.24-2.16.22-3.81-1.16a15.53,15.53,0,0,0-8.7-3.32c-6.09-.4-10.57,2.66-9.14,9.37a19.65,19.65,0,0,0,3.58,7.31c3.45,4.79,8.34,9.13,14.21,9.58,1.75.13,5,0,6.3-1.43A15.87,15.87,0,0,0,241,13.92a8.81,8.81,0,0,0-1.59-3.05A6.31,6.31,0,0,0,236.85,9.12Z" transform="translate(0)"/><path class="cls-2" d="M232.43,31.05h-1.08c-6.59-.5-11.57-5.59-14.59-9.78a19.58,19.58,0,0,1-3.67-7.51c-.62-3-.13-5.52,1.4-7.28,1.72-2,4.66-2.94,8.31-2.69a15.86,15.86,0,0,1,9,3.43c1.08.91,1.3.92,2.2,1a7.12,7.12,0,0,1,1.34.1,6.72,6.72,0,0,1,1.7.42h0a6.67,6.67,0,0,1,2.72,1.85,9.19,9.19,0,0,1,1.68,3.22,16.23,16.23,0,0,1-3.34,15.65C236.79,30.84,234,31.05,232.43,31.05ZM221.71,4.72c-2.83,0-5.08.83-6.45,2.37s-1.73,3.75-1.17,6.43a18.6,18.6,0,0,0,3.5,7.1c2.89,4.06,7.64,8.91,13.84,9.37,2.14.16,4.9-.16,5.88-1.27a15.22,15.22,0,0,0,3.13-14.65,8.44,8.44,0,0,0-1.5-2.88,5.54,5.54,0,0,0-2.23-1.59h0a6,6,0,0,0-1.44-.36c-.54-.06-.94-.08-1.27-.09a3.68,3.68,0,0,1-2.85-1.22,15.08,15.08,0,0,0-8.43-3.2Z" transform="translate(0)"/><path class="cls-1" d="M221,35.71v9.22a6.76,6.76,0,0,0,8.2,3.6c6-1.54,6.78-5.88,6.78-5.88l-.24-17.13s-4.56-2.37-3.35-12.11a30,30,0,0,1-15.72,2.37s-1.84,10.68-1.23,15.39C216.07,35.73,220.88,35.64,221,35.71Z" transform="translate(0)"/><path class="cls-2" d="M227,49.28a7.29,7.29,0,0,1-6.5-4.15.67.67,0,0,1,0-.2V36.16c-3.18-.37-5.12-2.12-5.51-4.92-.65-4.73,1.13-15.1,1.2-15.54a.51.51,0,0,1,.56-.41A30,30,0,0,0,232.11,13a.55.55,0,0,1,.53,0,.5.5,0,0,1,.21.48c-1.14,9.24,3.05,11.57,3.05,11.59a.53.53,0,0,1,.27.44l.28,17.09c0,.28-.89,4.77-7.17,6.37A9.36,9.36,0,0,1,227,49.28Zm-5.5-4.46c.31.66,2.39,4.48,7.56,3.17,5.62-1.43,6.37-5.31,6.4-5.47l-.27-16.72c-1-.67-4.16-3.51-3.41-11.56a30.74,30.74,0,0,1-14.69,2.1c-.34,2.11-1.67,10.74-1.12,14.76.33,2.42,2,3.83,4.9,4.06a.73.73,0,0,1,.43.13.49.49,0,0,1,.2.4Z" transform="translate(0)"/><path class="cls-1" d="M232.11,25.26a4.07,4.07,0,0,1,1.31-2.13,6.81,6.81,0,0,1,2.11-1.08,3,3,0,0,1,1.28-.26,2.66,2.66,0,0,1,.87.31,3.1,3.1,0,0,1,1.48,1.51,3.62,3.62,0,0,1,.09,1.73,6.51,6.51,0,0,1-.45,1.85,4.78,4.78,0,0,1-6.25,2.6l-.06,0" transform="translate(0)"/><path class="cls-2" d="M234.38,30.66a5.34,5.34,0,0,1-2.09-.42.52.52,0,0,1-.27-.67.49.49,0,0,1,.65-.27h0A4.35,4.35,0,0,0,238.34,27a6.94,6.94,0,0,0,.4-1.69,3.27,3.27,0,0,0-.07-1.49,2.62,2.62,0,0,0-1.25-1.25,2,2,0,0,0-.68-.24,2.51,2.51,0,0,0-1,.22,6.54,6.54,0,0,0-2,1,3.47,3.47,0,0,0-1.12,1.83.52.52,0,0,1-.62.4.51.51,0,0,1-.39-.62,4.31,4.31,0,0,1,1.48-2.4,7,7,0,0,1,2.26-1.18,3.37,3.37,0,0,1,1.5-.28,3,3,0,0,1,1,.36,3.49,3.49,0,0,1,1.7,1.79,4.11,4.11,0,0,1,.14,2,8,8,0,0,1-.48,2,5.35,5.35,0,0,1-4.88,3.22Z" transform="translate(0)"/><path class="cls-1" d="M221.3,21.93s-3.27,4.66-2.54,5.51,2.86.34,2.86.34" transform="translate(0)"/><path class="cls-2" d="M220.33,28.43a2.59,2.59,0,0,1-2-.66c-.83-.94.91-3.86,2.52-6.09a.51.51,0,0,1,.69-.18.52.52,0,0,1,.18.7l-.05.07c-1.51,2.14-2.7,4.43-2.56,4.91.38.42,1.75.29,2.35.14a.52.52,0,0,1,.6.39.5.5,0,0,1-.36.6h0A7.28,7.28,0,0,1,220.33,28.43Z" transform="translate(0)"/><ellipse class="cls-2" cx="223.93" cy="20.9" rx="0.78" ry="1.11" transform="translate(-0.86 13.83) rotate(-3.53)"/><ellipse class="cls-2" cx="217.16" cy="20.93" rx="1.11" ry="0.78" transform="translate(181.06 236.09) rotate(-85.98)"/><path class="cls-2" d="M221.14,31.27a18.4,18.4,0,0,1-2.57-.18.51.51,0,0,1-.42-.59.5.5,0,0,1,.58-.42h0s5.14.82,7.6-1.16a.5.5,0,1,1,.65.77h0A9.84,9.84,0,0,1,221.14,31.27Z" transform="translate(0)"/><path class="cls-2" d="M221,35.71s5.73,1.33,9.13-.61c0,0-3.74,7.73-9.13,6.93Z" transform="translate(0)"/><path class="cls-2" d="M221.75,42.6a6.36,6.36,0,0,1-.87-.06.52.52,0,0,1-.43-.51V35.71a.52.52,0,0,1,.53-.51h.09c.06,0,5.59,1.26,8.76-.55a.51.51,0,0,1,.69.19.49.49,0,0,1,0,.47C230.39,35.64,227,42.6,221.75,42.6Zm-.28-1c3.44.19,6.19-3.42,7.43-5.42a17,17,0,0,1-7.41.19Z" transform="translate(0)"/><path class="cls-3" d="M240.34,39.84c-3.42-2.67-19.68-1.15-23.17,5.34s-5.4,67.06-5.4,67.06l43.7,14.29s1.27-60-3.88-71.45S243.82,42.51,240.34,39.84Z" transform="translate(0)"/><path class="cls-3" d="M221,53.18l-3.79,26.67-31.46,7.43-1.14,10.47s42.77,3.44,47.58-2.66,8.43-37.72,8.43-37.72Z" transform="translate(0)"/><path class="cls-2" d="M194.64,85.67a.51.51,0,0,1-.56-.46.51.51,0,0,1,.45-.56l22.2-5.24,3.74-21.84a.49.49,0,0,1,.55-.42h0a.51.51,0,0,1,.42.57h0l-3.79,22.2a.49.49,0,0,1-.39.41l-22.52,5.32Z" transform="translate(0)"/><path class="cls-2" d="M213.37,99.28a.51.51,0,1,1,0-1c.14,0,13.83-.07,19.73-5.8,9-8.71,6.26-29,6.23-29.26a.51.51,0,0,1,.44-.56.48.48,0,0,1,.56.41h0c.13.86,2.8,21.06-6.53,30.13C227.58,99.16,213.91,99.28,213.37,99.28Z" transform="translate(0)"/><path class="cls-2" d="M213.37,79.19h0a.49.49,0,0,1-.47-.52v0c.09-1.16,2.28-28.62,3-31.14a.52.52,0,0,1,.63-.35.51.51,0,0,1,.35.63v0c-.61,1.92-2.24,21-3,30.9A.5.5,0,0,1,213.37,79.19Z" transform="translate(0)"/><path class="cls-1" d="M181.94,26.12l12.94,3.33h0L188.56,54a3.61,3.61,0,0,1-4.38,2.59l-6-1.55a3.59,3.59,0,0,1-2.59-4.37l6.32-24.57Z" transform="translate(0)"/><path class="cls-2" d="M185.06,57.28a3.92,3.92,0,0,1-1-.14l-6-1.51a4.06,4.06,0,0,1-3-4.92s0-.05,0-.07L181.44,26a.51.51,0,0,1,.62-.36h0L195,29a.48.48,0,0,1,.32.23.53.53,0,0,1,0,.39L189,54.2a4.08,4.08,0,0,1-4,3ZM182.3,26.75l-6.2,24.12a3,3,0,0,0,2.14,3.74l.07,0,6,1.53h0A3,3,0,0,0,188,54a.19.19,0,0,0,0-.07l6.21-24.13Z" transform="translate(0)"/><path class="cls-3" d="M185,54.31l-6.09-1.57a1.61,1.61,0,0,1-1.16-2h0l3.51-13.19h9.68l-4,15.58a1.63,1.63,0,0,1-2,1.16Z" transform="translate(0)"/><path class="cls-1" d="M194.91,42.34a8.21,8.21,0,0,0-.72-2.57,1.71,1.71,0,0,0-.83-1,2,2,0,0,0-.69-.06,18.47,18.47,0,0,0-5.61,1,2.2,2.2,0,0,0-.81.44c-.69.65-.13,1.55.56,1.9a3.91,3.91,0,0,0,1.29.34,11.61,11.61,0,0,0,3.43-.17,2.83,2.83,0,0,0,.19,4,2.64,2.64,0,0,0,.61.42l.24-.07" transform="translate(0)"/><path class="cls-2" d="M192.33,47.23a.48.48,0,0,1-.24-.06,3.37,3.37,0,0,1-1.74-2.36,3.2,3.2,0,0,1,.19-1.81,13,13,0,0,1-2.49,0,4.15,4.15,0,0,1-1.47-.38,2.12,2.12,0,0,1-1.14-1.48,1.38,1.38,0,0,1,.46-1.24,2.59,2.59,0,0,1,1-.55,18.26,18.26,0,0,1,5.76-1.09,1.88,1.88,0,0,1,.88.1,2.07,2.07,0,0,1,1.12,1.2,9,9,0,0,1,.77,2.72.5.5,0,1,1-1,.13h0a8.49,8.49,0,0,0-.69-2.42c-.12-.25-.3-.6-.55-.69a1.35,1.35,0,0,0-.49,0,17.47,17.47,0,0,0-5.45,1,2.38,2.38,0,0,0-.65.34.36.36,0,0,0-.14.36,1.11,1.11,0,0,0,.6.72,3.48,3.48,0,0,0,1.1.27,11.27,11.27,0,0,0,3.28-.15.49.49,0,0,1,.54.25.51.51,0,0,1-.06.59,2.33,2.33,0,0,0-.57,2,2.41,2.41,0,0,0,1,1.54h0a.51.51,0,0,1,.66.25l0,0a.51.51,0,0,1-.34.63l-.24.08Z" transform="translate(0)"/><path class="cls-2" d="M153.83,187.52s-17-1.21-17.7,0a7.73,7.73,0,0,0-.76,2.74s24,10.57,24.86,9.81,2.39-8,2.39-8Z" transform="translate(0)"/><path class="cls-2" d="M160.18,200.51c-1,0-5.26-1.15-25-9.84a.45.45,0,0,1-.26-.44,7.63,7.63,0,0,1,.81-2.92c.67-1.21,10.22-.79,18.12-.24a.49.49,0,0,1,.17.06l8.79,4.51a.44.44,0,0,1,.23.49c-.36,1.73-1.62,7.45-2.51,8.24C160.48,200.45,160.41,200.51,160.18,200.51ZM135.82,190c8.66,3.8,22.43,9.62,24.15,9.68.47-.65,1.43-4.17,2.11-7.35L153.67,188c-7.85-.55-16.42-.77-17.25-.16a6.82,6.82,0,0,0-.57,2.18Z" transform="translate(0)"/><path class="cls-2" d="M184.34,200.07s.19,6.48-.57,7.24-25.21.57-25.21.57a23.09,23.09,0,0,1,.47-2.72c.3-1,16.68-7.62,16.68-7.62" transform="translate(0)"/><path class="cls-2" d="M167.1,208.33h-8.58a.53.53,0,0,1-.34-.15.44.44,0,0,1-.1-.35,20.36,20.36,0,0,1,.49-2.79c.28-1,9.36-4.88,16.93-7.92a.47.47,0,0,1,.59.26.46.46,0,0,1-.26.58h0c-7.53,3-15.85,6.63-16.43,7.39-.16.69-.29,1.39-.38,2.09,9.14.08,23.44,0,24.5-.46.31-.39.45-3.88.37-6.85a.45.45,0,1,1,.89,0c.06,2,.12,6.76-.7,7.57C183.52,208.19,175.16,208.33,167.1,208.33Z" transform="translate(0)"/><polygon class="cls-1" points="251.59 152.23 264.17 207.87 269.12 207.87 257.69 152.23 251.59 152.23"/><path class="cls-2" d="M269.12,208.38h-4.95a.5.5,0,0,1-.5-.4l-12.58-55.64a.53.53,0,0,1,.41-.61h6.18a.52.52,0,0,1,.5.41l11.43,55.64a.55.55,0,0,1-.1.43A.57.57,0,0,1,269.12,208.38Zm-4.55-1h3.93l-11.22-54.62H252.2Z" transform="translate(0)"/><polygon class="cls-1" points="196.43 103.98 216.37 212.26 221.86 212.26 203.54 103.98 196.43 103.98"/><path class="cls-2" d="M221.86,212.76h-5.45a.5.5,0,0,1-.5-.41l-20-108.27a.52.52,0,0,1,.42-.6h7.18a.51.51,0,0,1,.5.43L222.3,212.18a.56.56,0,0,1-.11.41A.49.49,0,0,1,221.86,212.76Zm-5.07-1h4.45L203.11,104.48H197Z" transform="translate(0)"/><polygon class="cls-1" points="99.26 103.98 79.31 212.26 73.82 212.26 92.14 103.98 99.26 103.98"/><path class="cls-2" d="M79.32,212.76h-5.5a.47.47,0,0,1-.38-.17.48.48,0,0,1-.11-.41L91.6,103.9a.5.5,0,0,1,.49-.43H99.2a.51.51,0,0,1,.5.53v.08L79.81,212.35A.49.49,0,0,1,79.32,212.76Zm-4.9-1h4.47L98.67,104.48H92.58Z" transform="translate(0)"/><path class="cls-3" d="M48.1,57.74s10.07,22,15.23,24.06,31.63,5,31.63,5L97.48,98s-33.64,5.32-47.38,1.32-14.36-24-13.47-37S43.48,48.79,48.1,57.74Z" transform="translate(0)"/><path class="cls-2" d="M62.28,101.46c-6.09,0-14.21-.59-18.41-3.47-6.93-4.8-11.07-21.69-11.24-22.4A.51.51,0,0,1,33,75a.51.51,0,0,1,.62.37c0,.18,4.22,17.26,10.84,21.81s25,3,25.21,3a.51.51,0,0,1,.55.47.52.52,0,0,1-.47.55C69.44,101.2,66.33,101.46,62.28,101.46Z" transform="translate(0)"/><path class="cls-1" d="M128.76,70h13.9v25.1A3.66,3.66,0,0,1,139,98.72h-6.58a3.66,3.66,0,0,1-3.66-3.67h0V70Z" transform="translate(0)"/><path class="cls-2" d="M139,99.28h-6.58a4.18,4.18,0,0,1-4.17-4.17V70a.5.5,0,0,1,.51-.5h13.9a.5.5,0,0,1,.51.5v25.1A4.19,4.19,0,0,1,139,99.28Zm-9.74-28.77v24.6a3.16,3.16,0,0,0,3.16,3.15H139a3.15,3.15,0,0,0,3.15-3.15h0V70.46Z" transform="translate(0)"/><path class="cls-3" d="M130.64,77.09h10.15V94a2.63,2.63,0,0,1-2.63,2.63h-4.88A2.63,2.63,0,0,1,130.65,94V77.09Z" transform="translate(0)"/><path class="cls-2" d="M86.55,86.31h0c-.66,0-16.09-.41-23.45-4.06S48,58.76,47.65,57.89a.51.51,0,0,1,.28-.65.51.51,0,0,1,.66.28c.08.2,7.87,20.3,14.95,23.78s22.87,4,23,4a.51.51,0,0,1,.51.51.5.5,0,0,1-.51.5Z" transform="translate(0)"/><path class="cls-2" d="M106.84,195.15s.71,12.44,2.57,12.72,29.64-10.28,29.64-12.55-3.05-3.25-6.91-4.6c-.43-.15-14-1.13-14-1.13Z" transform="translate(0)"/><path class="cls-2" d="M109.47,208.32h-.13c-2-.32-2.72-9.3-2.94-13.2a.44.44,0,0,1,.25-.42L118,189.19a.45.45,0,0,1,.23,0c4.06.29,13.68,1,14.12,1.14l.46.17c3.76,1.31,6.74,2.35,6.74,4.86a1.46,1.46,0,0,1-.64,1C135.44,199.24,112.27,208.32,109.47,208.32Zm-2.16-12.89c.38,6.35,1.36,11.82,2.17,12,1.74.2,28.42-10,29.12-12.18,0-1.84-2.72-2.8-6.15-4l-.46-.16c-.49-.11-8.46-.72-13.77-1.1Z" transform="translate(0)"/><path class="cls-1" d="M56.36,8.82s5.71,18.27,1.9,22.39-8.77,1.72-8.95,2,0,12.38,0,12.38L36.63,40.83V19.63C36.63,12.06,50.83-2.13,56.36,8.82Z" transform="translate(0)"/><path class="cls-2" d="M49.31,46.1h-.18L36.46,41.33a.5.5,0,0,1-.33-.47V19.63c0-5.52,6.9-13.71,12.73-15.09,2.4-.58,5.74-.34,8,4.06v.07c.24.76,5.76,18.62,1.8,22.89-3.23,3.47-7.26,2.56-8.78,2.23h-.1c-.06,1.71,0,7.89.06,11.82a.53.53,0,0,1-.22.43A.58.58,0,0,1,49.31,46.1ZM37.13,40.48l11.65,4.37c-.18-11.52,0-11.76.1-11.92.23-.35.59-.27,1.19-.14a7.62,7.62,0,0,0,7.81-1.92c2.95-3.18-.44-16.81-2-21.86-1.54-3-3.83-4.2-6.8-3.49C43.32,6.91,37.14,15,37.14,19.63Z" transform="translate(0)"/><path class="cls-1" d="M52.6,5.15a19.67,19.67,0,0,0-9.39,15s-2.57-3.72-3.91-.44-.19,5.57,2.67,7c0,0,1.23,17.48-3.21,32.48S27.62,81.56,21,78.84,17,68.69,19.59,55.4,30.88,17,32,7.69,51.62-1.21,52.6,5.15Z" transform="translate(0)"/><path class="cls-2" d="M23.71,79.9a7.68,7.68,0,0,1-2.88-.59c-6.09-2.53-4.83-8.78-2.71-19.13l1-4.87C20.36,48.94,23,39.9,25.53,31.15c2.79-9.62,5.43-18.72,6-23.54C32.19,2.47,37.82.08,43.13,0c4.46,0,9.46,1.48,10,5.07a.5.5,0,0,1-.27.53,19.22,19.22,0,0,0-9.13,14.52.51.51,0,0,1-.55.46.47.47,0,0,1-.37-.22c-.31-.44-1.34-1.65-2.11-1.56-.42,0-.74.59-.91,1-1.18,2.89-.37,5,2.42,6.36a.5.5,0,0,1,.28.42c0,.18,1.18,17.75-3.24,32.67-3.12,10.53-7.45,17.58-12.18,19.83A7.61,7.61,0,0,1,23.71,79.9ZM43.37,1h-.26c-4.87.08-10,2.19-10.59,6.73-.61,4.9-3.25,14-6.09,23.69-2.53,8.73-5.15,17.76-6.37,24.07-.34,1.73-.66,3.36-1,4.88-2.09,10.15-3.23,15.79,2.11,18a6.44,6.44,0,0,0,5.41-.18C31,76.05,35.15,69.23,38.2,59c4.06-13.71,3.35-29.71,3.22-32-3.05-1.65-4-4.23-2.65-7.5.41-1,1-1.59,1.74-1.67a3.1,3.1,0,0,1,2.26,1A20.44,20.44,0,0,1,52,4.88C51.33,2.32,47.27,1,43.37,1Z" transform="translate(0)"/><path class="cls-1" d="M58.44,18.41s3,4.18,2.38,5-2.59.34-2.59.34" transform="translate(0)"/><path class="cls-2" d="M59.33,24.35a5.47,5.47,0,0,1-1.21-.13.52.52,0,0,1,.22-1c.67.14,1.78.18,2.1-.19.07-.39-1-2.44-2.42-4.33a.51.51,0,0,1,.11-.7.5.5,0,0,1,.7.09v0c1.49,2,3.12,4.69,2.37,5.58A2.47,2.47,0,0,1,59.33,24.35Z" transform="translate(0)"/><path class="cls-1" d="M57.31,26.68s-3.57,5-6.28,0" transform="translate(0)"/><path class="cls-2" d="M53.86,29.41h-.17c-1.21-.07-2.26-.9-3.11-2.47a.5.5,0,0,1,.18-.68h0a.52.52,0,0,1,.69.2c.67,1.25,1.45,1.9,2.28,1.95,1.59.12,3.13-2,3.14-2a.51.51,0,0,1,.84.59C57.66,27.08,56,29.41,53.86,29.41Z" transform="translate(0)"/><ellipse class="cls-2" cx="54.17" cy="14.39" rx="0.5" ry="0.92" transform="translate(-0.96 4.28) rotate(-4.48)"/><path class="cls-2" d="M49.31,33.21s-3.93-.88-5.14-2.46c0,0,.31,6.65,5.07,10.51Z" transform="translate(0)"/><path class="cls-2" d="M49.25,41.77a.51.51,0,0,1-.31-.11c-4.9-4-5.27-10.6-5.28-10.89a.5.5,0,0,1,.49-.52.48.48,0,0,1,.41.19c.92,1.18,3.82,2,4.86,2.27a.5.5,0,0,1,.4.5l-.06,8a.52.52,0,0,1-.29.46A.54.54,0,0,1,49.25,41.77ZM44.88,32a15.3,15.3,0,0,0,3.92,8.12V33.59A14.7,14.7,0,0,1,44.88,32Z" transform="translate(0)"/></g></svg>